%TF.GenerationSoftware,KiCad,Pcbnew,(7.0.0)*%
%TF.CreationDate,2023-07-11T22:52:13+02:00*%
%TF.ProjectId,newPCB,6e657750-4342-42e6-9b69-6361645f7063,rev?*%
%TF.SameCoordinates,Original*%
%TF.FileFunction,Copper,L2,Bot*%
%TF.FilePolarity,Positive*%
%FSLAX46Y46*%
G04 Gerber Fmt 4.6, Leading zero omitted, Abs format (unit mm)*
G04 Created by KiCad (PCBNEW (7.0.0)) date 2023-07-11 22:52:13*
%MOMM*%
%LPD*%
G01*
G04 APERTURE LIST*
G04 Aperture macros list*
%AMRoundRect*
0 Rectangle with rounded corners*
0 $1 Rounding radius*
0 $2 $3 $4 $5 $6 $7 $8 $9 X,Y pos of 4 corners*
0 Add a 4 corners polygon primitive as box body*
4,1,4,$2,$3,$4,$5,$6,$7,$8,$9,$2,$3,0*
0 Add four circle primitives for the rounded corners*
1,1,$1+$1,$2,$3*
1,1,$1+$1,$4,$5*
1,1,$1+$1,$6,$7*
1,1,$1+$1,$8,$9*
0 Add four rect primitives between the rounded corners*
20,1,$1+$1,$2,$3,$4,$5,0*
20,1,$1+$1,$4,$5,$6,$7,0*
20,1,$1+$1,$6,$7,$8,$9,0*
20,1,$1+$1,$8,$9,$2,$3,0*%
G04 Aperture macros list end*
%TA.AperFunction,ComponentPad*%
%ADD10RoundRect,0.250000X0.725000X-0.600000X0.725000X0.600000X-0.725000X0.600000X-0.725000X-0.600000X0*%
%TD*%
%TA.AperFunction,ComponentPad*%
%ADD11O,1.950000X1.700000*%
%TD*%
%TA.AperFunction,ComponentPad*%
%ADD12R,1.600000X1.600000*%
%TD*%
%TA.AperFunction,ComponentPad*%
%ADD13O,1.600000X1.600000*%
%TD*%
%TA.AperFunction,ComponentPad*%
%ADD14C,1.600000*%
%TD*%
%TA.AperFunction,ComponentPad*%
%ADD15R,1.700000X1.700000*%
%TD*%
%TA.AperFunction,ComponentPad*%
%ADD16O,1.700000X1.700000*%
%TD*%
%TA.AperFunction,ComponentPad*%
%ADD17RoundRect,0.250000X-0.725000X0.600000X-0.725000X-0.600000X0.725000X-0.600000X0.725000X0.600000X0*%
%TD*%
%TA.AperFunction,ComponentPad*%
%ADD18RoundRect,0.250000X0.600000X0.725000X-0.600000X0.725000X-0.600000X-0.725000X0.600000X-0.725000X0*%
%TD*%
%TA.AperFunction,ComponentPad*%
%ADD19O,1.700000X1.950000*%
%TD*%
%TA.AperFunction,ViaPad*%
%ADD20C,0.800000*%
%TD*%
%TA.AperFunction,Conductor*%
%ADD21C,0.800000*%
%TD*%
G04 APERTURE END LIST*
D10*
%TO.P,J9,1,Pin_1*%
%TO.N,Net-(A1-A0)*%
X213868000Y-108084000D03*
D11*
%TO.P,J9,2,Pin_2*%
%TO.N,Net-(A1-A1)*%
X213867999Y-105583999D03*
%TO.P,J9,3,Pin_3*%
%TO.N,Net-(A1-A2)*%
X213867999Y-103083999D03*
%TO.P,J9,4,Pin_4*%
%TO.N,Net-(A1-A3)*%
X213867999Y-100583999D03*
%TD*%
D10*
%TO.P,J1,1,Pin_1*%
%TO.N,Net-(A1-A4)*%
X213868000Y-94368000D03*
D11*
%TO.P,J1,2,Pin_2*%
%TO.N,Net-(A1-A5)*%
X213867999Y-91867999D03*
%TO.P,J1,3,Pin_3*%
%TO.N,Net-(A1-A6)*%
X213867999Y-89367999D03*
%TO.P,J1,4,Pin_4*%
%TO.N,Net-(A1-A7)*%
X213867999Y-86867999D03*
%TD*%
D12*
%TO.P,U1,1,in/out_A*%
%TO.N,5*%
X172719999Y-84063999D03*
D13*
%TO.P,U1,2,in/out_A*%
%TO.N,17*%
X175259999Y-84063999D03*
%TO.P,U1,3,in/out_B*%
%TO.N,4*%
X177799999Y-84063999D03*
%TO.P,U1,4,in/out_B*%
%TO.N,19*%
X180339999Y-84063999D03*
%TO.P,U1,5,Control_B*%
%TO.N,B*%
X182879999Y-84063999D03*
%TO.P,U1,6,Control_C*%
%TO.N,C*%
X185419999Y-84063999D03*
%TO.P,U1,7,Vss*%
%TO.N,11*%
X187959999Y-84063999D03*
%TO.P,U1,8,in/out_C*%
%TO.N,17*%
X187959999Y-76443999D03*
%TO.P,U1,9,in/out_C*%
%TO.N,4*%
X185419999Y-76443999D03*
%TO.P,U1,10,in/out_D*%
%TO.N,5*%
X182879999Y-76443999D03*
%TO.P,U1,11,in/out_D*%
%TO.N,4*%
X180339999Y-76443999D03*
%TO.P,U1,12,Control_D*%
%TO.N,D*%
X177799999Y-76443999D03*
%TO.P,U1,13,Control_A*%
%TO.N,A*%
X175259999Y-76443999D03*
%TO.P,U1,14,Vdd*%
%TO.N,+5V*%
X172719999Y-76443999D03*
%TD*%
D14*
%TO.P,R3,1*%
%TO.N,17*%
X168148000Y-101092000D03*
D13*
%TO.P,R3,2*%
%TO.N,11*%
X160527999Y-101091999D03*
%TD*%
D15*
%TO.P,J3,1,Pin_1*%
%TO.N,8*%
X145541999Y-75183999D03*
D16*
%TO.P,J3,2,Pin_2*%
%TO.N,13*%
X148081999Y-75183999D03*
%TO.P,J3,3,Pin_3*%
%TO.N,14*%
X150621999Y-75183999D03*
%TO.P,J3,4,Pin_4*%
%TO.N,11*%
X153161999Y-75183999D03*
%TO.P,J3,5*%
%TO.N,N/C*%
X155701999Y-75183999D03*
%TO.P,J3,6*%
X158241999Y-75183999D03*
%TD*%
D14*
%TO.P,R2,1*%
%TO.N,18*%
X168402000Y-105156000D03*
D13*
%TO.P,R2,2*%
%TO.N,11*%
X160781999Y-105155999D03*
%TD*%
D10*
%TO.P,J7,1,Pin_1*%
%TO.N,3*%
X165608000Y-82296000D03*
D11*
%TO.P,J7,2,Pin_2*%
%TO.N,4*%
X165607999Y-79795999D03*
%TO.P,J7,3,Pin_3*%
%TO.N,5*%
X165607999Y-77295999D03*
%TD*%
D17*
%TO.P,J5,1,Pin_1*%
%TO.N,14*%
X154940000Y-100156000D03*
D11*
%TO.P,J5,2,Pin_2*%
%TO.N,13*%
X154939999Y-102655999D03*
%TO.P,J5,3,Pin_3*%
%TO.N,8*%
X154939999Y-105155999D03*
%TO.P,J5,4,Pin_4*%
%TO.N,11*%
X154939999Y-107655999D03*
%TD*%
D14*
%TO.P,R4,1*%
%TO.N,5*%
X167386000Y-97536000D03*
D13*
%TO.P,R4,2*%
%TO.N,11*%
X159765999Y-97535999D03*
%TD*%
D14*
%TO.P,R7,1*%
%TO.N,14*%
X148844000Y-98044000D03*
D13*
%TO.P,R7,2*%
%TO.N,8*%
X148843999Y-105663999D03*
%TD*%
%TO.P,U2,14,Vdd*%
%TO.N,+5V*%
X172719999Y-88899999D03*
%TO.P,U2,13,Control_A*%
%TO.N,A'*%
X175259999Y-88899999D03*
%TO.P,U2,12,Control_D*%
%TO.N,D'*%
X177799999Y-88899999D03*
%TO.P,U2,11,in/out_D*%
%TO.N,3*%
X180339999Y-88899999D03*
%TO.P,U2,10,in/out_D*%
%TO.N,18*%
X182879999Y-88899999D03*
%TO.P,U2,9,in/out_C*%
%TO.N,3*%
X185419999Y-88899999D03*
%TO.P,U2,8,in/out_C*%
%TO.N,5*%
X187959999Y-88899999D03*
%TO.P,U2,7,Vss*%
%TO.N,11*%
X187959999Y-96519999D03*
%TO.P,U2,6,Control_C*%
%TO.N,C'*%
X185419999Y-96519999D03*
%TO.P,U2,5,Control_B*%
%TO.N,B'*%
X182879999Y-96519999D03*
%TO.P,U2,4,in/out_B*%
%TO.N,17*%
X180339999Y-96519999D03*
%TO.P,U2,3,in/out_B*%
%TO.N,3*%
X177799999Y-96519999D03*
%TO.P,U2,2,in/out_A*%
%TO.N,4*%
X175259999Y-96519999D03*
D12*
%TO.P,U2,1,in/out_A*%
%TO.N,3*%
X172719999Y-96519999D03*
%TD*%
%TO.P,A1,1,D1/TX*%
%TO.N,D*%
X193547999Y-77215999D03*
D13*
%TO.P,A1,2,D0/RX*%
%TO.N,A*%
X193547999Y-79755999D03*
%TO.P,A1,3,~{RESET}*%
%TO.N,unconnected-(A1-~{RESET}-Pad3)*%
X193547999Y-82295999D03*
%TO.P,A1,4,GND*%
%TO.N,11*%
X193547999Y-84835999D03*
%TO.P,A1,5,D2*%
%TO.N,C*%
X193547999Y-87375999D03*
%TO.P,A1,6,D3*%
%TO.N,B*%
X193547999Y-89915999D03*
%TO.P,A1,7,D4*%
%TO.N,D'*%
X193547999Y-92455999D03*
%TO.P,A1,8,D5*%
%TO.N,A'*%
X193547999Y-94995999D03*
%TO.P,A1,9,D6*%
%TO.N,C'*%
X193547999Y-97535999D03*
%TO.P,A1,10,D7*%
%TO.N,B'*%
X193547999Y-100075999D03*
%TO.P,A1,11,D8*%
%TO.N,D''*%
X193547999Y-102615999D03*
%TO.P,A1,12,D9*%
%TO.N,A''*%
X193547999Y-105155999D03*
%TO.P,A1,13,D10*%
%TO.N,C''*%
X193547999Y-107695999D03*
%TO.P,A1,14,D11*%
%TO.N,B''*%
X193547999Y-110235999D03*
%TO.P,A1,15,D12*%
%TO.N,20*%
X193547999Y-112775999D03*
%TO.P,A1,16,D13*%
%TO.N,2*%
X208787999Y-112775999D03*
%TO.P,A1,17,3V3*%
%TO.N,unconnected-(A1-3V3-Pad17)*%
X208787999Y-110235999D03*
%TO.P,A1,18,AREF*%
%TO.N,unconnected-(A1-AREF-Pad18)*%
X208787999Y-107695999D03*
%TO.P,A1,19,A0*%
%TO.N,Net-(A1-A0)*%
X208787999Y-105155999D03*
%TO.P,A1,20,A1*%
%TO.N,Net-(A1-A1)*%
X208787999Y-102615999D03*
%TO.P,A1,21,A2*%
%TO.N,Net-(A1-A2)*%
X208787999Y-100075999D03*
%TO.P,A1,22,A3*%
%TO.N,Net-(A1-A3)*%
X208787999Y-97535999D03*
%TO.P,A1,23,A4*%
%TO.N,Net-(A1-A4)*%
X208787999Y-94995999D03*
%TO.P,A1,24,A5*%
%TO.N,Net-(A1-A5)*%
X208787999Y-92455999D03*
%TO.P,A1,25,A6*%
%TO.N,Net-(A1-A6)*%
X208787999Y-89915999D03*
%TO.P,A1,26,A7*%
%TO.N,Net-(A1-A7)*%
X208787999Y-87375999D03*
%TO.P,A1,27,+5V*%
%TO.N,+5V*%
X208787999Y-84835999D03*
%TO.P,A1,28,~{RESET}*%
%TO.N,unconnected-(A1-~{RESET}-Pad28)*%
X208787999Y-82295999D03*
%TO.P,A1,29,GND*%
%TO.N,11*%
X208787999Y-79755999D03*
%TO.P,A1,30,VIN*%
%TO.N,unconnected-(A1-VIN-Pad30)*%
X208787999Y-77215999D03*
%TD*%
D14*
%TO.P,R6,1*%
%TO.N,3*%
X167386000Y-90424000D03*
D13*
%TO.P,R6,2*%
%TO.N,11*%
X159765999Y-90423999D03*
%TD*%
D14*
%TO.P,R1,1*%
%TO.N,19*%
X168402000Y-109220000D03*
D13*
%TO.P,R1,2*%
%TO.N,11*%
X160781999Y-109219999D03*
%TD*%
D18*
%TO.P,J4,1,Pin_1*%
%TO.N,3V3*%
X154626000Y-92981000D03*
D19*
%TO.P,J4,2,Pin_2*%
%TO.N,SDA2*%
X152125999Y-92980999D03*
%TO.P,J4,3,Pin_3*%
%TO.N,SCL2*%
X149625999Y-92980999D03*
%TO.P,J4,4,Pin_4*%
%TO.N,11*%
X147125999Y-92980999D03*
%TD*%
D14*
%TO.P,R5,1*%
%TO.N,4*%
X167640000Y-93980000D03*
D13*
%TO.P,R5,2*%
%TO.N,11*%
X160019999Y-93979999D03*
%TD*%
D15*
%TO.P,J2,1,Pin_1*%
%TO.N,SCL2*%
X145795999Y-85343999D03*
D16*
%TO.P,J2,2,Pin_2*%
%TO.N,SDA2*%
X148335999Y-85343999D03*
%TO.P,J2,3,Pin_3*%
%TO.N,3V3*%
X150875999Y-85343999D03*
%TO.P,J2,4,Pin_4*%
%TO.N,11*%
X153415999Y-85343999D03*
%TO.P,J2,5*%
%TO.N,N/C*%
X155955999Y-85343999D03*
%TO.P,J2,6*%
X158495999Y-85343999D03*
%TD*%
D12*
%TO.P,U3,1,in/out_A*%
%TO.N,5*%
X172719999Y-108711999D03*
D13*
%TO.P,U3,2,in/out_A*%
%TO.N,18*%
X175259999Y-108711999D03*
%TO.P,U3,3,in/out_B*%
%TO.N,17*%
X177799999Y-108711999D03*
%TO.P,U3,4,in/out_B*%
%TO.N,18*%
X180339999Y-108711999D03*
%TO.P,U3,5,Control_B*%
%TO.N,B''*%
X182879999Y-108711999D03*
%TO.P,U3,6,Control_C*%
%TO.N,C''*%
X185419999Y-108711999D03*
%TO.P,U3,7,Vss*%
%TO.N,11*%
X187959999Y-108711999D03*
%TO.P,U3,8,in/out_C*%
%TO.N,17*%
X187959999Y-101091999D03*
%TO.P,U3,9,in/out_C*%
%TO.N,19*%
X185419999Y-101091999D03*
%TO.P,U3,10,in/out_D*%
%TO.N,3*%
X182879999Y-101091999D03*
%TO.P,U3,11,in/out_D*%
%TO.N,19*%
X180339999Y-101091999D03*
%TO.P,U3,12,Control_D*%
%TO.N,D''*%
X177799999Y-101091999D03*
%TO.P,U3,13,Control_A*%
%TO.N,A''*%
X175259999Y-101091999D03*
%TO.P,U3,14,Vdd*%
%TO.N,+5V*%
X172719999Y-101091999D03*
%TD*%
D18*
%TO.P,J8,1,Pin_1*%
%TO.N,11*%
X186944000Y-116332000D03*
D19*
%TO.P,J8,2,Pin_2*%
%TO.N,2*%
X184443999Y-116331999D03*
%TO.P,J8,3,Pin_3*%
%TO.N,20*%
X181943999Y-116331999D03*
%TD*%
D14*
%TO.P,R8,1*%
%TO.N,14*%
X145288000Y-97790000D03*
D13*
%TO.P,R8,2*%
%TO.N,13*%
X145287999Y-105409999D03*
%TD*%
D18*
%TO.P,J6,1,Pin_1*%
%TO.N,17*%
X174752000Y-116332000D03*
D19*
%TO.P,J6,2,Pin_2*%
%TO.N,18*%
X172251999Y-116331999D03*
%TO.P,J6,3,Pin_3*%
%TO.N,19*%
X169751999Y-116331999D03*
%TD*%
D20*
%TO.N,17*%
X168656000Y-82296000D03*
%TO.N,4*%
X173228000Y-79756000D03*
%TO.N,5*%
X179324000Y-85852000D03*
%TD*%
D21*
%TO.N,14*%
X143764000Y-83566000D02*
X150622000Y-76708000D01*
X150622000Y-76708000D02*
X150622000Y-75184000D01*
X143764000Y-92964000D02*
X143764000Y-83566000D01*
X148844000Y-98044000D02*
X143764000Y-92964000D01*
%TO.N,+5V*%
X171320000Y-99692000D02*
X172720000Y-101092000D01*
X171320000Y-90300000D02*
X171320000Y-99692000D01*
X172720000Y-76444000D02*
X171320000Y-77844000D01*
X171320000Y-77844000D02*
X171320000Y-87500000D01*
X172720000Y-88900000D02*
X171320000Y-90300000D01*
X171320000Y-87500000D02*
X172720000Y-88900000D01*
%TO.N,17*%
X187960000Y-76444000D02*
X187960000Y-76708000D01*
X169040000Y-82680000D02*
X169040000Y-100200000D01*
X169040000Y-100200000D02*
X168148000Y-101092000D01*
X185560000Y-103492000D02*
X187960000Y-101092000D01*
X177800000Y-108712000D02*
X183020000Y-103492000D01*
X187960000Y-76708000D02*
X182004000Y-82664000D01*
X176660000Y-82664000D02*
X175260000Y-84064000D01*
X183020000Y-103492000D02*
X185560000Y-103492000D01*
X182004000Y-82664000D02*
X181476000Y-82664000D01*
X181476000Y-82664000D02*
X176660000Y-82664000D01*
X168656000Y-82296000D02*
X169040000Y-82680000D01*
%TO.N,18*%
X185928000Y-114300000D02*
X172759000Y-114300000D01*
X184280000Y-87500000D02*
X188539899Y-87500000D01*
X172252000Y-114807000D02*
X172252000Y-116332000D01*
X178940000Y-110112000D02*
X180340000Y-108712000D01*
X175260000Y-108712000D02*
X176660000Y-110112000D01*
X172759000Y-114300000D02*
X172252000Y-114807000D01*
X176660000Y-110112000D02*
X178940000Y-110112000D01*
X182880000Y-88900000D02*
X184280000Y-87500000D01*
X190360000Y-89320101D02*
X190360000Y-109868000D01*
X188539899Y-87500000D02*
X190360000Y-89320101D01*
X190360000Y-109868000D02*
X185928000Y-114300000D01*
%TO.N,19*%
X170320000Y-100671899D02*
X170320000Y-77128101D01*
X181740000Y-102492000D02*
X184020000Y-102492000D01*
X178940000Y-102492000D02*
X172140101Y-102492000D01*
X189484000Y-84783899D02*
X188539899Y-85728000D01*
X189484000Y-75988101D02*
X189484000Y-84783899D01*
X188539899Y-85728000D02*
X182004000Y-85728000D01*
X168402000Y-109220000D02*
X172140101Y-105481899D01*
X172140101Y-102492000D02*
X170320000Y-100671899D01*
X184020000Y-102492000D02*
X185420000Y-101092000D01*
X180340000Y-101092000D02*
X181740000Y-102492000D01*
X170320000Y-77128101D02*
X171320000Y-76128101D01*
X182004000Y-85728000D02*
X180340000Y-84064000D01*
X171320000Y-76128101D02*
X171320000Y-75864101D01*
X172140101Y-75044000D02*
X188539899Y-75044000D01*
X180340000Y-101092000D02*
X178940000Y-102492000D01*
X171320000Y-75864101D02*
X172140101Y-75044000D01*
X172140101Y-105481899D02*
X172140101Y-102492000D01*
X188539899Y-75044000D02*
X189484000Y-75988101D01*
%TO.N,3*%
X181740000Y-90300000D02*
X180340000Y-88900000D01*
X186383899Y-112268000D02*
X169470101Y-112268000D01*
X180340000Y-88900000D02*
X180340000Y-93980000D01*
X188539899Y-99692000D02*
X189360000Y-100512101D01*
X169470101Y-112268000D02*
X165608000Y-108405899D01*
X175892000Y-99692000D02*
X188539899Y-99692000D01*
X189360000Y-109291899D02*
X186383899Y-112268000D01*
X165608000Y-108405899D02*
X165608000Y-92202000D01*
X184020000Y-90300000D02*
X181740000Y-90300000D01*
X185420000Y-88900000D02*
X184020000Y-90300000D01*
X189360000Y-100512101D02*
X189360000Y-109291899D01*
X180340000Y-93980000D02*
X177800000Y-96520000D01*
X165608000Y-92202000D02*
X167386000Y-90424000D01*
X172720000Y-96520000D02*
X175892000Y-99692000D01*
%TO.N,4*%
X180340000Y-76444000D02*
X180340000Y-76708000D01*
X177292000Y-79756000D02*
X173228000Y-79756000D01*
X180340000Y-76708000D02*
X177292000Y-79756000D01*
%TO.N,5*%
X178831999Y-80756001D02*
X176291999Y-80756001D01*
X172984000Y-84064000D02*
X172720000Y-84064000D01*
X172720000Y-84064000D02*
X174508000Y-85852000D01*
X176291999Y-80756001D02*
X172984000Y-84064000D01*
X182880000Y-76444000D02*
X182880000Y-76708000D01*
X174508000Y-85852000D02*
X179324000Y-85852000D01*
X182880000Y-76708000D02*
X178831999Y-80756001D01*
%TD*%
M02*
