M48
; DRILL file {KiCad (7.0.0)} date Tue Jul 11 22:52:16 2023
; FORMAT={-:-/ absolute / metric / decimal}
; #@! TF.CreationDate,2023-07-11T22:52:16+02:00
; #@! TF.GenerationSoftware,Kicad,Pcbnew,(7.0.0)
; #@! TF.FileFunction,Plated,1,2,PTH
FMAT,2
METRIC
; #@! TA.AperFunction,Plated,PTH,ViaDrill
T1C0.400
; #@! TA.AperFunction,Plated,PTH,ComponentDrill
T2C0.800
; #@! TA.AperFunction,Plated,PTH,ComponentDrill
T3C0.950
; #@! TA.AperFunction,Plated,PTH,ComponentDrill
T4C1.000
%
G90
G05
T1
X168.656Y-82.296
X173.228Y-79.756
X179.324Y-85.852
T2
X145.288Y-97.79
X145.288Y-105.41
X148.844Y-98.044
X148.844Y-105.664
X159.766Y-90.424
X159.766Y-97.536
X160.02Y-93.98
X160.528Y-101.092
X160.782Y-105.156
X160.782Y-109.22
X167.386Y-90.424
X167.386Y-97.536
X167.64Y-93.98
X168.148Y-101.092
X168.402Y-105.156
X168.402Y-109.22
X172.72Y-76.444
X172.72Y-84.064
X172.72Y-88.9
X172.72Y-96.52
X172.72Y-101.092
X172.72Y-108.712
X175.26Y-76.444
X175.26Y-84.064
X175.26Y-88.9
X175.26Y-96.52
X175.26Y-101.092
X175.26Y-108.712
X177.8Y-76.444
X177.8Y-84.064
X177.8Y-88.9
X177.8Y-96.52
X177.8Y-101.092
X177.8Y-108.712
X180.34Y-76.444
X180.34Y-84.064
X180.34Y-88.9
X180.34Y-96.52
X180.34Y-101.092
X180.34Y-108.712
X182.88Y-76.444
X182.88Y-84.064
X182.88Y-88.9
X182.88Y-96.52
X182.88Y-101.092
X182.88Y-108.712
X185.42Y-76.444
X185.42Y-84.064
X185.42Y-88.9
X185.42Y-96.52
X185.42Y-101.092
X185.42Y-108.712
X187.96Y-76.444
X187.96Y-84.064
X187.96Y-88.9
X187.96Y-96.52
X187.96Y-101.092
X187.96Y-108.712
T3
X147.126Y-92.981
X149.626Y-92.981
X152.126Y-92.981
X154.626Y-92.981
X154.94Y-100.156
X154.94Y-102.656
X154.94Y-105.156
X154.94Y-107.656
X165.608Y-77.296
X165.608Y-79.796
X165.608Y-82.296
X169.752Y-116.332
X172.252Y-116.332
X174.752Y-116.332
X181.944Y-116.332
X184.444Y-116.332
X186.944Y-116.332
X213.868Y-86.868
X213.868Y-89.368
X213.868Y-91.868
X213.868Y-94.368
X213.868Y-100.584
X213.868Y-103.084
X213.868Y-105.584
X213.868Y-108.084
T4
X145.542Y-75.184
X145.796Y-85.344
X148.082Y-75.184
X148.336Y-85.344
X150.622Y-75.184
X150.876Y-85.344
X153.162Y-75.184
X153.416Y-85.344
X155.702Y-75.184
X155.956Y-85.344
X158.242Y-75.184
X158.496Y-85.344
X193.548Y-77.216
X193.548Y-79.756
X193.548Y-82.296
X193.548Y-84.836
X193.548Y-87.376
X193.548Y-89.916
X193.548Y-92.456
X193.548Y-94.996
X193.548Y-97.536
X193.548Y-100.076
X193.548Y-102.616
X193.548Y-105.156
X193.548Y-107.696
X193.548Y-110.236
X193.548Y-112.776
X208.788Y-77.216
X208.788Y-79.756
X208.788Y-82.296
X208.788Y-84.836
X208.788Y-87.376
X208.788Y-89.916
X208.788Y-92.456
X208.788Y-94.996
X208.788Y-97.536
X208.788Y-100.076
X208.788Y-102.616
X208.788Y-105.156
X208.788Y-107.696
X208.788Y-110.236
X208.788Y-112.776
T0
M30
