%TF.GenerationSoftware,KiCad,Pcbnew,(7.0.0)*%
%TF.CreationDate,2023-07-07T21:43:18+02:00*%
%TF.ProjectId,newPCB,6e657750-4342-42e6-9b69-6361645f7063,rev?*%
%TF.SameCoordinates,Original*%
%TF.FileFunction,Copper,L2,Bot*%
%TF.FilePolarity,Positive*%
%FSLAX46Y46*%
G04 Gerber Fmt 4.6, Leading zero omitted, Abs format (unit mm)*
G04 Created by KiCad (PCBNEW (7.0.0)) date 2023-07-07 21:43:18*
%MOMM*%
%LPD*%
G01*
G04 APERTURE LIST*
G04 Aperture macros list*
%AMRoundRect*
0 Rectangle with rounded corners*
0 $1 Rounding radius*
0 $2 $3 $4 $5 $6 $7 $8 $9 X,Y pos of 4 corners*
0 Add a 4 corners polygon primitive as box body*
4,1,4,$2,$3,$4,$5,$6,$7,$8,$9,$2,$3,0*
0 Add four circle primitives for the rounded corners*
1,1,$1+$1,$2,$3*
1,1,$1+$1,$4,$5*
1,1,$1+$1,$6,$7*
1,1,$1+$1,$8,$9*
0 Add four rect primitives between the rounded corners*
20,1,$1+$1,$2,$3,$4,$5,0*
20,1,$1+$1,$4,$5,$6,$7,0*
20,1,$1+$1,$6,$7,$8,$9,0*
20,1,$1+$1,$8,$9,$2,$3,0*%
G04 Aperture macros list end*
%TA.AperFunction,ComponentPad*%
%ADD10C,1.600000*%
%TD*%
%TA.AperFunction,ComponentPad*%
%ADD11O,1.600000X1.600000*%
%TD*%
%TA.AperFunction,ComponentPad*%
%ADD12R,1.600000X1.600000*%
%TD*%
%TA.AperFunction,ComponentPad*%
%ADD13R,1.700000X1.700000*%
%TD*%
%TA.AperFunction,ComponentPad*%
%ADD14O,1.700000X1.700000*%
%TD*%
%TA.AperFunction,ComponentPad*%
%ADD15RoundRect,0.250000X0.725000X-0.600000X0.725000X0.600000X-0.725000X0.600000X-0.725000X-0.600000X0*%
%TD*%
%TA.AperFunction,ComponentPad*%
%ADD16O,1.950000X1.700000*%
%TD*%
%TA.AperFunction,ComponentPad*%
%ADD17R,1.300000X1.300000*%
%TD*%
%TA.AperFunction,ComponentPad*%
%ADD18C,1.300000*%
%TD*%
%TA.AperFunction,ViaPad*%
%ADD19C,0.800000*%
%TD*%
%TA.AperFunction,Conductor*%
%ADD20C,1.000000*%
%TD*%
G04 APERTURE END LIST*
D10*
%TO.P,R3,1*%
%TO.N,17*%
X59690000Y-89916000D03*
D11*
%TO.P,R3,2*%
%TO.N,11*%
X67309999Y-89915999D03*
%TD*%
D12*
%TO.P,U3,1,in/out_A*%
%TO.N,5*%
X88391999Y-105155999D03*
D11*
%TO.P,U3,2,in/out_A*%
%TO.N,18*%
X90931999Y-105155999D03*
%TO.P,U3,3,in/out_B*%
%TO.N,17*%
X93471999Y-105155999D03*
%TO.P,U3,4,in/out_B*%
%TO.N,18*%
X96011999Y-105155999D03*
%TO.P,U3,5,Control_B*%
%TO.N,B''*%
X98551999Y-105155999D03*
%TO.P,U3,6,Control_C*%
%TO.N,C''*%
X101091999Y-105155999D03*
%TO.P,U3,7,Vss*%
%TO.N,11*%
X103631999Y-105155999D03*
%TO.P,U3,8,in/out_C*%
%TO.N,17*%
X103631999Y-97535999D03*
%TO.P,U3,9,in/out_C*%
%TO.N,19*%
X101091999Y-97535999D03*
%TO.P,U3,10,in/out_D*%
%TO.N,3*%
X98551999Y-97535999D03*
%TO.P,U3,11,in/out_D*%
%TO.N,19*%
X96011999Y-97535999D03*
%TO.P,U3,12,Control_D*%
%TO.N,D''*%
X93471999Y-97535999D03*
%TO.P,U3,13,Control_A*%
%TO.N,A''*%
X90931999Y-97535999D03*
%TO.P,U3,14,Vdd*%
%TO.N,+5V*%
X88391999Y-97535999D03*
%TD*%
D13*
%TO.P,J2,1,Pin_1*%
%TO.N,SCL2*%
X80263999Y-58927999D03*
D14*
%TO.P,J2,2,Pin_2*%
%TO.N,SDA2*%
X77723999Y-58927999D03*
%TO.P,J2,3,Pin_3*%
%TO.N,3V3*%
X75183999Y-58927999D03*
%TO.P,J2,4,Pin_4*%
%TO.N,11*%
X72643999Y-58927999D03*
%TO.P,J2,5*%
%TO.N,N/C*%
X70103999Y-58927999D03*
%TO.P,J2,6*%
X67563999Y-58927999D03*
%TD*%
D10*
%TO.P,R5,1*%
%TO.N,4*%
X67310000Y-93980000D03*
D11*
%TO.P,R5,2*%
%TO.N,11*%
X59689999Y-93979999D03*
%TD*%
D12*
%TO.P,U1,1,in/out_A*%
%TO.N,5*%
X88391999Y-69595999D03*
D11*
%TO.P,U1,2,in/out_A*%
%TO.N,17*%
X90931999Y-69595999D03*
%TO.P,U1,3,in/out_B*%
%TO.N,4*%
X93471999Y-69595999D03*
%TO.P,U1,4,in/out_B*%
%TO.N,19*%
X96011999Y-69595999D03*
%TO.P,U1,5,Control_B*%
%TO.N,B*%
X98551999Y-69595999D03*
%TO.P,U1,6,Control_C*%
%TO.N,C*%
X101091999Y-69595999D03*
%TO.P,U1,7,Vss*%
%TO.N,11*%
X103631999Y-69595999D03*
%TO.P,U1,8,in/out_C*%
%TO.N,17*%
X103631999Y-61975999D03*
%TO.P,U1,9,in/out_C*%
%TO.N,4*%
X101091999Y-61975999D03*
%TO.P,U1,10,in/out_D*%
%TO.N,5*%
X98551999Y-61975999D03*
%TO.P,U1,11,in/out_D*%
%TO.N,4*%
X96011999Y-61975999D03*
%TO.P,U1,12,Control_D*%
%TO.N,D*%
X93471999Y-61975999D03*
%TO.P,U1,13,Control_A*%
%TO.N,A*%
X90931999Y-61975999D03*
%TO.P,U1,14,Vdd*%
%TO.N,+5V*%
X88391999Y-61975999D03*
%TD*%
D12*
%TO.P,A1,1,D1/TX*%
%TO.N,A*%
X111922999Y-64461999D03*
D11*
%TO.P,A1,2,D0/RX*%
%TO.N,D*%
X111922999Y-67001999D03*
%TO.P,A1,3,~{RESET}*%
%TO.N,unconnected-(A1-~{RESET}-Pad3)*%
X111922999Y-69541999D03*
%TO.P,A1,4,GND*%
%TO.N,11*%
X111922999Y-72081999D03*
%TO.P,A1,5,D2*%
%TO.N,C*%
X111922999Y-74621999D03*
%TO.P,A1,6,D3*%
%TO.N,B*%
X111922999Y-77161999D03*
%TO.P,A1,7,D4*%
%TO.N,A'*%
X111922999Y-79701999D03*
%TO.P,A1,8,D5*%
%TO.N,D'*%
X111922999Y-82241999D03*
%TO.P,A1,9,D6*%
%TO.N,C'*%
X111922999Y-84781999D03*
%TO.P,A1,10,D7*%
%TO.N,B'*%
X111922999Y-87321999D03*
%TO.P,A1,11,D8*%
%TO.N,A''*%
X111922999Y-89861999D03*
%TO.P,A1,12,D9*%
%TO.N,D''*%
X111922999Y-92401999D03*
%TO.P,A1,13,D10*%
%TO.N,C''*%
X111922999Y-94941999D03*
%TO.P,A1,14,D11*%
%TO.N,B''*%
X111922999Y-97481999D03*
%TO.P,A1,15,D12*%
%TO.N,20*%
X111922999Y-100021999D03*
%TO.P,A1,16,D13*%
%TO.N,2*%
X127162999Y-100021999D03*
%TO.P,A1,17,3V3*%
%TO.N,unconnected-(A1-3V3-Pad17)*%
X127162999Y-97481999D03*
%TO.P,A1,18,AREF*%
%TO.N,unconnected-(A1-AREF-Pad18)*%
X127162999Y-94941999D03*
%TO.P,A1,19,A0*%
%TO.N,unconnected-(A1-A0-Pad19)*%
X127162999Y-92401999D03*
%TO.P,A1,20,A1*%
%TO.N,unconnected-(A1-A1-Pad20)*%
X127162999Y-89861999D03*
%TO.P,A1,21,A2*%
%TO.N,unconnected-(A1-A2-Pad21)*%
X127162999Y-87321999D03*
%TO.P,A1,22,A3*%
%TO.N,unconnected-(A1-A3-Pad22)*%
X127162999Y-84781999D03*
%TO.P,A1,23,A4*%
%TO.N,unconnected-(A1-A4-Pad23)*%
X127162999Y-82241999D03*
%TO.P,A1,24,A5*%
%TO.N,unconnected-(A1-A5-Pad24)*%
X127162999Y-79701999D03*
%TO.P,A1,25,A6*%
%TO.N,unconnected-(A1-A6-Pad25)*%
X127162999Y-77161999D03*
%TO.P,A1,26,A7*%
%TO.N,unconnected-(A1-A7-Pad26)*%
X127162999Y-74621999D03*
%TO.P,A1,27,+5V*%
%TO.N,+5V*%
X127162999Y-72081999D03*
%TO.P,A1,28,~{RESET}*%
%TO.N,unconnected-(A1-~{RESET}-Pad28)*%
X127162999Y-69541999D03*
%TO.P,A1,29,GND*%
%TO.N,11*%
X127162999Y-67001999D03*
%TO.P,A1,30,VIN*%
%TO.N,unconnected-(A1-VIN-Pad30)*%
X127162999Y-64461999D03*
%TD*%
D10*
%TO.P,R1,1*%
%TO.N,19*%
X67310000Y-81788000D03*
D11*
%TO.P,R1,2*%
%TO.N,11*%
X59689999Y-81787999D03*
%TD*%
D10*
%TO.P,R8,1*%
%TO.N,14*%
X79756000Y-94234000D03*
D11*
%TO.P,R8,2*%
%TO.N,13*%
X79755999Y-86613999D03*
%TD*%
D15*
%TO.P,J4,1,Pin_1*%
%TO.N,11*%
X60960000Y-68580000D03*
D16*
%TO.P,J4,2,Pin_2*%
%TO.N,SCL2*%
X60959999Y-66079999D03*
%TO.P,J4,3,Pin_3*%
%TO.N,SDA2*%
X60959999Y-63579999D03*
%TO.P,J4,4,Pin_4*%
%TO.N,3V3*%
X60959999Y-61079999D03*
%TD*%
D13*
%TO.P,J3,1,Pin_1*%
%TO.N,8*%
X80263999Y-69087999D03*
D14*
%TO.P,J3,2,Pin_2*%
%TO.N,13*%
X77723999Y-69087999D03*
%TO.P,J3,3,Pin_3*%
%TO.N,14*%
X75183999Y-69087999D03*
%TO.P,J3,4,Pin_4*%
%TO.N,11*%
X72643999Y-69087999D03*
%TO.P,J3,5*%
%TO.N,N/C*%
X70103999Y-69087999D03*
%TO.P,J3,6*%
X67563999Y-69087999D03*
%TD*%
D11*
%TO.P,R4,2*%
%TO.N,11*%
X82803999Y-92709999D03*
D10*
%TO.P,R4,1*%
%TO.N,5*%
X82804000Y-100330000D03*
%TD*%
%TO.P,R2,1*%
%TO.N,18*%
X67310000Y-85852000D03*
D11*
%TO.P,R2,2*%
%TO.N,11*%
X59689999Y-85851999D03*
%TD*%
D10*
%TO.P,R6,1*%
%TO.N,3*%
X67310000Y-98044000D03*
D11*
%TO.P,R6,2*%
%TO.N,11*%
X59689999Y-98043999D03*
%TD*%
D12*
%TO.P,U2,1,in/out_A*%
%TO.N,3*%
X88391999Y-86867999D03*
D11*
%TO.P,U2,2,in/out_A*%
%TO.N,4*%
X90931999Y-86867999D03*
%TO.P,U2,3,in/out_B*%
%TO.N,3*%
X93471999Y-86867999D03*
%TO.P,U2,4,in/out_B*%
%TO.N,17*%
X96011999Y-86867999D03*
%TO.P,U2,5,Control_B*%
%TO.N,B'*%
X98551999Y-86867999D03*
%TO.P,U2,6,Control_C*%
%TO.N,C'*%
X101091999Y-86867999D03*
%TO.P,U2,7,Vss*%
%TO.N,11*%
X103631999Y-86867999D03*
%TO.P,U2,8,in/out_C*%
%TO.N,5*%
X103631999Y-79247999D03*
%TO.P,U2,9,in/out_C*%
%TO.N,3*%
X101091999Y-79247999D03*
%TO.P,U2,10,in/out_D*%
%TO.N,18*%
X98551999Y-79247999D03*
%TO.P,U2,11,in/out_D*%
%TO.N,3*%
X96011999Y-79247999D03*
%TO.P,U2,12,Control_D*%
%TO.N,D'*%
X93471999Y-79247999D03*
%TO.P,U2,13,Control_A*%
%TO.N,A'*%
X90931999Y-79247999D03*
%TO.P,U2,14,Vdd*%
%TO.N,+5V*%
X88391999Y-79247999D03*
%TD*%
D17*
%TO.P,J1,1,Pin_1*%
%TO.N,1*%
X76199999Y-104393999D03*
D18*
%TO.P,J1,2,Pin_2*%
%TO.N,2*%
X73660000Y-103124000D03*
%TO.P,J1,3,Pin_3*%
%TO.N,3*%
X76200000Y-101854000D03*
%TO.P,J1,4,Pin_4*%
%TO.N,4*%
X73660000Y-100584000D03*
%TO.P,J1,5,Pin_5*%
%TO.N,5*%
X76200000Y-99314000D03*
%TO.P,J1,6,Pin_6*%
%TO.N,6*%
X73660000Y-98044000D03*
%TO.P,J1,7,Pin_7*%
%TO.N,11*%
X76200000Y-96774000D03*
%TO.P,J1,8,Pin_8*%
%TO.N,8*%
X73660000Y-95504000D03*
%TO.P,J1,9,Pin_9*%
%TO.N,9*%
X76200000Y-94234000D03*
%TO.P,J1,10,Pin_10*%
%TO.N,10*%
X73660000Y-92964000D03*
%TO.P,J1,11,Pin_11*%
%TO.N,11*%
X76200000Y-91694000D03*
%TO.P,J1,12,Pin_12*%
%TO.N,12*%
X73660000Y-90424000D03*
%TO.P,J1,13,Pin_13*%
%TO.N,13*%
X76200000Y-89154000D03*
%TO.P,J1,14,Pin_14*%
%TO.N,14*%
X73660000Y-87884000D03*
%TO.P,J1,15,Pin_15*%
%TO.N,15*%
X76200000Y-86614000D03*
%TO.P,J1,16,Pin_16*%
%TO.N,16*%
X73660000Y-85344000D03*
%TO.P,J1,17,Pin_17*%
%TO.N,17*%
X76200000Y-84074000D03*
%TO.P,J1,18,Pin_18*%
%TO.N,18*%
X73660000Y-82804000D03*
%TO.P,J1,19,Pin_19*%
%TO.N,19*%
X76200000Y-81534000D03*
%TO.P,J1,20,Pin_20*%
%TO.N,20*%
X73660000Y-80264000D03*
%TD*%
D10*
%TO.P,R7,1*%
%TO.N,14*%
X70104000Y-89154000D03*
D11*
%TO.P,R7,2*%
%TO.N,8*%
X70103999Y-96773999D03*
%TD*%
D19*
%TO.N,11*%
X66040000Y-76200000D03*
X68580000Y-78740000D03*
%TO.N,+5V*%
X81280000Y-106426000D03*
%TO.N,2*%
X65024000Y-106172000D03*
X67564000Y-103632000D03*
X70104000Y-101092000D03*
%TO.N,20*%
X74676000Y-76708000D03*
X77216000Y-79756000D03*
%TO.N,+5V*%
X84328000Y-80264000D03*
X80264000Y-75184000D03*
%TO.N,8*%
X63500000Y-99060000D03*
%TO.N,11*%
X106680000Y-66548000D03*
X93472000Y-81788000D03*
X106680000Y-62484000D03*
X87376000Y-84328000D03*
X105664000Y-101600000D03*
X105664000Y-104648000D03*
%TO.N,14*%
X81280000Y-107696000D03*
X84328000Y-103124000D03*
%TO.N,19*%
X84328000Y-85344000D03*
X81788000Y-88900000D03*
X90424000Y-94488000D03*
%TD*%
D20*
%TO.N,8*%
X80264000Y-68072000D02*
X80264000Y-69088000D01*
X79248000Y-67056000D02*
X80264000Y-68072000D01*
X65024000Y-67056000D02*
X79248000Y-67056000D01*
X63500000Y-99060000D02*
X63500000Y-68580000D01*
X63500000Y-68580000D02*
X65024000Y-67056000D01*
%TO.N,SCL2*%
X62016000Y-65024000D02*
X60960000Y-66080000D01*
X74168000Y-65024000D02*
X62016000Y-65024000D01*
X80264000Y-58928000D02*
X74168000Y-65024000D01*
%TO.N,SDA2*%
X73072000Y-63580000D02*
X60960000Y-63580000D01*
X77724000Y-58928000D02*
X73072000Y-63580000D01*
%TO.N,3V3*%
X75184000Y-58928000D02*
X73032000Y-61080000D01*
X73032000Y-61080000D02*
X60960000Y-61080000D01*
%TO.N,14*%
X70104000Y-76200000D02*
X75184000Y-71120000D01*
X70104000Y-89154000D02*
X70104000Y-76200000D01*
X75184000Y-71120000D02*
X75184000Y-69088000D01*
%TO.N,11*%
X66040000Y-76200000D02*
X68580000Y-78740000D01*
%TO.N,2*%
X67564000Y-103632000D02*
X65024000Y-106172000D01*
%TO.N,3*%
X67310000Y-100330000D02*
X67310000Y-98044000D01*
X71628000Y-106680000D02*
X71628000Y-104648000D01*
X71628000Y-104648000D02*
X67310000Y-100330000D01*
X72644000Y-107696000D02*
X71628000Y-106680000D01*
%TO.N,2*%
X72136000Y-103124000D02*
X70104000Y-101092000D01*
X73660000Y-103124000D02*
X72136000Y-103124000D01*
%TO.N,14*%
X68834000Y-87884000D02*
X70104000Y-89154000D01*
X64700000Y-89732000D02*
X66548000Y-87884000D01*
X66548000Y-87884000D02*
X68834000Y-87884000D01*
X64700000Y-99557056D02*
X64700000Y-89732000D01*
X62992000Y-106172000D02*
X62992000Y-101265056D01*
X62992000Y-101265056D02*
X64700000Y-99557056D01*
X66548000Y-109728000D02*
X62992000Y-106172000D01*
X81280000Y-107696000D02*
X79248000Y-109728000D01*
X79248000Y-109728000D02*
X66548000Y-109728000D01*
%TO.N,20*%
X114300000Y-97645000D02*
X111923000Y-100022000D01*
X114300000Y-62484000D02*
X114300000Y-97645000D01*
X108712000Y-56896000D02*
X114300000Y-62484000D01*
X87884000Y-56896000D02*
X108712000Y-56896000D01*
X85344000Y-59436000D02*
X87884000Y-56896000D01*
X85344000Y-70104000D02*
X85344000Y-59436000D01*
X81788000Y-73660000D02*
X85344000Y-70104000D01*
X77724000Y-73660000D02*
X81788000Y-73660000D01*
X74676000Y-76708000D02*
X77724000Y-73660000D01*
X75184000Y-79756000D02*
X77216000Y-79756000D01*
X74676000Y-80264000D02*
X75184000Y-79756000D01*
X73660000Y-80264000D02*
X74676000Y-80264000D01*
%TO.N,11*%
X73172032Y-69088000D02*
X72988032Y-69272000D01*
%TO.N,D*%
X109220000Y-62484000D02*
X106680000Y-59944000D01*
X111923000Y-67002000D02*
X110791630Y-67002000D01*
X93472000Y-60452000D02*
X93472000Y-61976000D01*
X110791630Y-67002000D02*
X109220000Y-65430370D01*
X93980000Y-59944000D02*
X93472000Y-60452000D01*
X106680000Y-59944000D02*
X93980000Y-59944000D01*
X109220000Y-65430370D02*
X109220000Y-62484000D01*
%TO.N,A*%
X107696000Y-58420000D02*
X91948000Y-58420000D01*
X91948000Y-58420000D02*
X90932000Y-59436000D01*
X111923000Y-64462000D02*
X111923000Y-62647000D01*
X111923000Y-62647000D02*
X107696000Y-58420000D01*
X90932000Y-59436000D02*
X90932000Y-61976000D01*
%TO.N,B*%
X111923000Y-77162000D02*
X107913000Y-73152000D01*
X101600000Y-73152000D02*
X98552000Y-70104000D01*
X98552000Y-70104000D02*
X98552000Y-69596000D01*
X107913000Y-73152000D02*
X101600000Y-73152000D01*
%TO.N,C*%
X111923000Y-74622000D02*
X108929000Y-71628000D01*
X103124000Y-71628000D02*
X101092000Y-69596000D01*
X108929000Y-71628000D02*
X103124000Y-71628000D01*
%TO.N,D'*%
X111923000Y-82242000D02*
X106680000Y-76999000D01*
X93472000Y-77724000D02*
X93472000Y-79248000D01*
X106680000Y-76999000D02*
X106680000Y-76708000D01*
X106680000Y-76708000D02*
X94488000Y-76708000D01*
X94488000Y-76708000D02*
X93472000Y-77724000D01*
%TO.N,A'*%
X90932000Y-76708000D02*
X90932000Y-79248000D01*
X111923000Y-79702000D02*
X107405000Y-75184000D01*
X92456000Y-75184000D02*
X90932000Y-76708000D01*
X107405000Y-75184000D02*
X92456000Y-75184000D01*
%TO.N,B'*%
X106680000Y-90424000D02*
X100976630Y-90424000D01*
X111923000Y-87322000D02*
X109782000Y-87322000D01*
X109782000Y-87322000D02*
X106680000Y-90424000D01*
X100976630Y-90424000D02*
X98552000Y-87999370D01*
X98552000Y-87999370D02*
X98552000Y-86868000D01*
%TO.N,C'*%
X111923000Y-84782000D02*
X109274000Y-84782000D01*
X101092000Y-87884000D02*
X101092000Y-86868000D01*
X105156000Y-88900000D02*
X102108000Y-88900000D01*
X109274000Y-84782000D02*
X105156000Y-88900000D01*
X102108000Y-88900000D02*
X101092000Y-87884000D01*
%TO.N,D''*%
X111923000Y-92402000D02*
X109782000Y-92402000D01*
X108712000Y-93472000D02*
X96520000Y-93472000D01*
X109782000Y-92402000D02*
X108712000Y-93472000D01*
X96520000Y-93472000D02*
X93472000Y-96520000D01*
X93472000Y-96520000D02*
X93472000Y-97536000D01*
%TO.N,A''*%
X111923000Y-89862000D02*
X109782000Y-89862000D01*
X109782000Y-89862000D02*
X107696000Y-91948000D01*
X94996000Y-91948000D02*
X90932000Y-96012000D01*
X107696000Y-91948000D02*
X94996000Y-91948000D01*
X90932000Y-96012000D02*
X90932000Y-97536000D01*
%TO.N,B''*%
X108204000Y-108712000D02*
X102108000Y-108712000D01*
X108204000Y-101201000D02*
X108204000Y-108712000D01*
X111923000Y-97482000D02*
X108204000Y-101201000D01*
X102108000Y-108712000D02*
X98552000Y-105156000D01*
%TO.N,C''*%
X103124000Y-107188000D02*
X101092000Y-105156000D01*
X107004000Y-106356000D02*
X106172000Y-107188000D01*
X111923000Y-94942000D02*
X107004000Y-99861000D01*
X106172000Y-107188000D02*
X103124000Y-107188000D01*
X107004000Y-99861000D02*
X107004000Y-106356000D01*
%TO.N,3*%
X78740000Y-106172000D02*
X77216000Y-107696000D01*
X88392000Y-86868000D02*
X88392000Y-85852000D01*
X96012000Y-82296000D02*
X99060000Y-82296000D01*
X77216000Y-107696000D02*
X72644000Y-107696000D01*
X78740000Y-104394000D02*
X78740000Y-106172000D01*
X96012000Y-79248000D02*
X96012000Y-82296000D01*
X99060000Y-82296000D02*
X101092000Y-80264000D01*
X88392000Y-85852000D02*
X89408000Y-84836000D01*
X93472000Y-84836000D02*
X93472000Y-86868000D01*
X101092000Y-80264000D02*
X101092000Y-79248000D01*
X96012000Y-82296000D02*
X93472000Y-84836000D01*
X89408000Y-84836000D02*
X93472000Y-84836000D01*
X76200000Y-101854000D02*
X78740000Y-104394000D01*
%TO.N,4*%
X88900000Y-73660000D02*
X91440000Y-71120000D01*
X70725321Y-93496000D02*
X72136000Y-92085321D01*
X68810000Y-93496000D02*
X70725321Y-93496000D01*
X72136000Y-100076000D02*
X72644000Y-100584000D01*
X91948000Y-71120000D02*
X93472000Y-69596000D01*
X72136000Y-92085321D02*
X72136000Y-100076000D01*
X68326000Y-93980000D02*
X68810000Y-93496000D01*
X80264000Y-78232000D02*
X84836000Y-73660000D01*
X72644000Y-100584000D02*
X73660000Y-100584000D01*
X84836000Y-73660000D02*
X88900000Y-73660000D01*
X72136000Y-78232000D02*
X80264000Y-78232000D01*
X91440000Y-71120000D02*
X91948000Y-71120000D01*
X72136000Y-92085321D02*
X72136000Y-78232000D01*
%TO.N,5*%
X82296000Y-100838000D02*
X77724000Y-100838000D01*
X97028000Y-63500000D02*
X91440000Y-63500000D01*
X77724000Y-100838000D02*
X76200000Y-99314000D01*
X88392000Y-66548000D02*
X88392000Y-69596000D01*
X98552000Y-61976000D02*
X97028000Y-63500000D01*
X88392000Y-105156000D02*
X82042000Y-105156000D01*
X91440000Y-63500000D02*
X88392000Y-66548000D01*
X82042000Y-105156000D02*
X76200000Y-99314000D01*
%TO.N,11*%
X93472000Y-81788000D02*
X89916000Y-81788000D01*
X105664000Y-101600000D02*
X105664000Y-104648000D01*
X89916000Y-81788000D02*
X87376000Y-84328000D01*
X106680000Y-66548000D02*
X106680000Y-62484000D01*
%TO.N,14*%
X79756000Y-94234000D02*
X84328000Y-98806000D01*
X84328000Y-98806000D02*
X84328000Y-103124000D01*
%TO.N,17*%
X98044000Y-103124000D02*
X95504000Y-103124000D01*
X92964000Y-67564000D02*
X90932000Y-69596000D01*
X96012000Y-88576000D02*
X96012000Y-86868000D01*
X80010000Y-84074000D02*
X85852000Y-89916000D01*
X76200000Y-84074000D02*
X80010000Y-84074000D01*
X85852000Y-89916000D02*
X94672000Y-89916000D01*
X103632000Y-65532000D02*
X101600000Y-67564000D01*
X95504000Y-103124000D02*
X93472000Y-105156000D01*
X94672000Y-89916000D02*
X96012000Y-88576000D01*
X101600000Y-67564000D02*
X92964000Y-67564000D01*
X103632000Y-61976000D02*
X103632000Y-65532000D01*
X103632000Y-97536000D02*
X98044000Y-103124000D01*
%TO.N,19*%
X81788000Y-88900000D02*
X81534000Y-88646000D01*
X81026000Y-80518000D02*
X84328000Y-83820000D01*
X89408000Y-75692000D02*
X91948000Y-73152000D01*
X76200000Y-81534000D02*
X80010000Y-81534000D01*
X96012000Y-72644000D02*
X96012000Y-69596000D01*
X81788000Y-88900000D02*
X81788000Y-88900000D01*
X95504000Y-73152000D02*
X96012000Y-72644000D01*
X80010000Y-81534000D02*
X81026000Y-80518000D01*
X90424000Y-94488000D02*
X87376000Y-94488000D01*
X87376000Y-94488000D02*
X81788000Y-88900000D01*
X91948000Y-73152000D02*
X95504000Y-73152000D01*
X81026000Y-80518000D02*
X85852000Y-75692000D01*
X84328000Y-83820000D02*
X84328000Y-85344000D01*
X85852000Y-75692000D02*
X89408000Y-75692000D01*
X81788000Y-88900000D02*
X81788000Y-88900000D01*
%TD*%
%TA.AperFunction,Conductor*%
%TO.N,+5V*%
G36*
X89933770Y-76322297D02*
G01*
X90047126Y-76372638D01*
X90139546Y-76455357D01*
X90202100Y-76562459D01*
X90228743Y-76683596D01*
X90230270Y-76708843D01*
X90230772Y-76717131D01*
X90231500Y-76741228D01*
X90231500Y-78343131D01*
X90215829Y-78453854D01*
X90170049Y-78555879D01*
X90097754Y-78641194D01*
X90004623Y-78703096D01*
X89897973Y-78736723D01*
X89786179Y-78739433D01*
X89678024Y-78711015D01*
X89582003Y-78653699D01*
X89505659Y-78571989D01*
X89401655Y-78423456D01*
X89379341Y-78396863D01*
X89243136Y-78260658D01*
X89216538Y-78238340D01*
X89058757Y-78127861D01*
X89028693Y-78110503D01*
X88854106Y-78029092D01*
X88821504Y-78017225D01*
X88821482Y-78017220D01*
X88795913Y-78014419D01*
X88792000Y-78039844D01*
X88792000Y-80456156D01*
X88795913Y-80481580D01*
X88821482Y-80478779D01*
X88821504Y-80478774D01*
X88854106Y-80466907D01*
X89028693Y-80385496D01*
X89058757Y-80368138D01*
X89216538Y-80257659D01*
X89243136Y-80235341D01*
X89379341Y-80099136D01*
X89401650Y-80072548D01*
X89520229Y-79903200D01*
X89604751Y-79815068D01*
X89711968Y-79756626D01*
X89831840Y-79733347D01*
X89953139Y-79747412D01*
X90064503Y-79797504D01*
X90155501Y-79878931D01*
X90203834Y-79937824D01*
X90221117Y-79958883D01*
X90373462Y-80083910D01*
X90390747Y-80093149D01*
X90390750Y-80093151D01*
X90525131Y-80164979D01*
X90547273Y-80176814D01*
X90566031Y-80182504D01*
X90566033Y-80182505D01*
X90606492Y-80194778D01*
X90735868Y-80234024D01*
X90755371Y-80235944D01*
X90755372Y-80235945D01*
X90912495Y-80251420D01*
X90932000Y-80253341D01*
X91128132Y-80234024D01*
X91316727Y-80176814D01*
X91490538Y-80083910D01*
X91642883Y-79958883D01*
X91767910Y-79806538D01*
X91850113Y-79652746D01*
X91923849Y-79554769D01*
X92023856Y-79483811D01*
X92140688Y-79446573D01*
X92263312Y-79446573D01*
X92380144Y-79483811D01*
X92480151Y-79554769D01*
X92553886Y-79652746D01*
X92560111Y-79664392D01*
X92626848Y-79789249D01*
X92626852Y-79789255D01*
X92636090Y-79806538D01*
X92648523Y-79821687D01*
X92648527Y-79821693D01*
X92743834Y-79937824D01*
X92761117Y-79958883D01*
X92913462Y-80083910D01*
X92930747Y-80093149D01*
X92930750Y-80093151D01*
X93065131Y-80164979D01*
X93087273Y-80176814D01*
X93106031Y-80182504D01*
X93106033Y-80182505D01*
X93146492Y-80194778D01*
X93275868Y-80234024D01*
X93295371Y-80235944D01*
X93295372Y-80235945D01*
X93452495Y-80251420D01*
X93472000Y-80253341D01*
X93668132Y-80234024D01*
X93856727Y-80176814D01*
X94030538Y-80083910D01*
X94182883Y-79958883D01*
X94307910Y-79806538D01*
X94390113Y-79652746D01*
X94463849Y-79554769D01*
X94563856Y-79483811D01*
X94680688Y-79446573D01*
X94803312Y-79446573D01*
X94920144Y-79483811D01*
X95020151Y-79554769D01*
X95093886Y-79652746D01*
X95100111Y-79664392D01*
X95166848Y-79789249D01*
X95166852Y-79789255D01*
X95176090Y-79806538D01*
X95220934Y-79861180D01*
X95270351Y-79937824D01*
X95301077Y-80023695D01*
X95311500Y-80114299D01*
X95311500Y-81840571D01*
X95297904Y-81943840D01*
X95258044Y-82040071D01*
X95194635Y-82122707D01*
X94718250Y-82599091D01*
X94627911Y-82666834D01*
X94522212Y-82706555D01*
X94409617Y-82715074D01*
X94389503Y-82710819D01*
X94393758Y-82730933D01*
X94385239Y-82843528D01*
X94345518Y-82949228D01*
X94277775Y-83039566D01*
X93298707Y-84018635D01*
X93216071Y-84082044D01*
X93119840Y-84121904D01*
X93016571Y-84135500D01*
X89522429Y-84135500D01*
X89406605Y-84118319D01*
X89300756Y-84068256D01*
X89213998Y-83989623D01*
X89153801Y-83889191D01*
X89125350Y-83775609D01*
X89131096Y-83658659D01*
X89170542Y-83548413D01*
X89240293Y-83454364D01*
X90089293Y-82605364D01*
X90171929Y-82541956D01*
X90268160Y-82502096D01*
X90371429Y-82488500D01*
X93502319Y-82488500D01*
X93514372Y-82488500D01*
X93640872Y-82473140D01*
X93799930Y-82412818D01*
X93814942Y-82402455D01*
X93916613Y-82366335D01*
X94029344Y-82359857D01*
X94041296Y-82362612D01*
X94038541Y-82350659D01*
X94045019Y-82237928D01*
X94082818Y-82131531D01*
X94131790Y-82038225D01*
X94172500Y-81873056D01*
X94172500Y-81702944D01*
X94131790Y-81537775D01*
X94052734Y-81387148D01*
X93939929Y-81259817D01*
X93799930Y-81163182D01*
X93727130Y-81135573D01*
X93663441Y-81111419D01*
X93663439Y-81111418D01*
X93640872Y-81102860D01*
X93616915Y-81099951D01*
X93616911Y-81099950D01*
X93526335Y-81088952D01*
X93526325Y-81088951D01*
X93514372Y-81087500D01*
X93502319Y-81087500D01*
X89949214Y-81087500D01*
X89925123Y-81086772D01*
X89897482Y-81085100D01*
X89873394Y-81083643D01*
X89849660Y-81087991D01*
X89849659Y-81087992D01*
X89844421Y-81088952D01*
X89822388Y-81092989D01*
X89798596Y-81096610D01*
X89771076Y-81099951D01*
X89771068Y-81099952D01*
X89747128Y-81102860D01*
X89727482Y-81110309D01*
X89726732Y-81110518D01*
X89706068Y-81114306D01*
X89684068Y-81124206D01*
X89684062Y-81124209D01*
X89658812Y-81135573D01*
X89636556Y-81144792D01*
X89610639Y-81154621D01*
X89610628Y-81154626D01*
X89588070Y-81163182D01*
X89570769Y-81175123D01*
X89570102Y-81175499D01*
X89550943Y-81184123D01*
X89531950Y-81199002D01*
X89531941Y-81199008D01*
X89510139Y-81216089D01*
X89490745Y-81230359D01*
X89467936Y-81246103D01*
X89467926Y-81246111D01*
X89448071Y-81259817D01*
X89432072Y-81277874D01*
X89432067Y-81277880D01*
X89413705Y-81298607D01*
X89397191Y-81316149D01*
X86859235Y-83854106D01*
X86859219Y-83854123D01*
X86850710Y-83862633D01*
X86843287Y-83872107D01*
X86843277Y-83872119D01*
X86787006Y-83943944D01*
X86787003Y-83943948D01*
X86772122Y-83962943D01*
X86762217Y-83984949D01*
X86762216Y-83984952D01*
X86712212Y-84096054D01*
X86712210Y-84096059D01*
X86702305Y-84118068D01*
X86697954Y-84141808D01*
X86697954Y-84141810D01*
X86675991Y-84261658D01*
X86675990Y-84261663D01*
X86671642Y-84285394D01*
X86673099Y-84309480D01*
X86673099Y-84309481D01*
X86680456Y-84431106D01*
X86680457Y-84431111D01*
X86681914Y-84455196D01*
X86689091Y-84478231D01*
X86689093Y-84478237D01*
X86722632Y-84585868D01*
X86732522Y-84617606D01*
X86820528Y-84763185D01*
X86940815Y-84883472D01*
X87086394Y-84971478D01*
X87248804Y-85022086D01*
X87400399Y-85031256D01*
X87521554Y-85057905D01*
X87628671Y-85120477D01*
X87711393Y-85212924D01*
X87761723Y-85326309D01*
X87774796Y-85449672D01*
X87749349Y-85571087D01*
X87748776Y-85572597D01*
X87739585Y-85594783D01*
X87728208Y-85620062D01*
X87728206Y-85620067D01*
X87718305Y-85642068D01*
X87716506Y-85651878D01*
X87678861Y-85733589D01*
X87613116Y-85813085D01*
X87529188Y-85873069D01*
X87520257Y-85877842D01*
X87513769Y-85879133D01*
X87497482Y-85890015D01*
X87497474Y-85890020D01*
X87463742Y-85912560D01*
X87463738Y-85912562D01*
X87447448Y-85923448D01*
X87436562Y-85939738D01*
X87436560Y-85939742D01*
X87414024Y-85973469D01*
X87403133Y-85989769D01*
X87399309Y-86008990D01*
X87399307Y-86008999D01*
X87395325Y-86029019D01*
X87395324Y-86029025D01*
X87391500Y-86048252D01*
X87391500Y-87687748D01*
X87395324Y-87706975D01*
X87395325Y-87706980D01*
X87399307Y-87727000D01*
X87399309Y-87727006D01*
X87403133Y-87746231D01*
X87447448Y-87812552D01*
X87513769Y-87856867D01*
X87572252Y-87868500D01*
X89192140Y-87868500D01*
X89211748Y-87868500D01*
X89270231Y-87856867D01*
X89336552Y-87812552D01*
X89380867Y-87746231D01*
X89392500Y-87687748D01*
X89392500Y-87668139D01*
X89394421Y-87648637D01*
X89397966Y-87648986D01*
X89411131Y-87563841D01*
X89465284Y-87454594D01*
X89549901Y-87366802D01*
X89657080Y-87308665D01*
X89776813Y-87285611D01*
X89897918Y-87299794D01*
X90009084Y-87349889D01*
X90099927Y-87431213D01*
X90221117Y-87578883D01*
X90236274Y-87591322D01*
X90353768Y-87687748D01*
X90373462Y-87703910D01*
X90390747Y-87713149D01*
X90390750Y-87713151D01*
X90462790Y-87751657D01*
X90547273Y-87796814D01*
X90566031Y-87802504D01*
X90566033Y-87802505D01*
X90594654Y-87811187D01*
X90735868Y-87854024D01*
X90755371Y-87855944D01*
X90755372Y-87855945D01*
X90912495Y-87871420D01*
X90932000Y-87873341D01*
X90981153Y-87868500D01*
X91038712Y-87862831D01*
X91128132Y-87854024D01*
X91316727Y-87796814D01*
X91490538Y-87703910D01*
X91642883Y-87578883D01*
X91767910Y-87426538D01*
X91850113Y-87272746D01*
X91923849Y-87174769D01*
X92023856Y-87103811D01*
X92140688Y-87066573D01*
X92263312Y-87066573D01*
X92380144Y-87103811D01*
X92480151Y-87174769D01*
X92553887Y-87272747D01*
X92626848Y-87409249D01*
X92626852Y-87409255D01*
X92636090Y-87426538D01*
X92648523Y-87441687D01*
X92648527Y-87441693D01*
X92742382Y-87556055D01*
X92761117Y-87578883D01*
X92776274Y-87591322D01*
X92893768Y-87687748D01*
X92913462Y-87703910D01*
X92930747Y-87713149D01*
X92930750Y-87713151D01*
X93002790Y-87751657D01*
X93087273Y-87796814D01*
X93106031Y-87802504D01*
X93106033Y-87802505D01*
X93134654Y-87811187D01*
X93275868Y-87854024D01*
X93295371Y-87855944D01*
X93295372Y-87855945D01*
X93452495Y-87871420D01*
X93472000Y-87873341D01*
X93521153Y-87868500D01*
X93578712Y-87862831D01*
X93668132Y-87854024D01*
X93856727Y-87796814D01*
X94030538Y-87703910D01*
X94182883Y-87578883D01*
X94307910Y-87426538D01*
X94390113Y-87272746D01*
X94463849Y-87174769D01*
X94563856Y-87103811D01*
X94680688Y-87066573D01*
X94803312Y-87066573D01*
X94920144Y-87103811D01*
X95020151Y-87174769D01*
X95093887Y-87272747D01*
X95166848Y-87409249D01*
X95166852Y-87409255D01*
X95176090Y-87426538D01*
X95220934Y-87481180D01*
X95270351Y-87557824D01*
X95301077Y-87643695D01*
X95311500Y-87734299D01*
X95311500Y-88120571D01*
X95297904Y-88223840D01*
X95258044Y-88320071D01*
X95194636Y-88402707D01*
X94498707Y-89098636D01*
X94416071Y-89162044D01*
X94319840Y-89201904D01*
X94216571Y-89215500D01*
X86307429Y-89215500D01*
X86204160Y-89201904D01*
X86107929Y-89162044D01*
X86025293Y-89098636D01*
X83516908Y-86590251D01*
X83449166Y-86499912D01*
X83409444Y-86394212D01*
X83400925Y-86281618D01*
X83405179Y-86261503D01*
X83385064Y-86265758D01*
X83272470Y-86257239D01*
X83166771Y-86217517D01*
X83076432Y-86149775D01*
X80528804Y-83602147D01*
X80512301Y-83584615D01*
X80477929Y-83545817D01*
X80458069Y-83532108D01*
X80458063Y-83532103D01*
X80435262Y-83516365D01*
X80415855Y-83502085D01*
X80394058Y-83485008D01*
X80394056Y-83485007D01*
X80375057Y-83470122D01*
X80355889Y-83461495D01*
X80355228Y-83461122D01*
X80337930Y-83449182D01*
X80315372Y-83440626D01*
X80315367Y-83440624D01*
X80289463Y-83430800D01*
X80267203Y-83421579D01*
X80241938Y-83410208D01*
X80241930Y-83410205D01*
X80219932Y-83400305D01*
X80199259Y-83396516D01*
X80198511Y-83396307D01*
X80178872Y-83388860D01*
X80127429Y-83382613D01*
X80103609Y-83378988D01*
X80102545Y-83378793D01*
X80052606Y-83369642D01*
X80028518Y-83371099D01*
X80000865Y-83372772D01*
X79976772Y-83373500D01*
X76799609Y-83373500D01*
X76696341Y-83359905D01*
X76628329Y-83331733D01*
X76627593Y-83333388D01*
X76464267Y-83260671D01*
X76443821Y-83256325D01*
X76443818Y-83256324D01*
X76309840Y-83227846D01*
X76309834Y-83227845D01*
X76289391Y-83223500D01*
X76110609Y-83223500D01*
X76090166Y-83227845D01*
X76090159Y-83227846D01*
X75956186Y-83256323D01*
X75956180Y-83256324D01*
X75935733Y-83260671D01*
X75916637Y-83269172D01*
X75916631Y-83269175D01*
X75791506Y-83324884D01*
X75791498Y-83324888D01*
X75772408Y-83333388D01*
X75755500Y-83345672D01*
X75755492Y-83345677D01*
X75644689Y-83426181D01*
X75644685Y-83426184D01*
X75627770Y-83438474D01*
X75613780Y-83454010D01*
X75613777Y-83454014D01*
X75522133Y-83555794D01*
X75522127Y-83555801D01*
X75508141Y-83571335D01*
X75497688Y-83589438D01*
X75497685Y-83589444D01*
X75432363Y-83702586D01*
X75418750Y-83726165D01*
X75412288Y-83746052D01*
X75412287Y-83746055D01*
X75374001Y-83863887D01*
X75363503Y-83896197D01*
X75361317Y-83916993D01*
X75361316Y-83916999D01*
X75350634Y-84018635D01*
X75344815Y-84074000D01*
X75347001Y-84094798D01*
X75359899Y-84217520D01*
X75363503Y-84251803D01*
X75418750Y-84421835D01*
X75429206Y-84439945D01*
X75486495Y-84539174D01*
X75508141Y-84576665D01*
X75522131Y-84592203D01*
X75522133Y-84592205D01*
X75563600Y-84638259D01*
X75627770Y-84709526D01*
X75772407Y-84814612D01*
X75935733Y-84887329D01*
X76110609Y-84924500D01*
X76268484Y-84924500D01*
X76289391Y-84924500D01*
X76464267Y-84887329D01*
X76627593Y-84814612D01*
X76628329Y-84816266D01*
X76696341Y-84788095D01*
X76799609Y-84774500D01*
X79554571Y-84774500D01*
X79657840Y-84788096D01*
X79754071Y-84827956D01*
X79836707Y-84891364D01*
X79885926Y-84940583D01*
X79953342Y-85030328D01*
X79993095Y-85135297D01*
X80002039Y-85247186D01*
X79979466Y-85357137D01*
X79927163Y-85456452D01*
X79849268Y-85537269D01*
X79751947Y-85593193D01*
X79642900Y-85619798D01*
X79579371Y-85626055D01*
X79579369Y-85626055D01*
X79559868Y-85627976D01*
X79541119Y-85633663D01*
X79541111Y-85633665D01*
X79390033Y-85679494D01*
X79390022Y-85679498D01*
X79371273Y-85685186D01*
X79353993Y-85694421D01*
X79353984Y-85694426D01*
X79214750Y-85768848D01*
X79214739Y-85768854D01*
X79197462Y-85778090D01*
X79182314Y-85790521D01*
X79182306Y-85790527D01*
X79060274Y-85890677D01*
X79060268Y-85890682D01*
X79045117Y-85903117D01*
X79032682Y-85918268D01*
X79032677Y-85918274D01*
X78932527Y-86040306D01*
X78932521Y-86040314D01*
X78920090Y-86055462D01*
X78910854Y-86072739D01*
X78910848Y-86072750D01*
X78836426Y-86211984D01*
X78836421Y-86211993D01*
X78827186Y-86229273D01*
X78821498Y-86248022D01*
X78821494Y-86248033D01*
X78775665Y-86399111D01*
X78775663Y-86399119D01*
X78769976Y-86417868D01*
X78768056Y-86437361D01*
X78768054Y-86437372D01*
X78754468Y-86575322D01*
X78750659Y-86614000D01*
X78752580Y-86633505D01*
X78768054Y-86790627D01*
X78768055Y-86790636D01*
X78769976Y-86810132D01*
X78775663Y-86828882D01*
X78775665Y-86828888D01*
X78821494Y-86979966D01*
X78821497Y-86979973D01*
X78827186Y-86998727D01*
X78836423Y-87016009D01*
X78836426Y-87016015D01*
X78910848Y-87155249D01*
X78910852Y-87155255D01*
X78920090Y-87172538D01*
X78932525Y-87187690D01*
X78932527Y-87187693D01*
X79031807Y-87308665D01*
X79045117Y-87324883D01*
X79060274Y-87337322D01*
X79175242Y-87431675D01*
X79197462Y-87449910D01*
X79214747Y-87459149D01*
X79214750Y-87459151D01*
X79324950Y-87518054D01*
X79371273Y-87542814D01*
X79390031Y-87548504D01*
X79390033Y-87548505D01*
X79440589Y-87563841D01*
X79559868Y-87600024D01*
X79579371Y-87601944D01*
X79579372Y-87601945D01*
X79736495Y-87617420D01*
X79756000Y-87619341D01*
X79952132Y-87600024D01*
X80140727Y-87542814D01*
X80314538Y-87449910D01*
X80466883Y-87324883D01*
X80591910Y-87172538D01*
X80684814Y-86998727D01*
X80742024Y-86810132D01*
X80750201Y-86727101D01*
X80776805Y-86618057D01*
X80832728Y-86520734D01*
X80913545Y-86442838D01*
X81012859Y-86390534D01*
X81122812Y-86367960D01*
X81234700Y-86376904D01*
X81339671Y-86416657D01*
X81429416Y-86484073D01*
X82338644Y-87393301D01*
X82411042Y-87492388D01*
X82449903Y-87608791D01*
X82451550Y-87731498D01*
X82415828Y-87848902D01*
X82346116Y-87949897D01*
X82249009Y-88024929D01*
X82133691Y-88066901D01*
X82011073Y-88071842D01*
X81892755Y-88039286D01*
X81743932Y-87972305D01*
X81710301Y-87966142D01*
X81600341Y-87945991D01*
X81600336Y-87945990D01*
X81576606Y-87941642D01*
X81552519Y-87943099D01*
X81430893Y-87950456D01*
X81430886Y-87950457D01*
X81406804Y-87951914D01*
X81383770Y-87959091D01*
X81383762Y-87959093D01*
X81267435Y-87995342D01*
X81267433Y-87995342D01*
X81244394Y-88002522D01*
X81223745Y-88015004D01*
X81223740Y-88015007D01*
X81119468Y-88078042D01*
X81119463Y-88078045D01*
X81098815Y-88090528D01*
X81081754Y-88107588D01*
X81081750Y-88107592D01*
X80995592Y-88193750D01*
X80995588Y-88193754D01*
X80978528Y-88210815D01*
X80966045Y-88231463D01*
X80966042Y-88231468D01*
X80903007Y-88335740D01*
X80903004Y-88335745D01*
X80890522Y-88356394D01*
X80883342Y-88379433D01*
X80883342Y-88379435D01*
X80847093Y-88495762D01*
X80847091Y-88495770D01*
X80839914Y-88518804D01*
X80838457Y-88542886D01*
X80838456Y-88542893D01*
X80831777Y-88653312D01*
X80829642Y-88688606D01*
X80833990Y-88712336D01*
X80833991Y-88712341D01*
X80847477Y-88785932D01*
X80860305Y-88855932D01*
X80870211Y-88877942D01*
X80870212Y-88877945D01*
X80896190Y-88935665D01*
X80930122Y-89011057D01*
X80945005Y-89030054D01*
X80945006Y-89030055D01*
X80995737Y-89094809D01*
X81008710Y-89111367D01*
X81017228Y-89119885D01*
X81269186Y-89371843D01*
X81285706Y-89389393D01*
X81320071Y-89428183D01*
X81336592Y-89439587D01*
X81342342Y-89444999D01*
X82933926Y-91036583D01*
X83001342Y-91126328D01*
X83041095Y-91231297D01*
X83050039Y-91343186D01*
X83027466Y-91453137D01*
X82975163Y-91552452D01*
X82897268Y-91633269D01*
X82799947Y-91689193D01*
X82690900Y-91715798D01*
X82627371Y-91722055D01*
X82627369Y-91722055D01*
X82607868Y-91723976D01*
X82589119Y-91729663D01*
X82589111Y-91729665D01*
X82438033Y-91775494D01*
X82438022Y-91775498D01*
X82419273Y-91781186D01*
X82401993Y-91790421D01*
X82401984Y-91790426D01*
X82262750Y-91864848D01*
X82262739Y-91864854D01*
X82245462Y-91874090D01*
X82230314Y-91886521D01*
X82230306Y-91886527D01*
X82108274Y-91986677D01*
X82108268Y-91986682D01*
X82093117Y-91999117D01*
X82080682Y-92014268D01*
X82080677Y-92014274D01*
X81980527Y-92136306D01*
X81980521Y-92136314D01*
X81968090Y-92151462D01*
X81958854Y-92168739D01*
X81958848Y-92168750D01*
X81884426Y-92307984D01*
X81884421Y-92307993D01*
X81875186Y-92325273D01*
X81869498Y-92344022D01*
X81869494Y-92344033D01*
X81823665Y-92495111D01*
X81823663Y-92495119D01*
X81817976Y-92513868D01*
X81816056Y-92533361D01*
X81816054Y-92533372D01*
X81804716Y-92648500D01*
X81798659Y-92710000D01*
X81800580Y-92729505D01*
X81816054Y-92886627D01*
X81816055Y-92886636D01*
X81817976Y-92906132D01*
X81823663Y-92924882D01*
X81823665Y-92924888D01*
X81869494Y-93075966D01*
X81869497Y-93075973D01*
X81875186Y-93094727D01*
X81884423Y-93112009D01*
X81884426Y-93112015D01*
X81958848Y-93251249D01*
X81958852Y-93251255D01*
X81968090Y-93268538D01*
X81980525Y-93283690D01*
X81980527Y-93283693D01*
X82019199Y-93330814D01*
X82093117Y-93420883D01*
X82108274Y-93433322D01*
X82202530Y-93510677D01*
X82245462Y-93545910D01*
X82262747Y-93555149D01*
X82262750Y-93555151D01*
X82372911Y-93614033D01*
X82419273Y-93638814D01*
X82438031Y-93644504D01*
X82438033Y-93644505D01*
X82490122Y-93660306D01*
X82607868Y-93696024D01*
X82627371Y-93697944D01*
X82627372Y-93697945D01*
X82784495Y-93713420D01*
X82804000Y-93715341D01*
X83000132Y-93696024D01*
X83188727Y-93638814D01*
X83362538Y-93545910D01*
X83514883Y-93420883D01*
X83639910Y-93268538D01*
X83732814Y-93094727D01*
X83790024Y-92906132D01*
X83798201Y-92823101D01*
X83824805Y-92714057D01*
X83880728Y-92616734D01*
X83961545Y-92538838D01*
X84060859Y-92486534D01*
X84170812Y-92463960D01*
X84282700Y-92472904D01*
X84387671Y-92512657D01*
X84477416Y-92580073D01*
X86857186Y-94959843D01*
X86873706Y-94977393D01*
X86880747Y-94985341D01*
X86908071Y-95016183D01*
X86950737Y-95045633D01*
X86970145Y-95059914D01*
X87010943Y-95091877D01*
X87030122Y-95100508D01*
X87030750Y-95100862D01*
X87048070Y-95112818D01*
X87070632Y-95121374D01*
X87070635Y-95121376D01*
X87096532Y-95131197D01*
X87118807Y-95140424D01*
X87144050Y-95151785D01*
X87144055Y-95151786D01*
X87166068Y-95161694D01*
X87186755Y-95165484D01*
X87187463Y-95165682D01*
X87207128Y-95173140D01*
X87231136Y-95176055D01*
X87258586Y-95179388D01*
X87282397Y-95183011D01*
X87333394Y-95192357D01*
X87382069Y-95189412D01*
X87385125Y-95189228D01*
X87409215Y-95188500D01*
X89917075Y-95188500D01*
X90025893Y-95203626D01*
X90126461Y-95247855D01*
X90211154Y-95317836D01*
X90273551Y-95408262D01*
X90308920Y-95512278D01*
X90314581Y-95621996D01*
X90290104Y-95729099D01*
X90288761Y-95732637D01*
X90279585Y-95754783D01*
X90268207Y-95780064D01*
X90268204Y-95780070D01*
X90258305Y-95802068D01*
X90254517Y-95822730D01*
X90254304Y-95823496D01*
X90246860Y-95843128D01*
X90243951Y-95867076D01*
X90243951Y-95867080D01*
X90240612Y-95894579D01*
X90236988Y-95918389D01*
X90235072Y-95928848D01*
X90227642Y-95969394D01*
X90229099Y-95993481D01*
X90229099Y-95993483D01*
X90230772Y-96021135D01*
X90231500Y-96045228D01*
X90231500Y-96631131D01*
X90215829Y-96741854D01*
X90170049Y-96843879D01*
X90097754Y-96929194D01*
X90004623Y-96991096D01*
X89897973Y-97024723D01*
X89786179Y-97027433D01*
X89678024Y-96999015D01*
X89582003Y-96941699D01*
X89505659Y-96859989D01*
X89401655Y-96711456D01*
X89379341Y-96684863D01*
X89243136Y-96548658D01*
X89216538Y-96526340D01*
X89058757Y-96415861D01*
X89028693Y-96398503D01*
X88854106Y-96317092D01*
X88821504Y-96305225D01*
X88821482Y-96305220D01*
X88795913Y-96302419D01*
X88792000Y-96327844D01*
X88792000Y-98744156D01*
X88795913Y-98769580D01*
X88821482Y-98766779D01*
X88821504Y-98766774D01*
X88854106Y-98754907D01*
X89028693Y-98673496D01*
X89058757Y-98656138D01*
X89216538Y-98545659D01*
X89243136Y-98523341D01*
X89379341Y-98387136D01*
X89401650Y-98360548D01*
X89520229Y-98191200D01*
X89604751Y-98103068D01*
X89711968Y-98044626D01*
X89831840Y-98021347D01*
X89953139Y-98035412D01*
X90064503Y-98085504D01*
X90155501Y-98166931D01*
X90208675Y-98231723D01*
X90221117Y-98246883D01*
X90236274Y-98259322D01*
X90356433Y-98357935D01*
X90373462Y-98371910D01*
X90390747Y-98381149D01*
X90390750Y-98381151D01*
X90529984Y-98455573D01*
X90547273Y-98464814D01*
X90566031Y-98470504D01*
X90566033Y-98470505D01*
X90621534Y-98487341D01*
X90735868Y-98522024D01*
X90755371Y-98523944D01*
X90755372Y-98523945D01*
X90912495Y-98539420D01*
X90932000Y-98541341D01*
X91128132Y-98522024D01*
X91316727Y-98464814D01*
X91490538Y-98371910D01*
X91642883Y-98246883D01*
X91767910Y-98094538D01*
X91850113Y-97940746D01*
X91923849Y-97842769D01*
X92023856Y-97771811D01*
X92140688Y-97734573D01*
X92263312Y-97734573D01*
X92380144Y-97771811D01*
X92480151Y-97842769D01*
X92553887Y-97940747D01*
X92626848Y-98077249D01*
X92626852Y-98077255D01*
X92636090Y-98094538D01*
X92648525Y-98109690D01*
X92648527Y-98109693D01*
X92739569Y-98220627D01*
X92761117Y-98246883D01*
X92776274Y-98259322D01*
X92896433Y-98357935D01*
X92913462Y-98371910D01*
X92930747Y-98381149D01*
X92930750Y-98381151D01*
X93069984Y-98455573D01*
X93087273Y-98464814D01*
X93106031Y-98470504D01*
X93106033Y-98470505D01*
X93161534Y-98487341D01*
X93275868Y-98522024D01*
X93295371Y-98523944D01*
X93295372Y-98523945D01*
X93452495Y-98539420D01*
X93472000Y-98541341D01*
X93668132Y-98522024D01*
X93856727Y-98464814D01*
X94030538Y-98371910D01*
X94182883Y-98246883D01*
X94307910Y-98094538D01*
X94390113Y-97940746D01*
X94463849Y-97842769D01*
X94563856Y-97771811D01*
X94680688Y-97734573D01*
X94803312Y-97734573D01*
X94920144Y-97771811D01*
X95020151Y-97842769D01*
X95093887Y-97940747D01*
X95166848Y-98077249D01*
X95166852Y-98077255D01*
X95176090Y-98094538D01*
X95188525Y-98109690D01*
X95188527Y-98109693D01*
X95279569Y-98220627D01*
X95301117Y-98246883D01*
X95316274Y-98259322D01*
X95436433Y-98357935D01*
X95453462Y-98371910D01*
X95470747Y-98381149D01*
X95470750Y-98381151D01*
X95609984Y-98455573D01*
X95627273Y-98464814D01*
X95646031Y-98470504D01*
X95646033Y-98470505D01*
X95701534Y-98487341D01*
X95815868Y-98522024D01*
X95835371Y-98523944D01*
X95835372Y-98523945D01*
X95992495Y-98539420D01*
X96012000Y-98541341D01*
X96208132Y-98522024D01*
X96396727Y-98464814D01*
X96570538Y-98371910D01*
X96722883Y-98246883D01*
X96847910Y-98094538D01*
X96930113Y-97940746D01*
X97003849Y-97842769D01*
X97103856Y-97771811D01*
X97220688Y-97734573D01*
X97343312Y-97734573D01*
X97460144Y-97771811D01*
X97560151Y-97842769D01*
X97633887Y-97940747D01*
X97706848Y-98077249D01*
X97706852Y-98077255D01*
X97716090Y-98094538D01*
X97728525Y-98109690D01*
X97728527Y-98109693D01*
X97819569Y-98220627D01*
X97841117Y-98246883D01*
X97856274Y-98259322D01*
X97976433Y-98357935D01*
X97993462Y-98371910D01*
X98010747Y-98381149D01*
X98010750Y-98381151D01*
X98149984Y-98455573D01*
X98167273Y-98464814D01*
X98186031Y-98470504D01*
X98186033Y-98470505D01*
X98241534Y-98487341D01*
X98355868Y-98522024D01*
X98375371Y-98523944D01*
X98375372Y-98523945D01*
X98532495Y-98539420D01*
X98552000Y-98541341D01*
X98748132Y-98522024D01*
X98936727Y-98464814D01*
X99110538Y-98371910D01*
X99262883Y-98246883D01*
X99387910Y-98094538D01*
X99470113Y-97940746D01*
X99543849Y-97842769D01*
X99643856Y-97771811D01*
X99760688Y-97734573D01*
X99883312Y-97734573D01*
X100000144Y-97771811D01*
X100100151Y-97842769D01*
X100173887Y-97940747D01*
X100246848Y-98077249D01*
X100246852Y-98077255D01*
X100256090Y-98094538D01*
X100268525Y-98109690D01*
X100268527Y-98109693D01*
X100359569Y-98220627D01*
X100381117Y-98246883D01*
X100396274Y-98259322D01*
X100516433Y-98357935D01*
X100533462Y-98371910D01*
X100550747Y-98381149D01*
X100550750Y-98381151D01*
X100689984Y-98455573D01*
X100707273Y-98464814D01*
X100841533Y-98505541D01*
X100947381Y-98555603D01*
X101034140Y-98634237D01*
X101094337Y-98734669D01*
X101122788Y-98848251D01*
X101117042Y-98965201D01*
X101077596Y-99075447D01*
X101007845Y-99169496D01*
X97870707Y-102306636D01*
X97788071Y-102370044D01*
X97691840Y-102409904D01*
X97588571Y-102423500D01*
X95537228Y-102423500D01*
X95513135Y-102422772D01*
X95485482Y-102421099D01*
X95485480Y-102421099D01*
X95461394Y-102419642D01*
X95437656Y-102423991D01*
X95437652Y-102423992D01*
X95410389Y-102428988D01*
X95386572Y-102432613D01*
X95359083Y-102435951D01*
X95359082Y-102435951D01*
X95335128Y-102438860D01*
X95315489Y-102446307D01*
X95314737Y-102446516D01*
X95294069Y-102450305D01*
X95272074Y-102460203D01*
X95272064Y-102460207D01*
X95246788Y-102471583D01*
X95224537Y-102480800D01*
X95198635Y-102490623D01*
X95198627Y-102490627D01*
X95176070Y-102499182D01*
X95158782Y-102511114D01*
X95158096Y-102511501D01*
X95138943Y-102520122D01*
X95119957Y-102534996D01*
X95119949Y-102535001D01*
X95098134Y-102552092D01*
X95078739Y-102566364D01*
X95055931Y-102582107D01*
X95055925Y-102582112D01*
X95036071Y-102595817D01*
X95020072Y-102613874D01*
X95020067Y-102613880D01*
X95001705Y-102634607D01*
X94985191Y-102652150D01*
X93589236Y-104048105D01*
X93517799Y-104104801D01*
X93435355Y-104143794D01*
X93346209Y-104163048D01*
X93295372Y-104168055D01*
X93295371Y-104168055D01*
X93275868Y-104169976D01*
X93257119Y-104175663D01*
X93257111Y-104175665D01*
X93106033Y-104221494D01*
X93106022Y-104221498D01*
X93087273Y-104227186D01*
X93069993Y-104236421D01*
X93069984Y-104236426D01*
X92930750Y-104310848D01*
X92930739Y-104310854D01*
X92913462Y-104320090D01*
X92898314Y-104332521D01*
X92898306Y-104332527D01*
X92776274Y-104432677D01*
X92776268Y-104432682D01*
X92761117Y-104445117D01*
X92748682Y-104460268D01*
X92748677Y-104460274D01*
X92648527Y-104582306D01*
X92648521Y-104582314D01*
X92636090Y-104597462D01*
X92626852Y-104614744D01*
X92626846Y-104614754D01*
X92553886Y-104751253D01*
X92480150Y-104849230D01*
X92380144Y-104920189D01*
X92263312Y-104957426D01*
X92140688Y-104957426D01*
X92023856Y-104920189D01*
X91923850Y-104849230D01*
X91850114Y-104751253D01*
X91777153Y-104614754D01*
X91777151Y-104614752D01*
X91767910Y-104597462D01*
X91754938Y-104581656D01*
X91655322Y-104460274D01*
X91642883Y-104445117D01*
X91606378Y-104415158D01*
X91505693Y-104332527D01*
X91505690Y-104332525D01*
X91490538Y-104320090D01*
X91473255Y-104310852D01*
X91473249Y-104310848D01*
X91334015Y-104236426D01*
X91334009Y-104236423D01*
X91316727Y-104227186D01*
X91297973Y-104221497D01*
X91297966Y-104221494D01*
X91146888Y-104175665D01*
X91146882Y-104175663D01*
X91128132Y-104169976D01*
X91108636Y-104168055D01*
X91108627Y-104168054D01*
X90951505Y-104152580D01*
X90932000Y-104150659D01*
X90912495Y-104152580D01*
X90755372Y-104168054D01*
X90755361Y-104168056D01*
X90735868Y-104169976D01*
X90717119Y-104175663D01*
X90717111Y-104175665D01*
X90566033Y-104221494D01*
X90566022Y-104221498D01*
X90547273Y-104227186D01*
X90529993Y-104236421D01*
X90529984Y-104236426D01*
X90390750Y-104310848D01*
X90390739Y-104310854D01*
X90373462Y-104320090D01*
X90358314Y-104332521D01*
X90358306Y-104332527D01*
X90236274Y-104432677D01*
X90236268Y-104432682D01*
X90221117Y-104445117D01*
X90099927Y-104592786D01*
X90009084Y-104674111D01*
X89897918Y-104724206D01*
X89776813Y-104738389D01*
X89657080Y-104715335D01*
X89549901Y-104657198D01*
X89465284Y-104569406D01*
X89411131Y-104460159D01*
X89397966Y-104375013D01*
X89394421Y-104375363D01*
X89392500Y-104355861D01*
X89392500Y-104336252D01*
X89380867Y-104277769D01*
X89336552Y-104211448D01*
X89270231Y-104167133D01*
X89251006Y-104163309D01*
X89251000Y-104163307D01*
X89230980Y-104159325D01*
X89230975Y-104159324D01*
X89211748Y-104155500D01*
X87572252Y-104155500D01*
X87553025Y-104159324D01*
X87553019Y-104159325D01*
X87532999Y-104163307D01*
X87532990Y-104163309D01*
X87513769Y-104167133D01*
X87497472Y-104178022D01*
X87497469Y-104178024D01*
X87463742Y-104200560D01*
X87463738Y-104200562D01*
X87447448Y-104211448D01*
X87436562Y-104227738D01*
X87436560Y-104227742D01*
X87403133Y-104277769D01*
X87400388Y-104275935D01*
X87360140Y-104331622D01*
X87276292Y-104398731D01*
X87177582Y-104441046D01*
X87071161Y-104455500D01*
X84916495Y-104455500D01*
X84805487Y-104439747D01*
X84703244Y-104393731D01*
X84617840Y-104321087D01*
X84556019Y-104227549D01*
X84522662Y-104120506D01*
X84520404Y-104008408D01*
X84549422Y-103900107D01*
X84607426Y-103804156D01*
X84689835Y-103728131D01*
X84707480Y-103715950D01*
X84728852Y-103704734D01*
X84856183Y-103591929D01*
X84952818Y-103451930D01*
X85013140Y-103292872D01*
X85028500Y-103166372D01*
X85028500Y-98839214D01*
X85029228Y-98815123D01*
X85030900Y-98787485D01*
X85030899Y-98787483D01*
X85032357Y-98763394D01*
X85023011Y-98712397D01*
X85019388Y-98688586D01*
X85016049Y-98661087D01*
X85013140Y-98637128D01*
X85005682Y-98617463D01*
X85005484Y-98616755D01*
X85001694Y-98596068D01*
X84991786Y-98574055D01*
X84991785Y-98574050D01*
X84980424Y-98548807D01*
X84971197Y-98526532D01*
X84961376Y-98500635D01*
X84961374Y-98500632D01*
X84952818Y-98478070D01*
X84940862Y-98460750D01*
X84940508Y-98460122D01*
X84931877Y-98440943D01*
X84899914Y-98400145D01*
X84885633Y-98380737D01*
X84856183Y-98338071D01*
X84817393Y-98303706D01*
X84799843Y-98287186D01*
X84452570Y-97939913D01*
X87158419Y-97939913D01*
X87161220Y-97965482D01*
X87161225Y-97965504D01*
X87173092Y-97998106D01*
X87254503Y-98172693D01*
X87271861Y-98202757D01*
X87382340Y-98360538D01*
X87404658Y-98387136D01*
X87540863Y-98523341D01*
X87567461Y-98545659D01*
X87725242Y-98656138D01*
X87755306Y-98673496D01*
X87929893Y-98754907D01*
X87962495Y-98766774D01*
X87962517Y-98766779D01*
X87988086Y-98769580D01*
X87992000Y-98744156D01*
X87992000Y-97962150D01*
X87988957Y-97939042D01*
X87965850Y-97936000D01*
X87183844Y-97936000D01*
X87158419Y-97939913D01*
X84452570Y-97939913D01*
X83644743Y-97132086D01*
X87158419Y-97132086D01*
X87183844Y-97136000D01*
X87965850Y-97136000D01*
X87988957Y-97132957D01*
X87992000Y-97109850D01*
X87992000Y-96327844D01*
X87988086Y-96302419D01*
X87962517Y-96305220D01*
X87962495Y-96305225D01*
X87929893Y-96317092D01*
X87755306Y-96398503D01*
X87725242Y-96415861D01*
X87567461Y-96526340D01*
X87540863Y-96548658D01*
X87404658Y-96684863D01*
X87382340Y-96711461D01*
X87271861Y-96869242D01*
X87254503Y-96899306D01*
X87173092Y-97073893D01*
X87161225Y-97106495D01*
X87161220Y-97106517D01*
X87158419Y-97132086D01*
X83644743Y-97132086D01*
X80863894Y-94351237D01*
X80807197Y-94279799D01*
X80768204Y-94197352D01*
X80748951Y-94108204D01*
X80747832Y-94096846D01*
X80742024Y-94037868D01*
X80684814Y-93849273D01*
X80675573Y-93831984D01*
X80601151Y-93692750D01*
X80601149Y-93692747D01*
X80591910Y-93675462D01*
X80466883Y-93523117D01*
X80445635Y-93505679D01*
X80329693Y-93410527D01*
X80329690Y-93410525D01*
X80314538Y-93398090D01*
X80297255Y-93388852D01*
X80297249Y-93388848D01*
X80158015Y-93314426D01*
X80158009Y-93314423D01*
X80140727Y-93305186D01*
X80121973Y-93299497D01*
X80121966Y-93299494D01*
X79970888Y-93253665D01*
X79970882Y-93253663D01*
X79952132Y-93247976D01*
X79932636Y-93246055D01*
X79932627Y-93246054D01*
X79775505Y-93230580D01*
X79756000Y-93228659D01*
X79736495Y-93230580D01*
X79579372Y-93246054D01*
X79579361Y-93246056D01*
X79559868Y-93247976D01*
X79541119Y-93253663D01*
X79541111Y-93253665D01*
X79390033Y-93299494D01*
X79390022Y-93299498D01*
X79371273Y-93305186D01*
X79353993Y-93314421D01*
X79353984Y-93314426D01*
X79214750Y-93388848D01*
X79214739Y-93388854D01*
X79197462Y-93398090D01*
X79182314Y-93410521D01*
X79182306Y-93410527D01*
X79060274Y-93510677D01*
X79060268Y-93510682D01*
X79045117Y-93523117D01*
X79032682Y-93538268D01*
X79032677Y-93538274D01*
X78932527Y-93660306D01*
X78932521Y-93660314D01*
X78920090Y-93675462D01*
X78910854Y-93692739D01*
X78910848Y-93692750D01*
X78836426Y-93831984D01*
X78836421Y-93831993D01*
X78827186Y-93849273D01*
X78821498Y-93868022D01*
X78821494Y-93868033D01*
X78775665Y-94019111D01*
X78775663Y-94019119D01*
X78769976Y-94037868D01*
X78768056Y-94057361D01*
X78768054Y-94057372D01*
X78756358Y-94176132D01*
X78750659Y-94234000D01*
X78752580Y-94253505D01*
X78768054Y-94410627D01*
X78768055Y-94410636D01*
X78769976Y-94430132D01*
X78775663Y-94448882D01*
X78775665Y-94448888D01*
X78821494Y-94599966D01*
X78821497Y-94599973D01*
X78827186Y-94618727D01*
X78836423Y-94636009D01*
X78836426Y-94636015D01*
X78910848Y-94775249D01*
X78910852Y-94775255D01*
X78920090Y-94792538D01*
X78932525Y-94807690D01*
X78932527Y-94807693D01*
X79032677Y-94929725D01*
X79045117Y-94944883D01*
X79060274Y-94957322D01*
X79175242Y-95051675D01*
X79197462Y-95069910D01*
X79214747Y-95079149D01*
X79214750Y-95079151D01*
X79320125Y-95135475D01*
X79371273Y-95162814D01*
X79390031Y-95168504D01*
X79390033Y-95168505D01*
X79437866Y-95183015D01*
X79559868Y-95220024D01*
X79630207Y-95226951D01*
X79719352Y-95246204D01*
X79801799Y-95285197D01*
X79873237Y-95341894D01*
X83182418Y-98651075D01*
X83254450Y-98749456D01*
X83293408Y-98864997D01*
X83295652Y-98986908D01*
X83260974Y-99103805D01*
X83192611Y-99204770D01*
X83096949Y-99280375D01*
X82982920Y-99323559D01*
X82861174Y-99330290D01*
X82823505Y-99326580D01*
X82804000Y-99324659D01*
X82784495Y-99326580D01*
X82627372Y-99342054D01*
X82627361Y-99342056D01*
X82607868Y-99343976D01*
X82589119Y-99349663D01*
X82589111Y-99349665D01*
X82438033Y-99395494D01*
X82438022Y-99395498D01*
X82419273Y-99401186D01*
X82401993Y-99410421D01*
X82401984Y-99410426D01*
X82262750Y-99484848D01*
X82262739Y-99484854D01*
X82245462Y-99494090D01*
X82230314Y-99506521D01*
X82230306Y-99506527D01*
X82108274Y-99606677D01*
X82108268Y-99606682D01*
X82093117Y-99619117D01*
X82080682Y-99634268D01*
X82080677Y-99634274D01*
X81980527Y-99756306D01*
X81980521Y-99756314D01*
X81968090Y-99771462D01*
X81958854Y-99788739D01*
X81958848Y-99788750D01*
X81885174Y-99926587D01*
X81822262Y-100013627D01*
X81738414Y-100080734D01*
X81639705Y-100123047D01*
X81533287Y-100137500D01*
X78179429Y-100137500D01*
X78076160Y-100123904D01*
X77979929Y-100084044D01*
X77897293Y-100020636D01*
X77115609Y-99238952D01*
X77057541Y-99165293D01*
X77018276Y-99080121D01*
X76981250Y-98966165D01*
X76891859Y-98811335D01*
X76877866Y-98795794D01*
X76786220Y-98694011D01*
X76786218Y-98694009D01*
X76772230Y-98678474D01*
X76742913Y-98657174D01*
X76644510Y-98585679D01*
X76644507Y-98585677D01*
X76627593Y-98573388D01*
X76608490Y-98564883D01*
X76608487Y-98564881D01*
X76483365Y-98509174D01*
X76464267Y-98500671D01*
X76443821Y-98496325D01*
X76443818Y-98496324D01*
X76309840Y-98467846D01*
X76309834Y-98467845D01*
X76289391Y-98463500D01*
X76110609Y-98463500D01*
X76090166Y-98467845D01*
X76090159Y-98467846D01*
X75956186Y-98496323D01*
X75956180Y-98496324D01*
X75935733Y-98500671D01*
X75916637Y-98509172D01*
X75916631Y-98509175D01*
X75791506Y-98564884D01*
X75791498Y-98564888D01*
X75772408Y-98573388D01*
X75755500Y-98585672D01*
X75755492Y-98585677D01*
X75644689Y-98666181D01*
X75644685Y-98666184D01*
X75627770Y-98678474D01*
X75613780Y-98694010D01*
X75613777Y-98694014D01*
X75522133Y-98795794D01*
X75522127Y-98795801D01*
X75508141Y-98811335D01*
X75497688Y-98829438D01*
X75497685Y-98829444D01*
X75429206Y-98948054D01*
X75418750Y-98966165D01*
X75412290Y-98986048D01*
X75412287Y-98986055D01*
X75374001Y-99103887D01*
X75363503Y-99136197D01*
X75361317Y-99156993D01*
X75361316Y-99156999D01*
X75354432Y-99222501D01*
X75344815Y-99314000D01*
X75347001Y-99334798D01*
X75359648Y-99455134D01*
X75363503Y-99491803D01*
X75418750Y-99661835D01*
X75450068Y-99716080D01*
X75486495Y-99779174D01*
X75508141Y-99816665D01*
X75522131Y-99832203D01*
X75522133Y-99832205D01*
X75607115Y-99926587D01*
X75627770Y-99949526D01*
X75772407Y-100054612D01*
X75791512Y-100063118D01*
X75916632Y-100118825D01*
X75916634Y-100118825D01*
X75935733Y-100127329D01*
X75956185Y-100131676D01*
X75970004Y-100136166D01*
X76055185Y-100175434D01*
X76128845Y-100233502D01*
X76241039Y-100345696D01*
X76313050Y-100444036D01*
X76352013Y-100559526D01*
X76354292Y-100681391D01*
X76319674Y-100798258D01*
X76251391Y-100899221D01*
X76155813Y-100974859D01*
X76041860Y-101018113D01*
X75956186Y-101036323D01*
X75956180Y-101036324D01*
X75935733Y-101040671D01*
X75916637Y-101049172D01*
X75916631Y-101049175D01*
X75791506Y-101104884D01*
X75791498Y-101104888D01*
X75772408Y-101113388D01*
X75755500Y-101125672D01*
X75755492Y-101125677D01*
X75644689Y-101206181D01*
X75644685Y-101206184D01*
X75627770Y-101218474D01*
X75613780Y-101234010D01*
X75613777Y-101234014D01*
X75522133Y-101335794D01*
X75522127Y-101335801D01*
X75508141Y-101351335D01*
X75497688Y-101369438D01*
X75497685Y-101369444D01*
X75451692Y-101449107D01*
X75418750Y-101506165D01*
X75412288Y-101526052D01*
X75412287Y-101526055D01*
X75382667Y-101617216D01*
X75363503Y-101676197D01*
X75361317Y-101696993D01*
X75361316Y-101696999D01*
X75360726Y-101702616D01*
X75344815Y-101854000D01*
X75363503Y-102031803D01*
X75418750Y-102201835D01*
X75429206Y-102219945D01*
X75486495Y-102319174D01*
X75508141Y-102356665D01*
X75522131Y-102372203D01*
X75522133Y-102372205D01*
X75593943Y-102451958D01*
X75627770Y-102489526D01*
X75772407Y-102594612D01*
X75791512Y-102603118D01*
X75916632Y-102658825D01*
X75916634Y-102658825D01*
X75935733Y-102667329D01*
X75956185Y-102671676D01*
X75970004Y-102676166D01*
X76055185Y-102715434D01*
X76128845Y-102773502D01*
X76217707Y-102862364D01*
X76287458Y-102956413D01*
X76326904Y-103066659D01*
X76332650Y-103183609D01*
X76304199Y-103297191D01*
X76244002Y-103397623D01*
X76157244Y-103476256D01*
X76051395Y-103526319D01*
X75935571Y-103543500D01*
X75530252Y-103543500D01*
X75511025Y-103547324D01*
X75511019Y-103547325D01*
X75490999Y-103551307D01*
X75490990Y-103551309D01*
X75471769Y-103555133D01*
X75455472Y-103566022D01*
X75455469Y-103566024D01*
X75421742Y-103588560D01*
X75421738Y-103588562D01*
X75405448Y-103599448D01*
X75394562Y-103615738D01*
X75394560Y-103615742D01*
X75376878Y-103642205D01*
X75361133Y-103665769D01*
X75357309Y-103684990D01*
X75357307Y-103684999D01*
X75353325Y-103705019D01*
X75353324Y-103705025D01*
X75349500Y-103724252D01*
X75349500Y-103743860D01*
X75349500Y-104507317D01*
X75333705Y-104618468D01*
X75287572Y-104720820D01*
X75214752Y-104806268D01*
X75121011Y-104868048D01*
X75013771Y-104901268D01*
X74901521Y-104903299D01*
X74793150Y-104873980D01*
X74701058Y-104834460D01*
X74681245Y-104830388D01*
X74681244Y-104830388D01*
X74521558Y-104797572D01*
X74521553Y-104797571D01*
X74501741Y-104793500D01*
X74349258Y-104793500D01*
X74339216Y-104794521D01*
X74339199Y-104794522D01*
X74217692Y-104806878D01*
X74217682Y-104806879D01*
X74197562Y-104808926D01*
X74178266Y-104814980D01*
X74178257Y-104814982D01*
X74022713Y-104863785D01*
X74022710Y-104863785D01*
X74003412Y-104869841D01*
X73985728Y-104879655D01*
X73985724Y-104879658D01*
X73843190Y-104958771D01*
X73825498Y-104968591D01*
X73810152Y-104981764D01*
X73810145Y-104981770D01*
X73686454Y-105087956D01*
X73686447Y-105087962D01*
X73671105Y-105101134D01*
X73658724Y-105117128D01*
X73658720Y-105117133D01*
X73558935Y-105246043D01*
X73558929Y-105246051D01*
X73546552Y-105262042D01*
X73537646Y-105280197D01*
X73537641Y-105280206D01*
X73486923Y-105383604D01*
X73456940Y-105444729D01*
X73451868Y-105464314D01*
X73451867Y-105464320D01*
X73411008Y-105622126D01*
X73411006Y-105622134D01*
X73405937Y-105641715D01*
X73404912Y-105661919D01*
X73404912Y-105661922D01*
X73396655Y-105824726D01*
X73396655Y-105824735D01*
X73395631Y-105844936D01*
X73426444Y-106046071D01*
X73497114Y-106236887D01*
X73507816Y-106254056D01*
X73507819Y-106254063D01*
X73589709Y-106385444D01*
X73637363Y-106496490D01*
X73649588Y-106616709D01*
X73625263Y-106735075D01*
X73566619Y-106840730D01*
X73479036Y-106923985D01*
X73370546Y-106977202D01*
X73251100Y-106995500D01*
X73099429Y-106995500D01*
X72996160Y-106981904D01*
X72899929Y-106942044D01*
X72817293Y-106878636D01*
X72445364Y-106506707D01*
X72381956Y-106424071D01*
X72342096Y-106327840D01*
X72328500Y-106224571D01*
X72328500Y-104681215D01*
X72329228Y-104657125D01*
X72330900Y-104629485D01*
X72330899Y-104629483D01*
X72332357Y-104605394D01*
X72323011Y-104554397D01*
X72319388Y-104530586D01*
X72316049Y-104503087D01*
X72313140Y-104479128D01*
X72305683Y-104459467D01*
X72305483Y-104458749D01*
X72301694Y-104438068D01*
X72280417Y-104390794D01*
X72271189Y-104368511D01*
X72269840Y-104364953D01*
X72245406Y-104257863D01*
X72251100Y-104148168D01*
X72286488Y-104044183D01*
X72348890Y-103953787D01*
X72433576Y-103883832D01*
X72534127Y-103839619D01*
X72642924Y-103824500D01*
X73060391Y-103824500D01*
X73163659Y-103838095D01*
X73231670Y-103866266D01*
X73232407Y-103864612D01*
X73395733Y-103937329D01*
X73570609Y-103974500D01*
X73728484Y-103974500D01*
X73749391Y-103974500D01*
X73924267Y-103937329D01*
X74087593Y-103864612D01*
X74232230Y-103759526D01*
X74351859Y-103626665D01*
X74441250Y-103471835D01*
X74496497Y-103301803D01*
X74515185Y-103124000D01*
X74496497Y-102946197D01*
X74441250Y-102776165D01*
X74351859Y-102621335D01*
X74337866Y-102605794D01*
X74246220Y-102504011D01*
X74246218Y-102504009D01*
X74232230Y-102488474D01*
X74179695Y-102450305D01*
X74104510Y-102395679D01*
X74104509Y-102395678D01*
X74087593Y-102383388D01*
X74068490Y-102374883D01*
X74068487Y-102374881D01*
X73943365Y-102319174D01*
X73924267Y-102310671D01*
X73903821Y-102306325D01*
X73903818Y-102306324D01*
X73769840Y-102277846D01*
X73769834Y-102277845D01*
X73749391Y-102273500D01*
X73570609Y-102273500D01*
X73550166Y-102277845D01*
X73550159Y-102277846D01*
X73416186Y-102306323D01*
X73416180Y-102306324D01*
X73395733Y-102310671D01*
X73376637Y-102319172D01*
X73376631Y-102319175D01*
X73232408Y-102383388D01*
X73231671Y-102381733D01*
X73163659Y-102409905D01*
X73060391Y-102423500D01*
X72591429Y-102423500D01*
X72488160Y-102409904D01*
X72391929Y-102370044D01*
X72309293Y-102306636D01*
X71839353Y-101836696D01*
X71766955Y-101737608D01*
X71728094Y-101621204D01*
X71726447Y-101498497D01*
X71762170Y-101381092D01*
X71831884Y-101280097D01*
X71928993Y-101205066D01*
X72044312Y-101163095D01*
X72166931Y-101158156D01*
X72285252Y-101190716D01*
X72292435Y-101193949D01*
X72299546Y-101197411D01*
X72316070Y-101208818D01*
X72338632Y-101217374D01*
X72338635Y-101217376D01*
X72364532Y-101227197D01*
X72386807Y-101236424D01*
X72412050Y-101247785D01*
X72412055Y-101247786D01*
X72434068Y-101257694D01*
X72454755Y-101261484D01*
X72455463Y-101261682D01*
X72475128Y-101269140D01*
X72516728Y-101274191D01*
X72526586Y-101275388D01*
X72550397Y-101279011D01*
X72601394Y-101288357D01*
X72653122Y-101285228D01*
X72677214Y-101284500D01*
X73060391Y-101284500D01*
X73163659Y-101298095D01*
X73231670Y-101326266D01*
X73232407Y-101324612D01*
X73395733Y-101397329D01*
X73570609Y-101434500D01*
X73728484Y-101434500D01*
X73749391Y-101434500D01*
X73924267Y-101397329D01*
X74087593Y-101324612D01*
X74232230Y-101219526D01*
X74351859Y-101086665D01*
X74441250Y-100931835D01*
X74496497Y-100761803D01*
X74515185Y-100584000D01*
X74496497Y-100406197D01*
X74441250Y-100236165D01*
X74351859Y-100081335D01*
X74337866Y-100065794D01*
X74246220Y-99964011D01*
X74246218Y-99964009D01*
X74232230Y-99948474D01*
X74202105Y-99926587D01*
X74104510Y-99855679D01*
X74104509Y-99855678D01*
X74087593Y-99843388D01*
X74068490Y-99834883D01*
X74068487Y-99834881D01*
X73943365Y-99779174D01*
X73924267Y-99770671D01*
X73903821Y-99766325D01*
X73903818Y-99766324D01*
X73769840Y-99737846D01*
X73769834Y-99737845D01*
X73749391Y-99733500D01*
X73570609Y-99733500D01*
X73550166Y-99737845D01*
X73550159Y-99737846D01*
X73416182Y-99766324D01*
X73416178Y-99766325D01*
X73395733Y-99770671D01*
X73376637Y-99779172D01*
X73358796Y-99784970D01*
X73235498Y-99804498D01*
X73112201Y-99784969D01*
X73000973Y-99728295D01*
X72912702Y-99640024D01*
X72856028Y-99528795D01*
X72836500Y-99405498D01*
X72836500Y-99222501D01*
X72850879Y-99116352D01*
X72892979Y-99017854D01*
X72959767Y-98934105D01*
X73046428Y-98871143D01*
X73146716Y-98833504D01*
X73253403Y-98823903D01*
X73358800Y-98843030D01*
X73376625Y-98848821D01*
X73395733Y-98857329D01*
X73570609Y-98894500D01*
X73728484Y-98894500D01*
X73749391Y-98894500D01*
X73924267Y-98857329D01*
X74087593Y-98784612D01*
X74232230Y-98679526D01*
X74351859Y-98546665D01*
X74441250Y-98391835D01*
X74496497Y-98221803D01*
X74515185Y-98044000D01*
X74496497Y-97866197D01*
X74441250Y-97696165D01*
X74351859Y-97541335D01*
X74337866Y-97525794D01*
X74246220Y-97424011D01*
X74246218Y-97424009D01*
X74232230Y-97408474D01*
X74087593Y-97303388D01*
X74068490Y-97294883D01*
X74068487Y-97294881D01*
X73943365Y-97239174D01*
X73924267Y-97230671D01*
X73903821Y-97226325D01*
X73903818Y-97226324D01*
X73769840Y-97197846D01*
X73769834Y-97197845D01*
X73749391Y-97193500D01*
X73570609Y-97193500D01*
X73550166Y-97197845D01*
X73550159Y-97197846D01*
X73416182Y-97226324D01*
X73416178Y-97226325D01*
X73395733Y-97230671D01*
X73376637Y-97239172D01*
X73358796Y-97244970D01*
X73235498Y-97264498D01*
X73112201Y-97244969D01*
X73000973Y-97188295D01*
X72912702Y-97100024D01*
X72856028Y-96988795D01*
X72836500Y-96865498D01*
X72836500Y-96774000D01*
X75344815Y-96774000D01*
X75347001Y-96794798D01*
X75361126Y-96929194D01*
X75363503Y-96951803D01*
X75418750Y-97121835D01*
X75429206Y-97139945D01*
X75486495Y-97239174D01*
X75508141Y-97276665D01*
X75522131Y-97292203D01*
X75522133Y-97292205D01*
X75562850Y-97337426D01*
X75627770Y-97409526D01*
X75772407Y-97514612D01*
X75935733Y-97587329D01*
X76110609Y-97624500D01*
X76268484Y-97624500D01*
X76289391Y-97624500D01*
X76464267Y-97587329D01*
X76627593Y-97514612D01*
X76772230Y-97409526D01*
X76891859Y-97276665D01*
X76981250Y-97121835D01*
X77036497Y-96951803D01*
X77055185Y-96774000D01*
X77036497Y-96596197D01*
X76981250Y-96426165D01*
X76891859Y-96271335D01*
X76877866Y-96255794D01*
X76786220Y-96154011D01*
X76786218Y-96154009D01*
X76772230Y-96138474D01*
X76753449Y-96124829D01*
X76644510Y-96045679D01*
X76644507Y-96045677D01*
X76627593Y-96033388D01*
X76608490Y-96024883D01*
X76608487Y-96024881D01*
X76483365Y-95969174D01*
X76464267Y-95960671D01*
X76443821Y-95956325D01*
X76443818Y-95956324D01*
X76309840Y-95927846D01*
X76309834Y-95927845D01*
X76289391Y-95923500D01*
X76110609Y-95923500D01*
X76090166Y-95927845D01*
X76090159Y-95927846D01*
X75956186Y-95956323D01*
X75956180Y-95956324D01*
X75935733Y-95960671D01*
X75916637Y-95969172D01*
X75916631Y-95969175D01*
X75791506Y-96024884D01*
X75791498Y-96024888D01*
X75772408Y-96033388D01*
X75755500Y-96045672D01*
X75755492Y-96045677D01*
X75644689Y-96126181D01*
X75644685Y-96126184D01*
X75627770Y-96138474D01*
X75613780Y-96154010D01*
X75613777Y-96154014D01*
X75522133Y-96255794D01*
X75522127Y-96255801D01*
X75508141Y-96271335D01*
X75497688Y-96289438D01*
X75497685Y-96289444D01*
X75432367Y-96402579D01*
X75418750Y-96426165D01*
X75412288Y-96446052D01*
X75412287Y-96446055D01*
X75374001Y-96563887D01*
X75363503Y-96596197D01*
X75361317Y-96616993D01*
X75361316Y-96616999D01*
X75352583Y-96700090D01*
X75344815Y-96774000D01*
X72836500Y-96774000D01*
X72836500Y-96682501D01*
X72850879Y-96576352D01*
X72892979Y-96477854D01*
X72959767Y-96394105D01*
X73046428Y-96331143D01*
X73146716Y-96293504D01*
X73253403Y-96283903D01*
X73358800Y-96303030D01*
X73376625Y-96308821D01*
X73395733Y-96317329D01*
X73570609Y-96354500D01*
X73728484Y-96354500D01*
X73749391Y-96354500D01*
X73924267Y-96317329D01*
X74087593Y-96244612D01*
X74232230Y-96139526D01*
X74351859Y-96006665D01*
X74441250Y-95851835D01*
X74496497Y-95681803D01*
X74515185Y-95504000D01*
X74496497Y-95326197D01*
X74441250Y-95156165D01*
X74351859Y-95001335D01*
X74335728Y-94983420D01*
X74246220Y-94884011D01*
X74246218Y-94884009D01*
X74232230Y-94868474D01*
X74142767Y-94803475D01*
X74104510Y-94775679D01*
X74104509Y-94775678D01*
X74087593Y-94763388D01*
X74068490Y-94754883D01*
X74068487Y-94754881D01*
X73943365Y-94699174D01*
X73924267Y-94690671D01*
X73903821Y-94686325D01*
X73903818Y-94686324D01*
X73769840Y-94657846D01*
X73769834Y-94657845D01*
X73749391Y-94653500D01*
X73570609Y-94653500D01*
X73550166Y-94657845D01*
X73550159Y-94657846D01*
X73416182Y-94686324D01*
X73416178Y-94686325D01*
X73395733Y-94690671D01*
X73376637Y-94699172D01*
X73358796Y-94704970D01*
X73235498Y-94724498D01*
X73112201Y-94704969D01*
X73000973Y-94648295D01*
X72912702Y-94560024D01*
X72856028Y-94448795D01*
X72836500Y-94325498D01*
X72836500Y-94234000D01*
X75344815Y-94234000D01*
X75347001Y-94254798D01*
X75356322Y-94343488D01*
X75363503Y-94411803D01*
X75418750Y-94581835D01*
X75429206Y-94599945D01*
X75493672Y-94711605D01*
X75508141Y-94736665D01*
X75522131Y-94752203D01*
X75522133Y-94752205D01*
X75579763Y-94816210D01*
X75627770Y-94869526D01*
X75772407Y-94974612D01*
X75935733Y-95047329D01*
X76110609Y-95084500D01*
X76268484Y-95084500D01*
X76289391Y-95084500D01*
X76464267Y-95047329D01*
X76627593Y-94974612D01*
X76772230Y-94869526D01*
X76891859Y-94736665D01*
X76981250Y-94581835D01*
X77036497Y-94411803D01*
X77055185Y-94234000D01*
X77036497Y-94056197D01*
X76981250Y-93886165D01*
X76891859Y-93731335D01*
X76875728Y-93713420D01*
X76786220Y-93614011D01*
X76786218Y-93614009D01*
X76772230Y-93598474D01*
X76627593Y-93493388D01*
X76608490Y-93484883D01*
X76608487Y-93484881D01*
X76483365Y-93429174D01*
X76464267Y-93420671D01*
X76443821Y-93416325D01*
X76443818Y-93416324D01*
X76309840Y-93387846D01*
X76309834Y-93387845D01*
X76289391Y-93383500D01*
X76110609Y-93383500D01*
X76090166Y-93387845D01*
X76090159Y-93387846D01*
X75956186Y-93416323D01*
X75956180Y-93416324D01*
X75935733Y-93420671D01*
X75916637Y-93429172D01*
X75916631Y-93429175D01*
X75791506Y-93484884D01*
X75791498Y-93484888D01*
X75772408Y-93493388D01*
X75755500Y-93505672D01*
X75755492Y-93505677D01*
X75644689Y-93586181D01*
X75644685Y-93586184D01*
X75627770Y-93598474D01*
X75613780Y-93614010D01*
X75613777Y-93614014D01*
X75522133Y-93715794D01*
X75522127Y-93715801D01*
X75508141Y-93731335D01*
X75497688Y-93749438D01*
X75497685Y-93749444D01*
X75436960Y-93854624D01*
X75418750Y-93886165D01*
X75412288Y-93906052D01*
X75412287Y-93906055D01*
X75369967Y-94036302D01*
X75363503Y-94056197D01*
X75361317Y-94076993D01*
X75361316Y-94076999D01*
X75349562Y-94188839D01*
X75344815Y-94234000D01*
X72836500Y-94234000D01*
X72836500Y-94142501D01*
X72850879Y-94036352D01*
X72892979Y-93937854D01*
X72959767Y-93854105D01*
X73046428Y-93791143D01*
X73146716Y-93753504D01*
X73253403Y-93743903D01*
X73358800Y-93763030D01*
X73376625Y-93768821D01*
X73395733Y-93777329D01*
X73570609Y-93814500D01*
X73728484Y-93814500D01*
X73749391Y-93814500D01*
X73924267Y-93777329D01*
X74087593Y-93704612D01*
X74232230Y-93599526D01*
X74351859Y-93466665D01*
X74441250Y-93311835D01*
X74496497Y-93141803D01*
X74515185Y-92964000D01*
X74496497Y-92786197D01*
X74441250Y-92616165D01*
X74351859Y-92461335D01*
X74337866Y-92445794D01*
X74246220Y-92344011D01*
X74246218Y-92344009D01*
X74232230Y-92328474D01*
X74087593Y-92223388D01*
X74068490Y-92214883D01*
X74068487Y-92214881D01*
X73943365Y-92159174D01*
X73924267Y-92150671D01*
X73903821Y-92146325D01*
X73903818Y-92146324D01*
X73769840Y-92117846D01*
X73769834Y-92117845D01*
X73749391Y-92113500D01*
X73570609Y-92113500D01*
X73550166Y-92117845D01*
X73550159Y-92117846D01*
X73416182Y-92146324D01*
X73416178Y-92146325D01*
X73395733Y-92150671D01*
X73376637Y-92159172D01*
X73358796Y-92164970D01*
X73235498Y-92184498D01*
X73112201Y-92164969D01*
X73000973Y-92108295D01*
X72912702Y-92020024D01*
X72856028Y-91908795D01*
X72836500Y-91785498D01*
X72836500Y-91694000D01*
X75344815Y-91694000D01*
X75347001Y-91714798D01*
X75355758Y-91798122D01*
X75363503Y-91871803D01*
X75418750Y-92041835D01*
X75455411Y-92105333D01*
X75486495Y-92159174D01*
X75508141Y-92196665D01*
X75522131Y-92212203D01*
X75522133Y-92212205D01*
X75532202Y-92223388D01*
X75627770Y-92329526D01*
X75772407Y-92434612D01*
X75935733Y-92507329D01*
X76110609Y-92544500D01*
X76268484Y-92544500D01*
X76289391Y-92544500D01*
X76464267Y-92507329D01*
X76627593Y-92434612D01*
X76772230Y-92329526D01*
X76891859Y-92196665D01*
X76981250Y-92041835D01*
X77036497Y-91871803D01*
X77055185Y-91694000D01*
X77036497Y-91516197D01*
X76981250Y-91346165D01*
X76891859Y-91191335D01*
X76877866Y-91175794D01*
X76786220Y-91074011D01*
X76786218Y-91074009D01*
X76772230Y-91058474D01*
X76627593Y-90953388D01*
X76608490Y-90944883D01*
X76608487Y-90944881D01*
X76483365Y-90889174D01*
X76464267Y-90880671D01*
X76443821Y-90876325D01*
X76443818Y-90876324D01*
X76309840Y-90847846D01*
X76309834Y-90847845D01*
X76289391Y-90843500D01*
X76110609Y-90843500D01*
X76090166Y-90847845D01*
X76090159Y-90847846D01*
X75956186Y-90876323D01*
X75956180Y-90876324D01*
X75935733Y-90880671D01*
X75916637Y-90889172D01*
X75916631Y-90889175D01*
X75791506Y-90944884D01*
X75791498Y-90944888D01*
X75772408Y-90953388D01*
X75755500Y-90965672D01*
X75755492Y-90965677D01*
X75644689Y-91046181D01*
X75644685Y-91046184D01*
X75627770Y-91058474D01*
X75613780Y-91074010D01*
X75613777Y-91074014D01*
X75522133Y-91175794D01*
X75522127Y-91175801D01*
X75508141Y-91191335D01*
X75497688Y-91209438D01*
X75497685Y-91209444D01*
X75432019Y-91323182D01*
X75418750Y-91346165D01*
X75412288Y-91366052D01*
X75412287Y-91366055D01*
X75374001Y-91483887D01*
X75363503Y-91516197D01*
X75361317Y-91536993D01*
X75361316Y-91536999D01*
X75354432Y-91602501D01*
X75344815Y-91694000D01*
X72836500Y-91694000D01*
X72836500Y-91602501D01*
X72850879Y-91496352D01*
X72892979Y-91397854D01*
X72959767Y-91314105D01*
X73046428Y-91251143D01*
X73146716Y-91213504D01*
X73253403Y-91203903D01*
X73358800Y-91223030D01*
X73376625Y-91228821D01*
X73395733Y-91237329D01*
X73570609Y-91274500D01*
X73728484Y-91274500D01*
X73749391Y-91274500D01*
X73924267Y-91237329D01*
X74087593Y-91164612D01*
X74232230Y-91059526D01*
X74351859Y-90926665D01*
X74441250Y-90771835D01*
X74496497Y-90601803D01*
X74515185Y-90424000D01*
X74496497Y-90246197D01*
X74441250Y-90076165D01*
X74351859Y-89921335D01*
X74337866Y-89905794D01*
X74246220Y-89804011D01*
X74246218Y-89804009D01*
X74232230Y-89788474D01*
X74136137Y-89718658D01*
X74104510Y-89695679D01*
X74104509Y-89695678D01*
X74087593Y-89683388D01*
X74068490Y-89674883D01*
X74068487Y-89674881D01*
X73943365Y-89619174D01*
X73924267Y-89610671D01*
X73903821Y-89606325D01*
X73903818Y-89606324D01*
X73769840Y-89577846D01*
X73769834Y-89577845D01*
X73749391Y-89573500D01*
X73570609Y-89573500D01*
X73550166Y-89577845D01*
X73550159Y-89577846D01*
X73416182Y-89606324D01*
X73416178Y-89606325D01*
X73395733Y-89610671D01*
X73376637Y-89619172D01*
X73358796Y-89624970D01*
X73235498Y-89644498D01*
X73112201Y-89624969D01*
X73000973Y-89568295D01*
X72912702Y-89480024D01*
X72856028Y-89368795D01*
X72836500Y-89245498D01*
X72836500Y-89154000D01*
X75344815Y-89154000D01*
X75363503Y-89331803D01*
X75418750Y-89501835D01*
X75429206Y-89519945D01*
X75486495Y-89619174D01*
X75508141Y-89656665D01*
X75522131Y-89672203D01*
X75522133Y-89672205D01*
X75613289Y-89773444D01*
X75627770Y-89789526D01*
X75772407Y-89894612D01*
X75935733Y-89967329D01*
X76110609Y-90004500D01*
X76268484Y-90004500D01*
X76289391Y-90004500D01*
X76464267Y-89967329D01*
X76627593Y-89894612D01*
X76772230Y-89789526D01*
X76891859Y-89656665D01*
X76981250Y-89501835D01*
X77036497Y-89331803D01*
X77055185Y-89154000D01*
X77036497Y-88976197D01*
X76981250Y-88806165D01*
X76891859Y-88651335D01*
X76877866Y-88635794D01*
X76786220Y-88534011D01*
X76786218Y-88534009D01*
X76772230Y-88518474D01*
X76723820Y-88483302D01*
X76644510Y-88425679D01*
X76644507Y-88425677D01*
X76627593Y-88413388D01*
X76608490Y-88404883D01*
X76608487Y-88404881D01*
X76483365Y-88349174D01*
X76464267Y-88340671D01*
X76443821Y-88336325D01*
X76443818Y-88336324D01*
X76309840Y-88307846D01*
X76309834Y-88307845D01*
X76289391Y-88303500D01*
X76110609Y-88303500D01*
X76090166Y-88307845D01*
X76090159Y-88307846D01*
X75956186Y-88336323D01*
X75956180Y-88336324D01*
X75935733Y-88340671D01*
X75916637Y-88349172D01*
X75916631Y-88349175D01*
X75791506Y-88404884D01*
X75791498Y-88404888D01*
X75772408Y-88413388D01*
X75755500Y-88425672D01*
X75755492Y-88425677D01*
X75644689Y-88506181D01*
X75644685Y-88506184D01*
X75627770Y-88518474D01*
X75613780Y-88534010D01*
X75613777Y-88534014D01*
X75522133Y-88635794D01*
X75522127Y-88635801D01*
X75508141Y-88651335D01*
X75497688Y-88669438D01*
X75497685Y-88669444D01*
X75429206Y-88788054D01*
X75418750Y-88806165D01*
X75412288Y-88826052D01*
X75412287Y-88826055D01*
X75374001Y-88943887D01*
X75363503Y-88976197D01*
X75361317Y-88996993D01*
X75361316Y-88996999D01*
X75351276Y-89092527D01*
X75344815Y-89154000D01*
X72836500Y-89154000D01*
X72836500Y-89062501D01*
X72850879Y-88956352D01*
X72892979Y-88857854D01*
X72959767Y-88774105D01*
X73046428Y-88711143D01*
X73146716Y-88673504D01*
X73253403Y-88663903D01*
X73358800Y-88683030D01*
X73376625Y-88688821D01*
X73395733Y-88697329D01*
X73570609Y-88734500D01*
X73728484Y-88734500D01*
X73749391Y-88734500D01*
X73924267Y-88697329D01*
X74087593Y-88624612D01*
X74232230Y-88519526D01*
X74351859Y-88386665D01*
X74441250Y-88231835D01*
X74496497Y-88061803D01*
X74515185Y-87884000D01*
X74496497Y-87706197D01*
X74441250Y-87536165D01*
X74351859Y-87381335D01*
X74337866Y-87365794D01*
X74246220Y-87264011D01*
X74246218Y-87264009D01*
X74232230Y-87248474D01*
X74179695Y-87210305D01*
X74104510Y-87155679D01*
X74104509Y-87155678D01*
X74087593Y-87143388D01*
X74068490Y-87134883D01*
X74068487Y-87134881D01*
X73943365Y-87079174D01*
X73924267Y-87070671D01*
X73903821Y-87066325D01*
X73903818Y-87066324D01*
X73769840Y-87037846D01*
X73769834Y-87037845D01*
X73749391Y-87033500D01*
X73570609Y-87033500D01*
X73550166Y-87037845D01*
X73550159Y-87037846D01*
X73416182Y-87066324D01*
X73416178Y-87066325D01*
X73395733Y-87070671D01*
X73376637Y-87079172D01*
X73358796Y-87084970D01*
X73235498Y-87104498D01*
X73112201Y-87084969D01*
X73000973Y-87028295D01*
X72912702Y-86940024D01*
X72856028Y-86828795D01*
X72836500Y-86705498D01*
X72836500Y-86614000D01*
X75344815Y-86614000D01*
X75347001Y-86634798D01*
X75361108Y-86769025D01*
X75363503Y-86791803D01*
X75418750Y-86961835D01*
X75450031Y-87016015D01*
X75486495Y-87079174D01*
X75508141Y-87116665D01*
X75522131Y-87132203D01*
X75522133Y-87132205D01*
X75613759Y-87233966D01*
X75627770Y-87249526D01*
X75772407Y-87354612D01*
X75935733Y-87427329D01*
X76110609Y-87464500D01*
X76268484Y-87464500D01*
X76289391Y-87464500D01*
X76464267Y-87427329D01*
X76627593Y-87354612D01*
X76772230Y-87249526D01*
X76891859Y-87116665D01*
X76981250Y-86961835D01*
X77036497Y-86791803D01*
X77055185Y-86614000D01*
X77036497Y-86436197D01*
X76981250Y-86266165D01*
X76891859Y-86111335D01*
X76877866Y-86095794D01*
X76786220Y-85994011D01*
X76786218Y-85994009D01*
X76772230Y-85978474D01*
X76627593Y-85873388D01*
X76608490Y-85864883D01*
X76608487Y-85864881D01*
X76483365Y-85809174D01*
X76464267Y-85800671D01*
X76443821Y-85796325D01*
X76443818Y-85796324D01*
X76309840Y-85767846D01*
X76309834Y-85767845D01*
X76289391Y-85763500D01*
X76110609Y-85763500D01*
X76090166Y-85767845D01*
X76090159Y-85767846D01*
X75956186Y-85796323D01*
X75956180Y-85796324D01*
X75935733Y-85800671D01*
X75916637Y-85809172D01*
X75916631Y-85809175D01*
X75791506Y-85864884D01*
X75791498Y-85864888D01*
X75772408Y-85873388D01*
X75755500Y-85885672D01*
X75755492Y-85885677D01*
X75644689Y-85966181D01*
X75644685Y-85966184D01*
X75627770Y-85978474D01*
X75613780Y-85994010D01*
X75613777Y-85994014D01*
X75522133Y-86095794D01*
X75522127Y-86095801D01*
X75508141Y-86111335D01*
X75497688Y-86129438D01*
X75497685Y-86129444D01*
X75435746Y-86236727D01*
X75418750Y-86266165D01*
X75412288Y-86286052D01*
X75412287Y-86286055D01*
X75374001Y-86403887D01*
X75363503Y-86436197D01*
X75361317Y-86456993D01*
X75361316Y-86456999D01*
X75350361Y-86561230D01*
X75344815Y-86614000D01*
X72836500Y-86614000D01*
X72836500Y-86522501D01*
X72850879Y-86416352D01*
X72892979Y-86317854D01*
X72959767Y-86234105D01*
X73046428Y-86171143D01*
X73146716Y-86133504D01*
X73253403Y-86123903D01*
X73358800Y-86143030D01*
X73376625Y-86148821D01*
X73395733Y-86157329D01*
X73570609Y-86194500D01*
X73728484Y-86194500D01*
X73749391Y-86194500D01*
X73924267Y-86157329D01*
X74087593Y-86084612D01*
X74232230Y-85979526D01*
X74351859Y-85846665D01*
X74441250Y-85691835D01*
X74496497Y-85521803D01*
X74515185Y-85344000D01*
X74496497Y-85166197D01*
X74441250Y-84996165D01*
X74351859Y-84841335D01*
X74337866Y-84825794D01*
X74246220Y-84724011D01*
X74246218Y-84724009D01*
X74232230Y-84708474D01*
X74087593Y-84603388D01*
X74068490Y-84594883D01*
X74068487Y-84594881D01*
X73943365Y-84539174D01*
X73924267Y-84530671D01*
X73903821Y-84526325D01*
X73903818Y-84526324D01*
X73769840Y-84497846D01*
X73769834Y-84497845D01*
X73749391Y-84493500D01*
X73570609Y-84493500D01*
X73550166Y-84497845D01*
X73550159Y-84497846D01*
X73416182Y-84526324D01*
X73416178Y-84526325D01*
X73395733Y-84530671D01*
X73376637Y-84539172D01*
X73358796Y-84544970D01*
X73235498Y-84564498D01*
X73112201Y-84544969D01*
X73000973Y-84488295D01*
X72912702Y-84400024D01*
X72856028Y-84288795D01*
X72836500Y-84165498D01*
X72836500Y-83982501D01*
X72850879Y-83876352D01*
X72892979Y-83777854D01*
X72959767Y-83694105D01*
X73046428Y-83631143D01*
X73146716Y-83593504D01*
X73253403Y-83583903D01*
X73358800Y-83603030D01*
X73376625Y-83608821D01*
X73395733Y-83617329D01*
X73570609Y-83654500D01*
X73728484Y-83654500D01*
X73749391Y-83654500D01*
X73924267Y-83617329D01*
X74087593Y-83544612D01*
X74232230Y-83439526D01*
X74351859Y-83306665D01*
X74441250Y-83151835D01*
X74496497Y-82981803D01*
X74515185Y-82804000D01*
X74496497Y-82626197D01*
X74441250Y-82456165D01*
X74351859Y-82301335D01*
X74337866Y-82285794D01*
X74246220Y-82184011D01*
X74246218Y-82184009D01*
X74232230Y-82168474D01*
X74204109Y-82148043D01*
X74104510Y-82075679D01*
X74104509Y-82075678D01*
X74087593Y-82063388D01*
X74068490Y-82054883D01*
X74068487Y-82054881D01*
X73943365Y-81999174D01*
X73924267Y-81990671D01*
X73903821Y-81986325D01*
X73903818Y-81986324D01*
X73769840Y-81957846D01*
X73769834Y-81957845D01*
X73749391Y-81953500D01*
X73570609Y-81953500D01*
X73550166Y-81957845D01*
X73550159Y-81957846D01*
X73416182Y-81986324D01*
X73416178Y-81986325D01*
X73395733Y-81990671D01*
X73376637Y-81999172D01*
X73358796Y-82004970D01*
X73235498Y-82024498D01*
X73112201Y-82004969D01*
X73000973Y-81948295D01*
X72912702Y-81860024D01*
X72856028Y-81748795D01*
X72836500Y-81625498D01*
X72836500Y-81442501D01*
X72850879Y-81336352D01*
X72892979Y-81237854D01*
X72959767Y-81154105D01*
X73046428Y-81091143D01*
X73146716Y-81053504D01*
X73253403Y-81043903D01*
X73358800Y-81063030D01*
X73376625Y-81068821D01*
X73395733Y-81077329D01*
X73570609Y-81114500D01*
X73728484Y-81114500D01*
X73749391Y-81114500D01*
X73924267Y-81077329D01*
X74087593Y-81004612D01*
X74088329Y-81006266D01*
X74156341Y-80978095D01*
X74259609Y-80964500D01*
X74642772Y-80964500D01*
X74666865Y-80965228D01*
X74718606Y-80968358D01*
X74769614Y-80959010D01*
X74793403Y-80955389D01*
X74844872Y-80949140D01*
X74863638Y-80942022D01*
X74871356Y-80940365D01*
X74876105Y-80939495D01*
X74885951Y-80937692D01*
X74886454Y-80940441D01*
X74957452Y-80928919D01*
X75068974Y-80942551D01*
X75172276Y-80986732D01*
X75259164Y-81057961D01*
X75322751Y-81150588D01*
X75357994Y-81257270D01*
X75362099Y-81369548D01*
X75347001Y-81513200D01*
X75344815Y-81534000D01*
X75347001Y-81554798D01*
X75360108Y-81679509D01*
X75363503Y-81711803D01*
X75418750Y-81881835D01*
X75429206Y-81899945D01*
X75486495Y-81999174D01*
X75508141Y-82036665D01*
X75522131Y-82052203D01*
X75522133Y-82052205D01*
X75613759Y-82153966D01*
X75627770Y-82169526D01*
X75772407Y-82274612D01*
X75935733Y-82347329D01*
X76110609Y-82384500D01*
X76268484Y-82384500D01*
X76289391Y-82384500D01*
X76464267Y-82347329D01*
X76627593Y-82274612D01*
X76628329Y-82276266D01*
X76696341Y-82248095D01*
X76799609Y-82234500D01*
X79976772Y-82234500D01*
X80000865Y-82235228D01*
X80052606Y-82238358D01*
X80103614Y-82229010D01*
X80127403Y-82225389D01*
X80178872Y-82219140D01*
X80198535Y-82211682D01*
X80199234Y-82211487D01*
X80219932Y-82207695D01*
X80267229Y-82186407D01*
X80289454Y-82177201D01*
X80337930Y-82158818D01*
X80355252Y-82146860D01*
X80355862Y-82146515D01*
X80375057Y-82137878D01*
X80415874Y-82105898D01*
X80435265Y-82091631D01*
X80477929Y-82062183D01*
X80512313Y-82023370D01*
X80528800Y-82005855D01*
X80743865Y-81790790D01*
X80844857Y-81717416D01*
X80963582Y-81678840D01*
X81088417Y-81678840D01*
X81207141Y-81717416D01*
X81308135Y-81790792D01*
X83510636Y-83993293D01*
X83574044Y-84075929D01*
X83613904Y-84172160D01*
X83627500Y-84275429D01*
X83627500Y-85386372D01*
X83628951Y-85398325D01*
X83628952Y-85398335D01*
X83639950Y-85488911D01*
X83639951Y-85488915D01*
X83642860Y-85512872D01*
X83651418Y-85535439D01*
X83651419Y-85535441D01*
X83686512Y-85627976D01*
X83703182Y-85671930D01*
X83713545Y-85686943D01*
X83749665Y-85788618D01*
X83756141Y-85901349D01*
X83753387Y-85913295D01*
X83765338Y-85910541D01*
X83878069Y-85917019D01*
X83984466Y-85954817D01*
X84077775Y-86003790D01*
X84242944Y-86044500D01*
X84388920Y-86044500D01*
X84413056Y-86044500D01*
X84578225Y-86003790D01*
X84728852Y-85924734D01*
X84856183Y-85811929D01*
X84952818Y-85671930D01*
X85013140Y-85512872D01*
X85028500Y-85386372D01*
X85028500Y-83853215D01*
X85029228Y-83829125D01*
X85030900Y-83801485D01*
X85030899Y-83801483D01*
X85032357Y-83777394D01*
X85023011Y-83726397D01*
X85019388Y-83702586D01*
X85016049Y-83675087D01*
X85013140Y-83651128D01*
X85005683Y-83631467D01*
X85005483Y-83630749D01*
X85001694Y-83610068D01*
X84980417Y-83562794D01*
X84971199Y-83540539D01*
X84962031Y-83516365D01*
X84952818Y-83492070D01*
X84940875Y-83474768D01*
X84940504Y-83474110D01*
X84931878Y-83454943D01*
X84899913Y-83414142D01*
X84885628Y-83394729D01*
X84871314Y-83373992D01*
X84856183Y-83352071D01*
X84835622Y-83333856D01*
X84817393Y-83317706D01*
X84799843Y-83301186D01*
X82298793Y-80800136D01*
X82235385Y-80717500D01*
X82195525Y-80621269D01*
X82181929Y-80518000D01*
X82195525Y-80414731D01*
X82235385Y-80318500D01*
X82298793Y-80235864D01*
X82882744Y-79651913D01*
X87158419Y-79651913D01*
X87161220Y-79677482D01*
X87161225Y-79677504D01*
X87173092Y-79710106D01*
X87254503Y-79884693D01*
X87271861Y-79914757D01*
X87382340Y-80072538D01*
X87404658Y-80099136D01*
X87540863Y-80235341D01*
X87567461Y-80257659D01*
X87725242Y-80368138D01*
X87755306Y-80385496D01*
X87929893Y-80466907D01*
X87962495Y-80478774D01*
X87962517Y-80478779D01*
X87988086Y-80481580D01*
X87992000Y-80456156D01*
X87992000Y-79674150D01*
X87988957Y-79651042D01*
X87965850Y-79648000D01*
X87183844Y-79648000D01*
X87158419Y-79651913D01*
X82882744Y-79651913D01*
X83690571Y-78844086D01*
X87158419Y-78844086D01*
X87183844Y-78848000D01*
X87965850Y-78848000D01*
X87988957Y-78844957D01*
X87992000Y-78821850D01*
X87992000Y-78039844D01*
X87988086Y-78014419D01*
X87962517Y-78017220D01*
X87962495Y-78017225D01*
X87929893Y-78029092D01*
X87755306Y-78110503D01*
X87725242Y-78127861D01*
X87567461Y-78238340D01*
X87540863Y-78260658D01*
X87404658Y-78396863D01*
X87382340Y-78423461D01*
X87271861Y-78581242D01*
X87254503Y-78611306D01*
X87173092Y-78785893D01*
X87161225Y-78818495D01*
X87161220Y-78818517D01*
X87158419Y-78844086D01*
X83690571Y-78844086D01*
X86025293Y-76509364D01*
X86107929Y-76445956D01*
X86204160Y-76406096D01*
X86307429Y-76392500D01*
X89374772Y-76392500D01*
X89398865Y-76393228D01*
X89450606Y-76396358D01*
X89501614Y-76387010D01*
X89525403Y-76383389D01*
X89576872Y-76377140D01*
X89596535Y-76369682D01*
X89597234Y-76369487D01*
X89617932Y-76365695D01*
X89665229Y-76344407D01*
X89687492Y-76335187D01*
X89689032Y-76334603D01*
X89810432Y-76309197D01*
X89933770Y-76322297D01*
G37*
%TD.AperFunction*%
%TA.AperFunction,Conductor*%
G36*
X82387700Y-74239100D02*
G01*
X82503015Y-74281074D01*
X82600120Y-74356108D01*
X82669830Y-74457102D01*
X82705550Y-74574505D01*
X82703901Y-74697211D01*
X82665040Y-74813612D01*
X82592643Y-74912697D01*
X80090707Y-77414635D01*
X80008071Y-77478044D01*
X79911840Y-77517904D01*
X79808571Y-77531500D01*
X75806429Y-77531500D01*
X75690605Y-77514319D01*
X75584756Y-77464256D01*
X75497998Y-77385623D01*
X75437801Y-77285191D01*
X75409350Y-77171609D01*
X75415096Y-77054659D01*
X75454542Y-76944413D01*
X75524293Y-76850364D01*
X77897293Y-74477364D01*
X77979929Y-74413956D01*
X78076160Y-74374096D01*
X78179429Y-74360500D01*
X81754772Y-74360500D01*
X81778865Y-74361228D01*
X81830606Y-74364358D01*
X81881614Y-74355010D01*
X81905403Y-74351389D01*
X81956872Y-74345140D01*
X81976535Y-74337682D01*
X81977234Y-74337487D01*
X81997932Y-74333695D01*
X82045229Y-74312407D01*
X82067454Y-74303201D01*
X82115930Y-74284818D01*
X82132456Y-74273409D01*
X82139524Y-74269967D01*
X82146770Y-74266706D01*
X82265083Y-74234156D01*
X82387700Y-74239100D01*
G37*
%TD.AperFunction*%
%TA.AperFunction,Conductor*%
G36*
X90933394Y-57613681D02*
G01*
X91039243Y-57663744D01*
X91126001Y-57742377D01*
X91186198Y-57842809D01*
X91214649Y-57956391D01*
X91208903Y-58073341D01*
X91169456Y-58183588D01*
X91099705Y-58277636D01*
X90460149Y-58917191D01*
X90442607Y-58933705D01*
X90421880Y-58952067D01*
X90421874Y-58952072D01*
X90403817Y-58968071D01*
X90390112Y-58987925D01*
X90390107Y-58987931D01*
X90374364Y-59010739D01*
X90360092Y-59030134D01*
X90343001Y-59051949D01*
X90342996Y-59051957D01*
X90328122Y-59070943D01*
X90319502Y-59090093D01*
X90319112Y-59090784D01*
X90307182Y-59108070D01*
X90298629Y-59130620D01*
X90298625Y-59130629D01*
X90288800Y-59156536D01*
X90279585Y-59178783D01*
X90268207Y-59204064D01*
X90268204Y-59204070D01*
X90258305Y-59226068D01*
X90254517Y-59246730D01*
X90254304Y-59247496D01*
X90246860Y-59267128D01*
X90243951Y-59291076D01*
X90243951Y-59291080D01*
X90240612Y-59318579D01*
X90236988Y-59342389D01*
X90227642Y-59393394D01*
X90229099Y-59417481D01*
X90229099Y-59417483D01*
X90230772Y-59445135D01*
X90231500Y-59469228D01*
X90231500Y-61071131D01*
X90215829Y-61181854D01*
X90170049Y-61283879D01*
X90097754Y-61369194D01*
X90004623Y-61431096D01*
X89897973Y-61464723D01*
X89786179Y-61467433D01*
X89678024Y-61439015D01*
X89582003Y-61381699D01*
X89505659Y-61299989D01*
X89401655Y-61151456D01*
X89379341Y-61124863D01*
X89243136Y-60988658D01*
X89216538Y-60966340D01*
X89058757Y-60855861D01*
X89028693Y-60838503D01*
X88854106Y-60757092D01*
X88821504Y-60745225D01*
X88821482Y-60745220D01*
X88795913Y-60742419D01*
X88792000Y-60767844D01*
X88792000Y-63184156D01*
X88795913Y-63209580D01*
X88821482Y-63206779D01*
X88821504Y-63206774D01*
X88854106Y-63194907D01*
X89028693Y-63113496D01*
X89058757Y-63096138D01*
X89216538Y-62985659D01*
X89243136Y-62963341D01*
X89379341Y-62827136D01*
X89401650Y-62800548D01*
X89520229Y-62631200D01*
X89604751Y-62543068D01*
X89711968Y-62484626D01*
X89831840Y-62461347D01*
X89953139Y-62475412D01*
X90064503Y-62525504D01*
X90155501Y-62606931D01*
X90208675Y-62671723D01*
X90221117Y-62686883D01*
X90373462Y-62811910D01*
X90390749Y-62821150D01*
X90390758Y-62821156D01*
X90396857Y-62824416D01*
X90406310Y-62831547D01*
X90407050Y-62832042D01*
X90407021Y-62832084D01*
X90495483Y-62898821D01*
X90566621Y-62999829D01*
X90603450Y-63117757D01*
X90602439Y-63241297D01*
X90563685Y-63358606D01*
X90490904Y-63458437D01*
X87920150Y-66029191D01*
X87902607Y-66045705D01*
X87881880Y-66064067D01*
X87881874Y-66064072D01*
X87863817Y-66080071D01*
X87850112Y-66099925D01*
X87850107Y-66099931D01*
X87834364Y-66122739D01*
X87820092Y-66142134D01*
X87803001Y-66163949D01*
X87802996Y-66163957D01*
X87788122Y-66182943D01*
X87779502Y-66202093D01*
X87779112Y-66202784D01*
X87767182Y-66220070D01*
X87758629Y-66242620D01*
X87758625Y-66242629D01*
X87748800Y-66268536D01*
X87739585Y-66290783D01*
X87728207Y-66316064D01*
X87728204Y-66316070D01*
X87718305Y-66338068D01*
X87714517Y-66358730D01*
X87714304Y-66359496D01*
X87706860Y-66379128D01*
X87703951Y-66403076D01*
X87703951Y-66403080D01*
X87700612Y-66430579D01*
X87696988Y-66454389D01*
X87695822Y-66460754D01*
X87687642Y-66505394D01*
X87689099Y-66529481D01*
X87689099Y-66529483D01*
X87690772Y-66557135D01*
X87691500Y-66581228D01*
X87691500Y-68275161D01*
X87677046Y-68381582D01*
X87634731Y-68480292D01*
X87567622Y-68564140D01*
X87511935Y-68604388D01*
X87513769Y-68607133D01*
X87463742Y-68640560D01*
X87463738Y-68640562D01*
X87447448Y-68651448D01*
X87436562Y-68667738D01*
X87436560Y-68667742D01*
X87417112Y-68696848D01*
X87403133Y-68717769D01*
X87399309Y-68736990D01*
X87399307Y-68736999D01*
X87395325Y-68757019D01*
X87395324Y-68757025D01*
X87391500Y-68776252D01*
X87391500Y-70415748D01*
X87395324Y-70434975D01*
X87395325Y-70434980D01*
X87399307Y-70455000D01*
X87399309Y-70455006D01*
X87403133Y-70474231D01*
X87447448Y-70540552D01*
X87513769Y-70584867D01*
X87572252Y-70596500D01*
X89192140Y-70596500D01*
X89211748Y-70596500D01*
X89270231Y-70584867D01*
X89336552Y-70540552D01*
X89380867Y-70474231D01*
X89392500Y-70415748D01*
X89392500Y-70396139D01*
X89394421Y-70376637D01*
X89397966Y-70376986D01*
X89411131Y-70291841D01*
X89465284Y-70182594D01*
X89549901Y-70094802D01*
X89657080Y-70036665D01*
X89776813Y-70013611D01*
X89897918Y-70027794D01*
X90009084Y-70077889D01*
X90099927Y-70159213D01*
X90221117Y-70306883D01*
X90236274Y-70319322D01*
X90353768Y-70415748D01*
X90373462Y-70431910D01*
X90390749Y-70441150D01*
X90390758Y-70441156D01*
X90396857Y-70444416D01*
X90406310Y-70451547D01*
X90407050Y-70452042D01*
X90407021Y-70452084D01*
X90495483Y-70518821D01*
X90566621Y-70619829D01*
X90603450Y-70737757D01*
X90602439Y-70861297D01*
X90563685Y-70978606D01*
X90490904Y-71078436D01*
X88726707Y-72842635D01*
X88644071Y-72906044D01*
X88547840Y-72945904D01*
X88444571Y-72959500D01*
X84869214Y-72959500D01*
X84845123Y-72958772D01*
X84817482Y-72957100D01*
X84793394Y-72955643D01*
X84769660Y-72959991D01*
X84769659Y-72959992D01*
X84763293Y-72961158D01*
X84742388Y-72964989D01*
X84718596Y-72968610D01*
X84691076Y-72971951D01*
X84691068Y-72971952D01*
X84667128Y-72974860D01*
X84647482Y-72982309D01*
X84646732Y-72982518D01*
X84626068Y-72986306D01*
X84604068Y-72996206D01*
X84604062Y-72996209D01*
X84578812Y-73007573D01*
X84556556Y-73016792D01*
X84530639Y-73026621D01*
X84530628Y-73026626D01*
X84508070Y-73035182D01*
X84491546Y-73046586D01*
X84484445Y-73050045D01*
X84477272Y-73053274D01*
X84358951Y-73085841D01*
X84236328Y-73080907D01*
X84121005Y-73038941D01*
X84023892Y-72963911D01*
X83954174Y-72862916D01*
X83918447Y-72745510D01*
X83920092Y-72622800D01*
X83958953Y-72506393D01*
X84031349Y-72407306D01*
X85815863Y-70622792D01*
X85833404Y-70606283D01*
X85872183Y-70571929D01*
X85901645Y-70529243D01*
X85915913Y-70509855D01*
X85947877Y-70469057D01*
X85956513Y-70449865D01*
X85956855Y-70449258D01*
X85968818Y-70431930D01*
X85987195Y-70383470D01*
X85996422Y-70361195D01*
X86007785Y-70335947D01*
X86017694Y-70313932D01*
X86021484Y-70293242D01*
X86021681Y-70292537D01*
X86029140Y-70272872D01*
X86035391Y-70221387D01*
X86039010Y-70197607D01*
X86048357Y-70146606D01*
X86045228Y-70094877D01*
X86044500Y-70070786D01*
X86044500Y-62379913D01*
X87158419Y-62379913D01*
X87161220Y-62405482D01*
X87161225Y-62405504D01*
X87173092Y-62438106D01*
X87254503Y-62612693D01*
X87271861Y-62642757D01*
X87382340Y-62800538D01*
X87404658Y-62827136D01*
X87540863Y-62963341D01*
X87567461Y-62985659D01*
X87725242Y-63096138D01*
X87755306Y-63113496D01*
X87929893Y-63194907D01*
X87962495Y-63206774D01*
X87962517Y-63206779D01*
X87988086Y-63209580D01*
X87992000Y-63184156D01*
X87992000Y-62402150D01*
X87988957Y-62379042D01*
X87965850Y-62376000D01*
X87183844Y-62376000D01*
X87158419Y-62379913D01*
X86044500Y-62379913D01*
X86044500Y-61572086D01*
X87158419Y-61572086D01*
X87183844Y-61576000D01*
X87965850Y-61576000D01*
X87988957Y-61572957D01*
X87992000Y-61549850D01*
X87992000Y-60767844D01*
X87988086Y-60742419D01*
X87962517Y-60745220D01*
X87962495Y-60745225D01*
X87929893Y-60757092D01*
X87755306Y-60838503D01*
X87725242Y-60855861D01*
X87567461Y-60966340D01*
X87540863Y-60988658D01*
X87404658Y-61124863D01*
X87382340Y-61151461D01*
X87271861Y-61309242D01*
X87254503Y-61339306D01*
X87173092Y-61513893D01*
X87161225Y-61546495D01*
X87161220Y-61546517D01*
X87158419Y-61572086D01*
X86044500Y-61572086D01*
X86044500Y-59891429D01*
X86058096Y-59788160D01*
X86097956Y-59691929D01*
X86161364Y-59609293D01*
X88057293Y-57713364D01*
X88139929Y-57649956D01*
X88236160Y-57610096D01*
X88339429Y-57596500D01*
X90817570Y-57596500D01*
X90933394Y-57613681D01*
G37*
%TD.AperFunction*%
%TA.AperFunction,Conductor*%
G36*
X126999522Y-55372521D02*
G01*
X126999992Y-55372501D01*
X127000841Y-55372503D01*
X127001673Y-55372506D01*
X127168292Y-55373115D01*
X127357753Y-55374372D01*
X127394361Y-55376300D01*
X127561407Y-55392830D01*
X127564865Y-55393188D01*
X127738173Y-55411898D01*
X127772102Y-55417046D01*
X127939600Y-55449888D01*
X127945270Y-55451044D01*
X128113068Y-55486538D01*
X128144011Y-55494390D01*
X128308702Y-55543284D01*
X128316567Y-55545708D01*
X128478807Y-55597566D01*
X128506626Y-55607609D01*
X128666437Y-55672102D01*
X128676162Y-55676178D01*
X128831907Y-55743923D01*
X128856464Y-55755617D01*
X129009657Y-55835088D01*
X129021090Y-55841258D01*
X129168930Y-55924187D01*
X129190209Y-55937010D01*
X129335312Y-56030741D01*
X129348050Y-56039322D01*
X129486634Y-56136618D01*
X129504674Y-56150058D01*
X129640263Y-56257149D01*
X129653949Y-56268462D01*
X129718272Y-56324089D01*
X129782010Y-56379210D01*
X129796896Y-56392755D01*
X129921665Y-56512170D01*
X129935845Y-56526444D01*
X130038949Y-56635608D01*
X130052200Y-56649638D01*
X130064105Y-56662818D01*
X130176884Y-56793410D01*
X130191094Y-56810834D01*
X130294610Y-56945337D01*
X130303715Y-56957651D01*
X130403482Y-57098181D01*
X130417228Y-57118882D01*
X130506858Y-57263437D01*
X130513539Y-57274615D01*
X130599306Y-57423585D01*
X130612075Y-57447627D01*
X130650682Y-57526717D01*
X130686970Y-57601057D01*
X130691514Y-57610692D01*
X130762496Y-57766530D01*
X130773759Y-57793906D01*
X130833199Y-57955140D01*
X130835984Y-57962943D01*
X130891505Y-58123759D01*
X130900720Y-58154373D01*
X130944116Y-58322720D01*
X130945551Y-58328464D01*
X130985111Y-58491928D01*
X130991744Y-58525615D01*
X131018663Y-58702091D01*
X131019182Y-58705601D01*
X131042401Y-58867464D01*
X131045936Y-58903995D01*
X131056114Y-59105530D01*
X131056172Y-59106710D01*
X131063050Y-59251407D01*
X131063500Y-59270352D01*
X131063500Y-108194785D01*
X131063074Y-108213215D01*
X131055532Y-108376321D01*
X131055477Y-108377468D01*
X131046139Y-108567554D01*
X131042794Y-108603102D01*
X131018995Y-108773708D01*
X131018502Y-108777128D01*
X130992567Y-108951968D01*
X130986288Y-108984773D01*
X130946235Y-109155070D01*
X130944875Y-109160669D01*
X130902589Y-109329484D01*
X130893863Y-109359333D01*
X130837927Y-109526225D01*
X130835286Y-109533848D01*
X130777017Y-109696696D01*
X130766345Y-109723438D01*
X130695013Y-109884991D01*
X130690701Y-109894423D01*
X130617015Y-110050218D01*
X130604900Y-110073778D01*
X130518807Y-110228345D01*
X130512464Y-110239318D01*
X130424036Y-110386850D01*
X130410978Y-110407211D01*
X130310871Y-110553350D01*
X130302176Y-110565545D01*
X130199829Y-110703544D01*
X130186313Y-110720761D01*
X130073093Y-110857106D01*
X130061769Y-110870156D01*
X129946445Y-110997397D01*
X129932941Y-111011582D01*
X129807582Y-111136941D01*
X129793397Y-111150445D01*
X129666156Y-111265769D01*
X129653106Y-111277093D01*
X129516761Y-111390313D01*
X129499544Y-111403829D01*
X129361545Y-111506176D01*
X129349350Y-111514871D01*
X129203211Y-111614978D01*
X129182850Y-111628036D01*
X129035318Y-111716464D01*
X129024345Y-111722807D01*
X128869778Y-111808900D01*
X128846218Y-111821015D01*
X128690423Y-111894701D01*
X128680991Y-111899013D01*
X128519438Y-111970345D01*
X128492696Y-111981017D01*
X128329848Y-112039286D01*
X128322225Y-112041927D01*
X128155333Y-112097863D01*
X128125484Y-112106589D01*
X127956669Y-112148875D01*
X127951070Y-112150235D01*
X127780773Y-112190288D01*
X127747968Y-112196567D01*
X127573128Y-112222502D01*
X127569708Y-112222995D01*
X127399102Y-112246794D01*
X127363554Y-112250139D01*
X127173468Y-112259477D01*
X127172321Y-112259532D01*
X127013411Y-112266879D01*
X127009213Y-112267074D01*
X126990785Y-112267500D01*
X61985215Y-112267500D01*
X61966786Y-112267074D01*
X61962244Y-112266864D01*
X61803677Y-112259532D01*
X61802530Y-112259477D01*
X61612444Y-112250139D01*
X61576896Y-112246794D01*
X61406290Y-112222995D01*
X61402870Y-112222502D01*
X61228030Y-112196567D01*
X61195225Y-112190288D01*
X61024928Y-112150235D01*
X61019329Y-112148875D01*
X60850514Y-112106589D01*
X60820665Y-112097863D01*
X60653773Y-112041927D01*
X60646150Y-112039286D01*
X60483302Y-111981017D01*
X60456560Y-111970345D01*
X60295007Y-111899013D01*
X60285575Y-111894701D01*
X60129780Y-111821015D01*
X60106234Y-111808907D01*
X59951601Y-111722777D01*
X59940680Y-111716464D01*
X59793148Y-111628036D01*
X59772787Y-111614978D01*
X59626627Y-111514856D01*
X59614453Y-111506176D01*
X59476454Y-111403829D01*
X59459254Y-111390326D01*
X59322884Y-111277086D01*
X59309842Y-111265769D01*
X59182601Y-111150445D01*
X59168416Y-111136941D01*
X59043057Y-111011582D01*
X59029553Y-110997397D01*
X58914229Y-110870156D01*
X58902919Y-110857122D01*
X58789665Y-110720736D01*
X58776183Y-110703562D01*
X58673812Y-110565531D01*
X58665157Y-110553393D01*
X58565006Y-110407190D01*
X58551962Y-110386850D01*
X58481860Y-110269893D01*
X58463519Y-110239292D01*
X58457245Y-110228438D01*
X58371079Y-110073742D01*
X58358983Y-110050218D01*
X58285276Y-109894377D01*
X58280985Y-109884991D01*
X58209653Y-109723438D01*
X58198981Y-109696696D01*
X58140712Y-109533848D01*
X58138071Y-109526225D01*
X58128290Y-109497043D01*
X58095781Y-109400049D01*
X58082135Y-109359333D01*
X58073409Y-109329484D01*
X58071869Y-109323336D01*
X58031094Y-109160550D01*
X58029792Y-109155189D01*
X57989706Y-108984754D01*
X57983434Y-108951985D01*
X57957483Y-108777039D01*
X57957042Y-108773981D01*
X57933200Y-108603066D01*
X57929861Y-108567576D01*
X57920501Y-108377046D01*
X57920478Y-108376582D01*
X57912925Y-108213213D01*
X57912500Y-108194789D01*
X57912500Y-98302380D01*
X57929681Y-98186556D01*
X57979744Y-98080708D01*
X58013013Y-98043999D01*
X58611253Y-98043999D01*
X58663386Y-98114292D01*
X58702290Y-98223023D01*
X58703976Y-98240132D01*
X58709663Y-98258882D01*
X58709665Y-98258888D01*
X58755494Y-98409966D01*
X58755497Y-98409973D01*
X58761186Y-98428727D01*
X58770423Y-98446009D01*
X58770426Y-98446015D01*
X58844848Y-98585249D01*
X58844852Y-98585255D01*
X58854090Y-98602538D01*
X58866523Y-98617687D01*
X58866527Y-98617693D01*
X58906324Y-98666185D01*
X58979117Y-98754883D01*
X58994274Y-98767322D01*
X59113290Y-98864997D01*
X59131462Y-98879910D01*
X59148747Y-98889149D01*
X59148750Y-98889151D01*
X59258950Y-98948054D01*
X59305273Y-98972814D01*
X59324031Y-98978504D01*
X59324033Y-98978505D01*
X59348899Y-98986048D01*
X59493868Y-99030024D01*
X59513371Y-99031944D01*
X59513372Y-99031945D01*
X59670495Y-99047420D01*
X59690000Y-99049341D01*
X59886132Y-99030024D01*
X60074727Y-98972814D01*
X60248538Y-98879910D01*
X60400883Y-98754883D01*
X60525910Y-98602538D01*
X60618814Y-98428727D01*
X60676024Y-98240132D01*
X60695341Y-98044000D01*
X60685172Y-97940747D01*
X60677945Y-97867372D01*
X60677944Y-97867371D01*
X60676024Y-97847868D01*
X60634608Y-97711339D01*
X60624505Y-97678033D01*
X60624504Y-97678031D01*
X60618814Y-97659273D01*
X60606302Y-97635865D01*
X60535151Y-97502750D01*
X60535149Y-97502747D01*
X60525910Y-97485462D01*
X60507061Y-97462495D01*
X60413322Y-97348274D01*
X60400883Y-97333117D01*
X60364658Y-97303388D01*
X60263693Y-97220527D01*
X60263690Y-97220525D01*
X60248538Y-97208090D01*
X60231255Y-97198852D01*
X60231249Y-97198848D01*
X60092015Y-97124426D01*
X60092009Y-97124423D01*
X60074727Y-97115186D01*
X60055973Y-97109497D01*
X60055966Y-97109494D01*
X59904888Y-97063665D01*
X59904882Y-97063663D01*
X59886132Y-97057976D01*
X59866636Y-97056055D01*
X59866627Y-97056054D01*
X59709505Y-97040580D01*
X59690000Y-97038659D01*
X59670495Y-97040580D01*
X59513372Y-97056054D01*
X59513361Y-97056056D01*
X59493868Y-97057976D01*
X59475119Y-97063663D01*
X59475111Y-97063665D01*
X59324033Y-97109494D01*
X59324022Y-97109498D01*
X59305273Y-97115186D01*
X59287993Y-97124421D01*
X59287984Y-97124426D01*
X59148750Y-97198848D01*
X59148739Y-97198854D01*
X59131462Y-97208090D01*
X59116314Y-97220521D01*
X59116306Y-97220527D01*
X58994274Y-97320677D01*
X58994268Y-97320682D01*
X58979117Y-97333117D01*
X58966682Y-97348268D01*
X58966677Y-97348274D01*
X58866527Y-97470306D01*
X58866521Y-97470314D01*
X58854090Y-97485462D01*
X58844854Y-97502739D01*
X58844848Y-97502750D01*
X58770426Y-97641984D01*
X58770421Y-97641993D01*
X58761186Y-97659273D01*
X58755498Y-97678022D01*
X58755494Y-97678033D01*
X58709665Y-97829111D01*
X58709663Y-97829119D01*
X58703976Y-97847868D01*
X58702290Y-97864976D01*
X58663386Y-97973708D01*
X58611253Y-98043999D01*
X58013013Y-98043999D01*
X57979744Y-98007292D01*
X57929681Y-97901444D01*
X57912500Y-97785620D01*
X57912500Y-94238380D01*
X57929681Y-94122556D01*
X57979744Y-94016708D01*
X58013013Y-93980000D01*
X58611253Y-93980000D01*
X58663386Y-94050292D01*
X58702290Y-94159023D01*
X58703976Y-94176132D01*
X58709663Y-94194882D01*
X58709665Y-94194888D01*
X58755494Y-94345966D01*
X58755497Y-94345973D01*
X58761186Y-94364727D01*
X58770423Y-94382009D01*
X58770426Y-94382015D01*
X58844848Y-94521249D01*
X58844852Y-94521255D01*
X58854090Y-94538538D01*
X58866525Y-94553690D01*
X58866527Y-94553693D01*
X58934088Y-94636015D01*
X58979117Y-94690883D01*
X58994274Y-94703322D01*
X59082440Y-94775679D01*
X59131462Y-94815910D01*
X59148747Y-94825149D01*
X59148750Y-94825151D01*
X59287984Y-94899573D01*
X59305273Y-94908814D01*
X59324031Y-94914504D01*
X59324033Y-94914505D01*
X59350373Y-94922495D01*
X59493868Y-94966024D01*
X59513371Y-94967944D01*
X59513372Y-94967945D01*
X59670495Y-94983420D01*
X59690000Y-94985341D01*
X59886132Y-94966024D01*
X60074727Y-94908814D01*
X60248538Y-94815910D01*
X60400883Y-94690883D01*
X60525910Y-94538538D01*
X60618814Y-94364727D01*
X60676024Y-94176132D01*
X60695341Y-93980000D01*
X60685186Y-93876891D01*
X60677945Y-93803372D01*
X60677944Y-93803371D01*
X60676024Y-93783868D01*
X60649377Y-93696024D01*
X60624505Y-93614033D01*
X60624504Y-93614031D01*
X60618814Y-93595273D01*
X60609573Y-93577984D01*
X60535151Y-93438750D01*
X60535149Y-93438747D01*
X60525910Y-93421462D01*
X60503249Y-93393850D01*
X60413322Y-93284274D01*
X60400883Y-93269117D01*
X60374120Y-93247153D01*
X60263693Y-93156527D01*
X60263690Y-93156525D01*
X60248538Y-93144090D01*
X60231255Y-93134852D01*
X60231249Y-93134848D01*
X60092015Y-93060426D01*
X60092009Y-93060423D01*
X60074727Y-93051186D01*
X60055973Y-93045497D01*
X60055966Y-93045494D01*
X59904888Y-92999665D01*
X59904882Y-92999663D01*
X59886132Y-92993976D01*
X59866636Y-92992055D01*
X59866627Y-92992054D01*
X59709505Y-92976580D01*
X59690000Y-92974659D01*
X59670495Y-92976580D01*
X59513372Y-92992054D01*
X59513361Y-92992056D01*
X59493868Y-92993976D01*
X59475119Y-92999663D01*
X59475111Y-92999665D01*
X59324033Y-93045494D01*
X59324022Y-93045498D01*
X59305273Y-93051186D01*
X59287993Y-93060421D01*
X59287984Y-93060426D01*
X59148750Y-93134848D01*
X59148739Y-93134854D01*
X59131462Y-93144090D01*
X59116314Y-93156521D01*
X59116306Y-93156527D01*
X58994274Y-93256677D01*
X58994268Y-93256682D01*
X58979117Y-93269117D01*
X58966682Y-93284268D01*
X58966677Y-93284274D01*
X58866527Y-93406306D01*
X58866521Y-93406314D01*
X58854090Y-93421462D01*
X58844854Y-93438739D01*
X58844848Y-93438750D01*
X58770426Y-93577984D01*
X58770421Y-93577993D01*
X58761186Y-93595273D01*
X58755498Y-93614022D01*
X58755494Y-93614033D01*
X58709665Y-93765111D01*
X58709663Y-93765119D01*
X58703976Y-93783868D01*
X58702290Y-93800976D01*
X58663386Y-93909708D01*
X58611253Y-93980000D01*
X58013013Y-93980000D01*
X57979744Y-93943292D01*
X57929681Y-93837444D01*
X57912500Y-93721620D01*
X57912500Y-90174380D01*
X57929681Y-90058556D01*
X57979744Y-89952708D01*
X58013013Y-89916000D01*
X58611253Y-89916000D01*
X58663386Y-89986292D01*
X58702290Y-90095023D01*
X58703976Y-90112132D01*
X58709663Y-90130882D01*
X58709665Y-90130888D01*
X58755494Y-90281966D01*
X58755497Y-90281973D01*
X58761186Y-90300727D01*
X58770423Y-90318009D01*
X58770426Y-90318015D01*
X58844848Y-90457249D01*
X58844852Y-90457255D01*
X58854090Y-90474538D01*
X58866525Y-90489690D01*
X58866527Y-90489693D01*
X58966093Y-90611013D01*
X58979117Y-90626883D01*
X58994274Y-90639322D01*
X59050507Y-90685472D01*
X59131462Y-90751910D01*
X59148747Y-90761149D01*
X59148750Y-90761151D01*
X59202620Y-90789945D01*
X59305273Y-90844814D01*
X59324031Y-90850504D01*
X59324033Y-90850505D01*
X59336181Y-90854190D01*
X59493868Y-90902024D01*
X59513371Y-90903944D01*
X59513372Y-90903945D01*
X59670495Y-90919420D01*
X59690000Y-90921341D01*
X59886132Y-90902024D01*
X60074727Y-90844814D01*
X60248538Y-90751910D01*
X60400883Y-90626883D01*
X60525910Y-90474538D01*
X60618814Y-90300727D01*
X60676024Y-90112132D01*
X60695341Y-89916000D01*
X60691532Y-89877322D01*
X60677945Y-89739372D01*
X60677944Y-89739371D01*
X60676024Y-89719868D01*
X60637123Y-89591628D01*
X60624505Y-89550033D01*
X60624504Y-89550031D01*
X60618814Y-89531273D01*
X60591421Y-89480024D01*
X60535151Y-89374750D01*
X60535149Y-89374747D01*
X60525910Y-89357462D01*
X60495784Y-89320754D01*
X60413322Y-89220274D01*
X60400883Y-89205117D01*
X60366452Y-89176860D01*
X60263693Y-89092527D01*
X60263690Y-89092525D01*
X60248538Y-89080090D01*
X60231255Y-89070852D01*
X60231249Y-89070848D01*
X60092015Y-88996426D01*
X60092009Y-88996423D01*
X60074727Y-88987186D01*
X60055973Y-88981497D01*
X60055966Y-88981494D01*
X59904888Y-88935665D01*
X59904882Y-88935663D01*
X59886132Y-88929976D01*
X59866636Y-88928055D01*
X59866627Y-88928054D01*
X59709505Y-88912580D01*
X59690000Y-88910659D01*
X59670495Y-88912580D01*
X59513372Y-88928054D01*
X59513361Y-88928056D01*
X59493868Y-88929976D01*
X59475119Y-88935663D01*
X59475111Y-88935665D01*
X59324033Y-88981494D01*
X59324022Y-88981498D01*
X59305273Y-88987186D01*
X59287993Y-88996421D01*
X59287984Y-88996426D01*
X59148750Y-89070848D01*
X59148739Y-89070854D01*
X59131462Y-89080090D01*
X59116314Y-89092521D01*
X59116306Y-89092527D01*
X58994274Y-89192677D01*
X58994268Y-89192682D01*
X58979117Y-89205117D01*
X58966682Y-89220268D01*
X58966677Y-89220274D01*
X58866527Y-89342306D01*
X58866521Y-89342314D01*
X58854090Y-89357462D01*
X58844854Y-89374739D01*
X58844848Y-89374750D01*
X58770426Y-89513984D01*
X58770421Y-89513993D01*
X58761186Y-89531273D01*
X58755498Y-89550022D01*
X58755494Y-89550033D01*
X58709665Y-89701111D01*
X58709663Y-89701119D01*
X58703976Y-89719868D01*
X58702290Y-89736976D01*
X58663386Y-89845708D01*
X58611253Y-89916000D01*
X58013013Y-89916000D01*
X57979744Y-89879292D01*
X57929681Y-89773444D01*
X57912500Y-89657620D01*
X57912500Y-86110380D01*
X57929681Y-85994556D01*
X57979744Y-85888708D01*
X58013013Y-85852000D01*
X58611253Y-85852000D01*
X58663386Y-85922292D01*
X58702290Y-86031023D01*
X58703976Y-86048132D01*
X58709663Y-86066882D01*
X58709665Y-86066888D01*
X58755494Y-86217966D01*
X58755497Y-86217973D01*
X58761186Y-86236727D01*
X58770423Y-86254009D01*
X58770426Y-86254015D01*
X58844848Y-86393249D01*
X58844852Y-86393255D01*
X58854090Y-86410538D01*
X58866525Y-86425690D01*
X58866527Y-86425693D01*
X58913782Y-86483273D01*
X58979117Y-86562883D01*
X58994274Y-86575322D01*
X59089059Y-86653111D01*
X59131462Y-86687910D01*
X59148747Y-86697149D01*
X59148750Y-86697151D01*
X59283217Y-86769025D01*
X59305273Y-86780814D01*
X59324031Y-86786504D01*
X59324033Y-86786505D01*
X59359049Y-86797127D01*
X59493868Y-86838024D01*
X59513371Y-86839944D01*
X59513372Y-86839945D01*
X59670495Y-86855420D01*
X59690000Y-86857341D01*
X59886132Y-86838024D01*
X60074727Y-86780814D01*
X60248538Y-86687910D01*
X60400883Y-86562883D01*
X60525910Y-86410538D01*
X60618814Y-86236727D01*
X60676024Y-86048132D01*
X60689754Y-85908726D01*
X60693420Y-85871505D01*
X60695341Y-85852000D01*
X60690286Y-85800671D01*
X60677945Y-85675372D01*
X60677944Y-85675371D01*
X60676024Y-85655868D01*
X60635356Y-85521803D01*
X60624505Y-85486033D01*
X60624504Y-85486031D01*
X60618814Y-85467273D01*
X60581966Y-85398335D01*
X60535151Y-85310750D01*
X60535149Y-85310747D01*
X60525910Y-85293462D01*
X60400883Y-85141117D01*
X60324788Y-85078667D01*
X60263693Y-85028527D01*
X60263690Y-85028525D01*
X60248538Y-85016090D01*
X60231255Y-85006852D01*
X60231249Y-85006848D01*
X60092015Y-84932426D01*
X60092009Y-84932423D01*
X60074727Y-84923186D01*
X60055973Y-84917497D01*
X60055966Y-84917494D01*
X59904888Y-84871665D01*
X59904882Y-84871663D01*
X59886132Y-84865976D01*
X59866636Y-84864055D01*
X59866627Y-84864054D01*
X59709505Y-84848580D01*
X59690000Y-84846659D01*
X59670495Y-84848580D01*
X59513372Y-84864054D01*
X59513361Y-84864056D01*
X59493868Y-84865976D01*
X59475119Y-84871663D01*
X59475111Y-84871665D01*
X59324033Y-84917494D01*
X59324022Y-84917498D01*
X59305273Y-84923186D01*
X59287993Y-84932421D01*
X59287984Y-84932426D01*
X59148750Y-85006848D01*
X59148739Y-85006854D01*
X59131462Y-85016090D01*
X59116314Y-85028521D01*
X59116306Y-85028527D01*
X58994274Y-85128677D01*
X58994268Y-85128682D01*
X58979117Y-85141117D01*
X58966682Y-85156268D01*
X58966677Y-85156274D01*
X58866527Y-85278306D01*
X58866521Y-85278314D01*
X58854090Y-85293462D01*
X58844854Y-85310739D01*
X58844848Y-85310750D01*
X58770426Y-85449984D01*
X58770421Y-85449993D01*
X58761186Y-85467273D01*
X58755498Y-85486022D01*
X58755494Y-85486033D01*
X58709665Y-85637111D01*
X58709663Y-85637119D01*
X58703976Y-85655868D01*
X58702290Y-85672976D01*
X58663386Y-85781708D01*
X58611253Y-85852000D01*
X58013013Y-85852000D01*
X57979744Y-85815292D01*
X57929681Y-85709444D01*
X57912500Y-85593620D01*
X57912500Y-82046380D01*
X57929681Y-81930556D01*
X57979744Y-81824708D01*
X58013013Y-81788000D01*
X58611253Y-81788000D01*
X58663386Y-81858292D01*
X58702290Y-81967023D01*
X58703976Y-81984132D01*
X58709663Y-82002882D01*
X58709665Y-82002888D01*
X58755494Y-82153966D01*
X58755497Y-82153973D01*
X58761186Y-82172727D01*
X58770423Y-82190009D01*
X58770426Y-82190015D01*
X58844848Y-82329249D01*
X58844852Y-82329255D01*
X58854090Y-82346538D01*
X58866525Y-82361690D01*
X58866527Y-82361693D01*
X58960382Y-82476055D01*
X58979117Y-82498883D01*
X58994274Y-82511322D01*
X59110006Y-82606302D01*
X59131462Y-82623910D01*
X59148747Y-82633149D01*
X59148750Y-82633151D01*
X59287984Y-82707573D01*
X59305273Y-82716814D01*
X59324031Y-82722504D01*
X59324033Y-82722505D01*
X59424157Y-82752877D01*
X59493868Y-82774024D01*
X59513371Y-82775944D01*
X59513372Y-82775945D01*
X59670495Y-82791420D01*
X59690000Y-82793341D01*
X59886132Y-82774024D01*
X60074727Y-82716814D01*
X60248538Y-82623910D01*
X60400883Y-82498883D01*
X60525910Y-82346538D01*
X60618814Y-82172727D01*
X60676024Y-81984132D01*
X60695341Y-81788000D01*
X60686748Y-81700750D01*
X60677945Y-81611372D01*
X60677944Y-81611371D01*
X60676024Y-81591868D01*
X60618814Y-81403273D01*
X60600537Y-81369079D01*
X60535151Y-81246750D01*
X60535149Y-81246747D01*
X60525910Y-81229462D01*
X60461179Y-81150588D01*
X60419622Y-81099950D01*
X60400883Y-81077117D01*
X60383718Y-81063030D01*
X60263693Y-80964527D01*
X60263690Y-80964525D01*
X60248538Y-80952090D01*
X60231255Y-80942852D01*
X60231249Y-80942848D01*
X60092015Y-80868426D01*
X60092009Y-80868423D01*
X60074727Y-80859186D01*
X60055973Y-80853497D01*
X60055966Y-80853494D01*
X59904888Y-80807665D01*
X59904882Y-80807663D01*
X59886132Y-80801976D01*
X59866636Y-80800055D01*
X59866627Y-80800054D01*
X59709505Y-80784580D01*
X59690000Y-80782659D01*
X59670495Y-80784580D01*
X59513372Y-80800054D01*
X59513361Y-80800056D01*
X59493868Y-80801976D01*
X59475119Y-80807663D01*
X59475111Y-80807665D01*
X59324033Y-80853494D01*
X59324022Y-80853498D01*
X59305273Y-80859186D01*
X59287993Y-80868421D01*
X59287984Y-80868426D01*
X59148750Y-80942848D01*
X59148739Y-80942854D01*
X59131462Y-80952090D01*
X59116314Y-80964521D01*
X59116306Y-80964527D01*
X58994274Y-81064677D01*
X58994268Y-81064682D01*
X58979117Y-81077117D01*
X58966682Y-81092268D01*
X58966677Y-81092274D01*
X58866527Y-81214306D01*
X58866521Y-81214314D01*
X58854090Y-81229462D01*
X58844854Y-81246739D01*
X58844848Y-81246750D01*
X58770426Y-81385984D01*
X58770421Y-81385993D01*
X58761186Y-81403273D01*
X58755498Y-81422022D01*
X58755494Y-81422033D01*
X58709665Y-81573111D01*
X58709663Y-81573119D01*
X58703976Y-81591868D01*
X58702290Y-81608976D01*
X58663386Y-81717708D01*
X58611253Y-81788000D01*
X58013013Y-81788000D01*
X57979744Y-81751292D01*
X57929681Y-81645444D01*
X57912500Y-81529620D01*
X57912500Y-66080000D01*
X59779417Y-66080000D01*
X59781338Y-66099504D01*
X59797779Y-66266435D01*
X59797779Y-66266439D01*
X59799700Y-66285934D01*
X59859768Y-66483954D01*
X59892872Y-66545886D01*
X59948073Y-66649161D01*
X59948076Y-66649166D01*
X59957315Y-66666450D01*
X60088590Y-66826410D01*
X60161165Y-66885970D01*
X60241562Y-66975390D01*
X60291667Y-67084706D01*
X60306927Y-67203985D01*
X60285956Y-67322394D01*
X60230659Y-67429176D01*
X60146058Y-67514635D01*
X60075971Y-67551829D01*
X60076779Y-67553358D01*
X60050336Y-67567332D01*
X60022118Y-67577207D01*
X59998064Y-67594958D01*
X59998059Y-67594962D01*
X59936913Y-67640090D01*
X59936909Y-67640093D01*
X59912850Y-67657850D01*
X59895093Y-67681909D01*
X59895090Y-67681913D01*
X59849962Y-67743059D01*
X59849958Y-67743064D01*
X59832207Y-67767118D01*
X59822332Y-67795338D01*
X59822332Y-67795339D01*
X59795370Y-67872390D01*
X59795368Y-67872396D01*
X59787354Y-67895301D01*
X59784500Y-67925734D01*
X59784500Y-69234266D01*
X59787354Y-69264699D01*
X59795369Y-69287605D01*
X59795370Y-69287609D01*
X59809193Y-69327111D01*
X59832207Y-69392882D01*
X59849960Y-69416937D01*
X59849962Y-69416940D01*
X59876618Y-69453057D01*
X59912850Y-69502150D01*
X59936913Y-69519909D01*
X59993273Y-69561505D01*
X60022118Y-69582793D01*
X60150301Y-69627646D01*
X60180734Y-69630500D01*
X61729938Y-69630500D01*
X61739266Y-69630500D01*
X61769699Y-69627646D01*
X61897882Y-69582793D01*
X62007150Y-69502150D01*
X62079465Y-69404165D01*
X62168090Y-69316774D01*
X62279332Y-69260942D01*
X62402365Y-69242103D01*
X62525216Y-69262091D01*
X62635930Y-69318960D01*
X62723736Y-69407176D01*
X62780087Y-69518156D01*
X62799500Y-69641099D01*
X62799500Y-99102372D01*
X62800951Y-99114325D01*
X62800952Y-99114335D01*
X62811950Y-99204911D01*
X62811951Y-99204915D01*
X62814860Y-99228872D01*
X62875182Y-99387930D01*
X62971817Y-99527929D01*
X63061065Y-99606996D01*
X63131543Y-99689012D01*
X63177411Y-99786945D01*
X63195295Y-99893598D01*
X63183883Y-100001136D01*
X63144012Y-100101660D01*
X63078613Y-100187785D01*
X62520159Y-100746239D01*
X62502616Y-100762753D01*
X62481880Y-100781123D01*
X62481874Y-100781128D01*
X62463817Y-100797127D01*
X62450112Y-100816981D01*
X62450107Y-100816987D01*
X62434364Y-100839795D01*
X62420092Y-100859190D01*
X62403001Y-100881005D01*
X62402996Y-100881013D01*
X62388122Y-100899999D01*
X62379502Y-100919149D01*
X62379112Y-100919840D01*
X62367182Y-100937126D01*
X62358629Y-100959676D01*
X62358625Y-100959685D01*
X62348800Y-100985592D01*
X62339585Y-101007839D01*
X62328207Y-101033120D01*
X62328204Y-101033126D01*
X62318305Y-101055124D01*
X62314517Y-101075786D01*
X62314304Y-101076552D01*
X62306860Y-101096184D01*
X62303951Y-101120132D01*
X62303951Y-101120136D01*
X62300612Y-101147635D01*
X62296988Y-101171445D01*
X62292368Y-101196657D01*
X62287642Y-101222450D01*
X62289099Y-101246537D01*
X62289099Y-101246539D01*
X62290772Y-101274191D01*
X62291500Y-101298284D01*
X62291500Y-106138772D01*
X62290772Y-106162865D01*
X62289572Y-106182707D01*
X62287642Y-106214606D01*
X62291992Y-106238343D01*
X62291992Y-106238344D01*
X62296988Y-106265609D01*
X62300612Y-106289421D01*
X62306860Y-106340872D01*
X62314307Y-106360511D01*
X62314516Y-106361259D01*
X62318305Y-106381932D01*
X62328205Y-106403930D01*
X62328208Y-106403938D01*
X62339579Y-106429203D01*
X62348800Y-106451463D01*
X62358624Y-106477367D01*
X62358626Y-106477372D01*
X62367182Y-106499930D01*
X62379122Y-106517228D01*
X62379495Y-106517889D01*
X62388122Y-106537057D01*
X62403007Y-106556056D01*
X62403008Y-106556058D01*
X62420085Y-106577855D01*
X62434365Y-106597262D01*
X62450103Y-106620063D01*
X62450108Y-106620069D01*
X62463817Y-106639929D01*
X62502602Y-106674289D01*
X62520147Y-106690804D01*
X66029186Y-110199843D01*
X66045706Y-110217393D01*
X66080071Y-110256183D01*
X66122737Y-110285633D01*
X66142145Y-110299914D01*
X66182943Y-110331877D01*
X66202122Y-110340508D01*
X66202750Y-110340862D01*
X66220070Y-110352818D01*
X66242632Y-110361374D01*
X66242635Y-110361376D01*
X66268532Y-110371197D01*
X66290807Y-110380424D01*
X66316050Y-110391785D01*
X66316055Y-110391786D01*
X66338068Y-110401694D01*
X66358755Y-110405484D01*
X66359463Y-110405682D01*
X66379128Y-110413140D01*
X66424705Y-110418674D01*
X66430586Y-110419388D01*
X66454397Y-110423011D01*
X66505394Y-110432357D01*
X66557122Y-110429228D01*
X66581214Y-110428500D01*
X79214772Y-110428500D01*
X79238865Y-110429228D01*
X79290606Y-110432358D01*
X79341614Y-110423010D01*
X79365403Y-110419389D01*
X79416872Y-110413140D01*
X79436535Y-110405682D01*
X79437234Y-110405487D01*
X79457932Y-110401695D01*
X79505229Y-110380407D01*
X79527454Y-110371201D01*
X79575930Y-110352818D01*
X79593252Y-110340860D01*
X79593862Y-110340515D01*
X79613057Y-110331878D01*
X79653874Y-110299898D01*
X79673274Y-110285625D01*
X79715929Y-110256183D01*
X79750305Y-110217378D01*
X79766809Y-110199847D01*
X81796764Y-108169893D01*
X81796764Y-108169892D01*
X81805290Y-108161367D01*
X81883878Y-108061057D01*
X81953695Y-107905931D01*
X81984358Y-107738606D01*
X81974086Y-107568804D01*
X81923478Y-107406394D01*
X81835472Y-107260815D01*
X81715185Y-107140528D01*
X81659730Y-107107004D01*
X81590259Y-107065007D01*
X81590257Y-107065006D01*
X81569606Y-107052522D01*
X81541151Y-107043655D01*
X81430237Y-107009093D01*
X81430231Y-107009091D01*
X81407196Y-107001914D01*
X81383111Y-107000457D01*
X81383106Y-107000456D01*
X81261480Y-106993099D01*
X81237394Y-106991642D01*
X81213663Y-106995990D01*
X81213659Y-106995991D01*
X81093808Y-107017954D01*
X81093802Y-107017955D01*
X81070069Y-107022305D01*
X81048063Y-107032208D01*
X81048060Y-107032210D01*
X80936946Y-107082219D01*
X80914943Y-107092122D01*
X80895949Y-107107002D01*
X80895947Y-107107004D01*
X80824119Y-107163277D01*
X80824107Y-107163287D01*
X80814633Y-107170710D01*
X80806122Y-107179220D01*
X80806114Y-107179228D01*
X79074707Y-108910636D01*
X78992071Y-108974044D01*
X78895840Y-109013904D01*
X78792571Y-109027500D01*
X77803081Y-109027500D01*
X77689501Y-109010993D01*
X77585319Y-108962836D01*
X77499156Y-108887016D01*
X77438140Y-108789805D01*
X77407321Y-108679247D01*
X77409249Y-108564490D01*
X77443764Y-108455030D01*
X77508010Y-108359923D01*
X77581047Y-108299882D01*
X77581057Y-108299878D01*
X77621874Y-108267898D01*
X77641270Y-108253628D01*
X77683929Y-108224183D01*
X77718293Y-108185393D01*
X77734793Y-108167862D01*
X79211855Y-106690799D01*
X79229371Y-106674312D01*
X79268183Y-106639929D01*
X79297640Y-106597250D01*
X79311909Y-106577859D01*
X79343877Y-106537057D01*
X79352513Y-106517864D01*
X79352855Y-106517258D01*
X79364818Y-106499930D01*
X79383195Y-106451470D01*
X79392422Y-106429195D01*
X79403785Y-106403947D01*
X79413694Y-106381932D01*
X79417484Y-106361242D01*
X79417681Y-106360537D01*
X79425140Y-106340872D01*
X79431391Y-106289387D01*
X79435010Y-106265607D01*
X79444357Y-106214606D01*
X79441228Y-106162877D01*
X79440500Y-106138786D01*
X79440500Y-104508429D01*
X79457681Y-104392605D01*
X79507744Y-104286756D01*
X79586377Y-104199998D01*
X79686809Y-104139801D01*
X79800391Y-104111350D01*
X79917341Y-104117096D01*
X80027587Y-104156542D01*
X80121636Y-104226293D01*
X81523186Y-105627843D01*
X81539706Y-105645393D01*
X81574071Y-105684183D01*
X81616739Y-105713635D01*
X81636142Y-105727912D01*
X81676944Y-105759878D01*
X81696115Y-105768506D01*
X81696761Y-105768870D01*
X81714070Y-105780818D01*
X81736632Y-105789374D01*
X81736635Y-105789376D01*
X81762537Y-105799199D01*
X81784797Y-105808419D01*
X81832069Y-105829695D01*
X81852755Y-105833485D01*
X81853472Y-105833685D01*
X81873128Y-105841140D01*
X81924596Y-105847389D01*
X81948401Y-105851013D01*
X81975651Y-105856007D01*
X81975652Y-105856007D01*
X81999394Y-105860358D01*
X82051134Y-105857228D01*
X82075228Y-105856500D01*
X87071161Y-105856500D01*
X87177582Y-105870954D01*
X87276292Y-105913269D01*
X87360140Y-105980378D01*
X87400388Y-106036064D01*
X87403133Y-106034231D01*
X87447448Y-106100552D01*
X87513769Y-106144867D01*
X87572252Y-106156500D01*
X89192140Y-106156500D01*
X89211748Y-106156500D01*
X89270231Y-106144867D01*
X89336552Y-106100552D01*
X89380867Y-106034231D01*
X89392500Y-105975748D01*
X89392500Y-105956139D01*
X89394421Y-105936637D01*
X89397966Y-105936986D01*
X89411131Y-105851841D01*
X89465284Y-105742594D01*
X89549901Y-105654802D01*
X89657080Y-105596665D01*
X89776813Y-105573611D01*
X89897918Y-105587794D01*
X90009084Y-105637889D01*
X90099927Y-105719213D01*
X90221117Y-105866883D01*
X90236274Y-105879322D01*
X90357427Y-105978751D01*
X90373462Y-105991910D01*
X90390747Y-106001149D01*
X90390750Y-106001151D01*
X90529984Y-106075573D01*
X90547273Y-106084814D01*
X90566031Y-106090504D01*
X90566033Y-106090505D01*
X90594654Y-106099187D01*
X90735868Y-106142024D01*
X90755371Y-106143944D01*
X90755372Y-106143945D01*
X90912495Y-106159420D01*
X90932000Y-106161341D01*
X90981153Y-106156500D01*
X91057800Y-106148951D01*
X91128132Y-106142024D01*
X91316727Y-106084814D01*
X91490538Y-105991910D01*
X91642883Y-105866883D01*
X91767910Y-105714538D01*
X91850113Y-105560746D01*
X91923849Y-105462769D01*
X92023856Y-105391811D01*
X92140688Y-105354573D01*
X92263312Y-105354573D01*
X92380144Y-105391811D01*
X92480151Y-105462769D01*
X92553887Y-105560747D01*
X92626848Y-105697249D01*
X92626852Y-105697255D01*
X92636090Y-105714538D01*
X92648525Y-105729690D01*
X92648527Y-105729693D01*
X92748093Y-105851013D01*
X92761117Y-105866883D01*
X92776274Y-105879322D01*
X92897427Y-105978751D01*
X92913462Y-105991910D01*
X92930747Y-106001149D01*
X92930750Y-106001151D01*
X93069984Y-106075573D01*
X93087273Y-106084814D01*
X93106031Y-106090504D01*
X93106033Y-106090505D01*
X93134654Y-106099187D01*
X93275868Y-106142024D01*
X93295371Y-106143944D01*
X93295372Y-106143945D01*
X93452495Y-106159420D01*
X93472000Y-106161341D01*
X93521153Y-106156500D01*
X93597800Y-106148951D01*
X93668132Y-106142024D01*
X93856727Y-106084814D01*
X94030538Y-105991910D01*
X94182883Y-105866883D01*
X94307910Y-105714538D01*
X94390113Y-105560746D01*
X94463849Y-105462769D01*
X94563856Y-105391811D01*
X94680688Y-105354573D01*
X94803312Y-105354573D01*
X94920144Y-105391811D01*
X95020151Y-105462769D01*
X95093887Y-105560747D01*
X95166848Y-105697249D01*
X95166852Y-105697255D01*
X95176090Y-105714538D01*
X95188525Y-105729690D01*
X95188527Y-105729693D01*
X95288093Y-105851013D01*
X95301117Y-105866883D01*
X95316274Y-105879322D01*
X95437427Y-105978751D01*
X95453462Y-105991910D01*
X95470747Y-106001149D01*
X95470750Y-106001151D01*
X95609984Y-106075573D01*
X95627273Y-106084814D01*
X95646031Y-106090504D01*
X95646033Y-106090505D01*
X95674654Y-106099187D01*
X95815868Y-106142024D01*
X95835371Y-106143944D01*
X95835372Y-106143945D01*
X95992495Y-106159420D01*
X96012000Y-106161341D01*
X96061153Y-106156500D01*
X96137800Y-106148951D01*
X96208132Y-106142024D01*
X96396727Y-106084814D01*
X96570538Y-105991910D01*
X96722883Y-105866883D01*
X96847910Y-105714538D01*
X96930113Y-105560746D01*
X97003849Y-105462769D01*
X97103856Y-105391811D01*
X97220688Y-105354573D01*
X97343312Y-105354573D01*
X97460144Y-105391811D01*
X97560151Y-105462769D01*
X97633887Y-105560747D01*
X97706848Y-105697249D01*
X97706852Y-105697255D01*
X97716090Y-105714538D01*
X97728525Y-105729690D01*
X97728527Y-105729693D01*
X97828093Y-105851013D01*
X97841117Y-105866883D01*
X97856274Y-105879322D01*
X97977427Y-105978751D01*
X97993462Y-105991910D01*
X98010747Y-106001149D01*
X98010750Y-106001151D01*
X98149984Y-106075573D01*
X98167273Y-106084814D01*
X98186031Y-106090504D01*
X98186033Y-106090505D01*
X98214654Y-106099187D01*
X98355868Y-106142024D01*
X98426207Y-106148951D01*
X98515352Y-106168204D01*
X98597799Y-106207197D01*
X98669237Y-106263894D01*
X101589186Y-109183843D01*
X101605706Y-109201393D01*
X101640071Y-109240183D01*
X101682737Y-109269633D01*
X101702145Y-109283914D01*
X101742943Y-109315877D01*
X101762122Y-109324508D01*
X101762750Y-109324862D01*
X101780070Y-109336818D01*
X101802632Y-109345374D01*
X101802635Y-109345376D01*
X101828532Y-109355197D01*
X101850807Y-109364424D01*
X101876050Y-109375785D01*
X101876055Y-109375786D01*
X101898068Y-109385694D01*
X101918755Y-109389484D01*
X101919463Y-109389682D01*
X101939128Y-109397140D01*
X101981494Y-109402284D01*
X101990586Y-109403388D01*
X102014397Y-109407011D01*
X102065394Y-109416357D01*
X102117122Y-109413228D01*
X102141214Y-109412500D01*
X108264922Y-109412500D01*
X108289056Y-109412500D01*
X108312494Y-109406722D01*
X108318040Y-109406049D01*
X108343473Y-109401388D01*
X108348901Y-109400050D01*
X108372872Y-109397140D01*
X108395448Y-109388577D01*
X108400880Y-109387239D01*
X108425558Y-109379550D01*
X108430788Y-109377566D01*
X108454225Y-109371790D01*
X108475599Y-109360571D01*
X108480832Y-109358587D01*
X108504395Y-109347982D01*
X108509351Y-109345380D01*
X108531930Y-109336818D01*
X108551802Y-109323100D01*
X108556761Y-109320498D01*
X108578861Y-109307138D01*
X108583475Y-109303952D01*
X108604852Y-109292734D01*
X108622920Y-109276726D01*
X108627527Y-109273547D01*
X108647871Y-109257607D01*
X108652051Y-109253903D01*
X108671929Y-109240183D01*
X108687944Y-109222104D01*
X108692127Y-109218399D01*
X108710399Y-109200127D01*
X108714104Y-109195944D01*
X108732183Y-109179929D01*
X108745903Y-109160051D01*
X108749607Y-109155871D01*
X108765547Y-109135527D01*
X108768726Y-109130920D01*
X108784734Y-109112852D01*
X108795952Y-109091475D01*
X108799138Y-109086861D01*
X108812498Y-109064761D01*
X108815100Y-109059802D01*
X108828818Y-109039930D01*
X108837380Y-109017351D01*
X108839982Y-109012395D01*
X108850587Y-108988832D01*
X108852571Y-108983599D01*
X108863790Y-108962225D01*
X108869566Y-108938788D01*
X108871550Y-108933558D01*
X108879239Y-108908880D01*
X108880577Y-108903448D01*
X108889140Y-108880872D01*
X108892050Y-108856901D01*
X108893388Y-108851473D01*
X108898049Y-108826040D01*
X108898722Y-108820494D01*
X108904500Y-108797056D01*
X108904500Y-108626944D01*
X108904500Y-101656429D01*
X108918096Y-101553160D01*
X108957956Y-101456929D01*
X109021364Y-101374294D01*
X109972048Y-100423609D01*
X110289504Y-100106152D01*
X110383550Y-100036403D01*
X110493796Y-99996956D01*
X110610745Y-99991210D01*
X110724327Y-100019660D01*
X110824759Y-100079856D01*
X110903393Y-100166614D01*
X110953456Y-100272463D01*
X110988493Y-100387961D01*
X110994186Y-100406727D01*
X111003423Y-100424009D01*
X111003426Y-100424015D01*
X111077848Y-100563249D01*
X111077852Y-100563255D01*
X111087090Y-100580538D01*
X111099525Y-100595690D01*
X111099527Y-100595693D01*
X111177505Y-100690708D01*
X111212117Y-100732883D01*
X111258988Y-100771349D01*
X111333235Y-100832283D01*
X111364462Y-100857910D01*
X111381747Y-100867149D01*
X111381750Y-100867151D01*
X111518434Y-100940210D01*
X111538273Y-100950814D01*
X111557031Y-100956504D01*
X111557033Y-100956505D01*
X111617538Y-100974859D01*
X111726868Y-101008024D01*
X111746371Y-101009944D01*
X111746372Y-101009945D01*
X111903495Y-101025420D01*
X111923000Y-101027341D01*
X112119132Y-101008024D01*
X112307727Y-100950814D01*
X112481538Y-100857910D01*
X112633883Y-100732883D01*
X112758910Y-100580538D01*
X112851814Y-100406727D01*
X112909024Y-100218132D01*
X112915952Y-100147788D01*
X112935206Y-100058643D01*
X112974199Y-99976197D01*
X113030891Y-99904764D01*
X114771863Y-98163792D01*
X114789404Y-98147283D01*
X114810114Y-98128936D01*
X114828183Y-98112929D01*
X114857636Y-98070257D01*
X114871903Y-98050868D01*
X114903878Y-98010056D01*
X114912511Y-97990872D01*
X114912863Y-97990247D01*
X114924818Y-97972930D01*
X114943199Y-97924459D01*
X114952414Y-97902211D01*
X114973695Y-97854931D01*
X114977487Y-97834232D01*
X114977681Y-97833536D01*
X114985140Y-97813872D01*
X114991388Y-97762408D01*
X114995005Y-97738636D01*
X115004358Y-97687606D01*
X115001228Y-97635865D01*
X115000500Y-97611772D01*
X115000500Y-72485913D01*
X125929419Y-72485913D01*
X125932220Y-72511482D01*
X125932225Y-72511504D01*
X125944092Y-72544106D01*
X126025503Y-72718693D01*
X126042861Y-72748757D01*
X126153340Y-72906538D01*
X126175658Y-72933136D01*
X126311863Y-73069341D01*
X126338454Y-73091653D01*
X126507800Y-73210230D01*
X126595931Y-73294751D01*
X126654373Y-73401968D01*
X126677652Y-73521839D01*
X126663587Y-73643137D01*
X126613496Y-73754501D01*
X126532070Y-73845500D01*
X126467273Y-73898678D01*
X126467268Y-73898682D01*
X126452117Y-73911117D01*
X126439682Y-73926268D01*
X126439677Y-73926274D01*
X126339527Y-74048306D01*
X126339521Y-74048314D01*
X126327090Y-74063462D01*
X126317854Y-74080739D01*
X126317848Y-74080750D01*
X126243426Y-74219984D01*
X126243421Y-74219993D01*
X126234186Y-74237273D01*
X126228498Y-74256022D01*
X126228494Y-74256033D01*
X126182665Y-74407111D01*
X126182663Y-74407119D01*
X126176976Y-74425868D01*
X126175056Y-74445361D01*
X126175054Y-74445372D01*
X126161783Y-74580123D01*
X126157659Y-74622000D01*
X126159580Y-74641505D01*
X126175054Y-74798627D01*
X126175055Y-74798636D01*
X126176976Y-74818132D01*
X126182663Y-74836882D01*
X126182665Y-74836888D01*
X126228494Y-74987966D01*
X126228497Y-74987973D01*
X126234186Y-75006727D01*
X126243423Y-75024009D01*
X126243426Y-75024015D01*
X126317848Y-75163249D01*
X126317852Y-75163255D01*
X126327090Y-75180538D01*
X126452117Y-75332883D01*
X126604462Y-75457910D01*
X126621752Y-75467151D01*
X126621754Y-75467153D01*
X126758253Y-75540114D01*
X126856230Y-75613850D01*
X126927189Y-75713856D01*
X126964426Y-75830688D01*
X126964426Y-75953312D01*
X126927189Y-76070144D01*
X126856230Y-76170150D01*
X126758253Y-76243886D01*
X126621754Y-76316846D01*
X126621744Y-76316852D01*
X126604462Y-76326090D01*
X126589314Y-76338521D01*
X126589306Y-76338527D01*
X126467274Y-76438677D01*
X126467268Y-76438682D01*
X126452117Y-76451117D01*
X126439682Y-76466268D01*
X126439677Y-76466274D01*
X126339527Y-76588306D01*
X126339521Y-76588314D01*
X126327090Y-76603462D01*
X126317854Y-76620739D01*
X126317848Y-76620750D01*
X126243426Y-76759984D01*
X126243421Y-76759993D01*
X126234186Y-76777273D01*
X126228498Y-76796022D01*
X126228494Y-76796033D01*
X126182665Y-76947111D01*
X126182663Y-76947119D01*
X126176976Y-76965868D01*
X126175056Y-76985361D01*
X126175054Y-76985372D01*
X126167689Y-77060159D01*
X126157659Y-77162000D01*
X126159580Y-77181505D01*
X126175054Y-77338627D01*
X126175055Y-77338636D01*
X126176976Y-77358132D01*
X126182663Y-77376882D01*
X126182665Y-77376888D01*
X126228494Y-77527966D01*
X126228497Y-77527973D01*
X126234186Y-77546727D01*
X126243423Y-77564009D01*
X126243426Y-77564015D01*
X126317848Y-77703249D01*
X126317852Y-77703255D01*
X126327090Y-77720538D01*
X126339525Y-77735690D01*
X126339527Y-77735693D01*
X126438882Y-77856756D01*
X126452117Y-77872883D01*
X126467274Y-77885322D01*
X126584801Y-77981775D01*
X126604462Y-77997910D01*
X126621752Y-78007151D01*
X126621754Y-78007153D01*
X126758253Y-78080114D01*
X126856230Y-78153850D01*
X126927189Y-78253856D01*
X126964426Y-78370688D01*
X126964426Y-78493312D01*
X126927189Y-78610144D01*
X126856230Y-78710150D01*
X126758253Y-78783886D01*
X126621754Y-78856846D01*
X126621744Y-78856852D01*
X126604462Y-78866090D01*
X126589314Y-78878521D01*
X126589306Y-78878527D01*
X126467274Y-78978677D01*
X126467268Y-78978682D01*
X126452117Y-78991117D01*
X126439682Y-79006268D01*
X126439677Y-79006274D01*
X126339527Y-79128306D01*
X126339521Y-79128314D01*
X126327090Y-79143462D01*
X126317854Y-79160739D01*
X126317848Y-79160750D01*
X126243426Y-79299984D01*
X126243421Y-79299993D01*
X126234186Y-79317273D01*
X126228498Y-79336022D01*
X126228494Y-79336033D01*
X126182665Y-79487111D01*
X126182663Y-79487119D01*
X126176976Y-79505868D01*
X126175056Y-79525361D01*
X126175054Y-79525372D01*
X126163026Y-79647509D01*
X126157659Y-79702000D01*
X126159580Y-79721505D01*
X126175054Y-79878627D01*
X126175055Y-79878636D01*
X126176976Y-79898132D01*
X126182663Y-79916882D01*
X126182665Y-79916888D01*
X126228494Y-80067966D01*
X126228497Y-80067973D01*
X126234186Y-80086727D01*
X126243423Y-80104009D01*
X126243426Y-80104015D01*
X126317848Y-80243249D01*
X126317852Y-80243255D01*
X126327090Y-80260538D01*
X126339525Y-80275690D01*
X126339527Y-80275693D01*
X126429641Y-80385496D01*
X126452117Y-80412883D01*
X126467274Y-80425322D01*
X126580201Y-80518000D01*
X126604462Y-80537910D01*
X126621752Y-80547151D01*
X126621754Y-80547153D01*
X126758253Y-80620114D01*
X126856230Y-80693850D01*
X126927189Y-80793856D01*
X126964426Y-80910688D01*
X126964426Y-81033312D01*
X126927189Y-81150144D01*
X126856230Y-81250150D01*
X126758253Y-81323886D01*
X126621754Y-81396846D01*
X126621744Y-81396852D01*
X126604462Y-81406090D01*
X126589314Y-81418521D01*
X126589306Y-81418527D01*
X126467274Y-81518677D01*
X126467268Y-81518682D01*
X126452117Y-81531117D01*
X126439682Y-81546268D01*
X126439677Y-81546274D01*
X126339527Y-81668306D01*
X126339521Y-81668314D01*
X126327090Y-81683462D01*
X126317854Y-81700739D01*
X126317848Y-81700750D01*
X126243426Y-81839984D01*
X126243421Y-81839993D01*
X126234186Y-81857273D01*
X126228498Y-81876022D01*
X126228494Y-81876033D01*
X126182665Y-82027111D01*
X126182663Y-82027119D01*
X126176976Y-82045868D01*
X126175056Y-82065361D01*
X126175054Y-82065372D01*
X126162779Y-82190015D01*
X126157659Y-82242000D01*
X126159580Y-82261505D01*
X126175054Y-82418627D01*
X126175055Y-82418636D01*
X126176976Y-82438132D01*
X126182663Y-82456882D01*
X126182665Y-82456888D01*
X126228494Y-82607966D01*
X126228497Y-82607973D01*
X126234186Y-82626727D01*
X126243423Y-82644009D01*
X126243426Y-82644015D01*
X126317848Y-82783249D01*
X126317852Y-82783255D01*
X126327090Y-82800538D01*
X126339525Y-82815690D01*
X126339527Y-82815693D01*
X126414733Y-82907331D01*
X126452117Y-82952883D01*
X126604462Y-83077910D01*
X126621752Y-83087151D01*
X126621754Y-83087153D01*
X126758253Y-83160114D01*
X126856230Y-83233850D01*
X126927189Y-83333856D01*
X126964426Y-83450688D01*
X126964426Y-83573312D01*
X126927189Y-83690144D01*
X126856230Y-83790150D01*
X126758253Y-83863886D01*
X126621754Y-83936846D01*
X126621744Y-83936852D01*
X126604462Y-83946090D01*
X126589314Y-83958521D01*
X126589306Y-83958527D01*
X126467274Y-84058677D01*
X126467268Y-84058682D01*
X126452117Y-84071117D01*
X126439682Y-84086268D01*
X126439677Y-84086274D01*
X126339527Y-84208306D01*
X126339521Y-84208314D01*
X126327090Y-84223462D01*
X126317854Y-84240739D01*
X126317848Y-84240750D01*
X126243426Y-84379984D01*
X126243421Y-84379993D01*
X126234186Y-84397273D01*
X126228498Y-84416022D01*
X126228494Y-84416033D01*
X126182665Y-84567111D01*
X126182663Y-84567119D01*
X126176976Y-84585868D01*
X126175056Y-84605361D01*
X126175054Y-84605372D01*
X126163370Y-84724011D01*
X126157659Y-84782000D01*
X126159580Y-84801505D01*
X126175054Y-84958627D01*
X126175055Y-84958636D01*
X126176976Y-84978132D01*
X126182663Y-84996882D01*
X126182665Y-84996888D01*
X126228494Y-85147966D01*
X126228497Y-85147973D01*
X126234186Y-85166727D01*
X126243423Y-85184009D01*
X126243426Y-85184015D01*
X126317848Y-85323249D01*
X126317852Y-85323255D01*
X126327090Y-85340538D01*
X126339525Y-85355690D01*
X126339527Y-85355693D01*
X126422219Y-85456452D01*
X126452117Y-85492883D01*
X126467274Y-85505322D01*
X126581863Y-85599364D01*
X126604462Y-85617910D01*
X126621752Y-85627151D01*
X126621754Y-85627153D01*
X126758253Y-85700114D01*
X126856230Y-85773850D01*
X126927189Y-85873856D01*
X126964426Y-85990688D01*
X126964426Y-86113312D01*
X126927189Y-86230144D01*
X126856230Y-86330150D01*
X126758253Y-86403886D01*
X126621754Y-86476846D01*
X126621744Y-86476852D01*
X126604462Y-86486090D01*
X126589314Y-86498521D01*
X126589306Y-86498527D01*
X126467274Y-86598677D01*
X126467268Y-86598682D01*
X126452117Y-86611117D01*
X126439682Y-86626268D01*
X126439677Y-86626274D01*
X126339527Y-86748306D01*
X126339521Y-86748314D01*
X126327090Y-86763462D01*
X126317854Y-86780739D01*
X126317848Y-86780750D01*
X126243426Y-86919984D01*
X126243421Y-86919993D01*
X126234186Y-86937273D01*
X126228498Y-86956022D01*
X126228494Y-86956033D01*
X126182665Y-87107111D01*
X126182663Y-87107119D01*
X126176976Y-87125868D01*
X126175056Y-87145361D01*
X126175054Y-87145372D01*
X126161729Y-87280671D01*
X126157659Y-87322000D01*
X126159580Y-87341505D01*
X126175054Y-87498627D01*
X126175055Y-87498636D01*
X126176976Y-87518132D01*
X126182663Y-87536882D01*
X126182665Y-87536888D01*
X126228494Y-87687966D01*
X126228497Y-87687973D01*
X126234186Y-87706727D01*
X126243423Y-87724009D01*
X126243426Y-87724015D01*
X126317848Y-87863249D01*
X126317852Y-87863255D01*
X126327090Y-87880538D01*
X126339525Y-87895690D01*
X126339527Y-87895693D01*
X126416482Y-87989462D01*
X126452117Y-88032883D01*
X126467274Y-88045322D01*
X126581863Y-88139364D01*
X126604462Y-88157910D01*
X126621752Y-88167151D01*
X126621754Y-88167153D01*
X126758253Y-88240114D01*
X126856230Y-88313850D01*
X126927189Y-88413856D01*
X126964426Y-88530688D01*
X126964426Y-88653312D01*
X126927189Y-88770144D01*
X126856230Y-88870150D01*
X126758253Y-88943886D01*
X126621754Y-89016846D01*
X126621744Y-89016852D01*
X126604462Y-89026090D01*
X126589314Y-89038521D01*
X126589306Y-89038527D01*
X126467274Y-89138677D01*
X126467268Y-89138682D01*
X126452117Y-89151117D01*
X126439682Y-89166268D01*
X126439677Y-89166274D01*
X126339527Y-89288306D01*
X126339521Y-89288314D01*
X126327090Y-89303462D01*
X126317854Y-89320739D01*
X126317848Y-89320750D01*
X126243426Y-89459984D01*
X126243421Y-89459993D01*
X126234186Y-89477273D01*
X126228498Y-89496022D01*
X126228494Y-89496033D01*
X126182665Y-89647111D01*
X126182663Y-89647119D01*
X126176976Y-89665868D01*
X126175056Y-89685361D01*
X126175054Y-89685372D01*
X126160570Y-89832444D01*
X126157659Y-89862000D01*
X126159580Y-89881505D01*
X126175054Y-90038627D01*
X126175055Y-90038636D01*
X126176976Y-90058132D01*
X126182663Y-90076882D01*
X126182665Y-90076888D01*
X126228494Y-90227966D01*
X126228497Y-90227973D01*
X126234186Y-90246727D01*
X126243423Y-90264009D01*
X126243426Y-90264015D01*
X126317848Y-90403249D01*
X126317852Y-90403255D01*
X126327090Y-90420538D01*
X126339525Y-90435690D01*
X126339527Y-90435693D01*
X126425802Y-90540818D01*
X126452117Y-90572883D01*
X126467274Y-90585322D01*
X126584054Y-90681162D01*
X126604462Y-90697910D01*
X126621752Y-90707151D01*
X126621754Y-90707153D01*
X126758253Y-90780114D01*
X126856230Y-90853850D01*
X126927189Y-90953856D01*
X126964426Y-91070688D01*
X126964426Y-91193312D01*
X126927189Y-91310144D01*
X126856230Y-91410150D01*
X126758253Y-91483886D01*
X126621754Y-91556846D01*
X126621744Y-91556852D01*
X126604462Y-91566090D01*
X126589314Y-91578521D01*
X126589306Y-91578527D01*
X126467274Y-91678677D01*
X126467268Y-91678682D01*
X126452117Y-91691117D01*
X126439682Y-91706268D01*
X126439677Y-91706274D01*
X126339527Y-91828306D01*
X126339521Y-91828314D01*
X126327090Y-91843462D01*
X126317854Y-91860739D01*
X126317848Y-91860750D01*
X126243426Y-91999984D01*
X126243421Y-91999993D01*
X126234186Y-92017273D01*
X126228498Y-92036022D01*
X126228494Y-92036033D01*
X126182665Y-92187111D01*
X126182663Y-92187119D01*
X126176976Y-92205868D01*
X126175056Y-92225361D01*
X126175054Y-92225372D01*
X126163370Y-92344011D01*
X126157659Y-92402000D01*
X126159580Y-92421505D01*
X126175054Y-92578627D01*
X126175055Y-92578636D01*
X126176976Y-92598132D01*
X126182663Y-92616882D01*
X126182665Y-92616888D01*
X126228494Y-92767966D01*
X126228497Y-92767973D01*
X126234186Y-92786727D01*
X126243423Y-92804009D01*
X126243426Y-92804015D01*
X126317848Y-92943249D01*
X126317852Y-92943255D01*
X126327090Y-92960538D01*
X126339525Y-92975690D01*
X126339527Y-92975693D01*
X126396812Y-93045494D01*
X126452117Y-93112883D01*
X126467274Y-93125322D01*
X126581863Y-93219364D01*
X126604462Y-93237910D01*
X126621752Y-93247151D01*
X126621754Y-93247153D01*
X126758253Y-93320114D01*
X126856230Y-93393850D01*
X126927189Y-93493856D01*
X126964426Y-93610688D01*
X126964426Y-93733312D01*
X126927189Y-93850144D01*
X126856230Y-93950150D01*
X126758253Y-94023886D01*
X126621754Y-94096846D01*
X126621744Y-94096852D01*
X126604462Y-94106090D01*
X126589314Y-94118521D01*
X126589306Y-94118527D01*
X126467274Y-94218677D01*
X126467268Y-94218682D01*
X126452117Y-94231117D01*
X126439682Y-94246268D01*
X126439677Y-94246274D01*
X126339527Y-94368306D01*
X126339521Y-94368314D01*
X126327090Y-94383462D01*
X126317854Y-94400739D01*
X126317848Y-94400750D01*
X126243426Y-94539984D01*
X126243421Y-94539993D01*
X126234186Y-94557273D01*
X126228498Y-94576022D01*
X126228494Y-94576033D01*
X126182665Y-94727111D01*
X126182663Y-94727119D01*
X126176976Y-94745868D01*
X126175056Y-94765361D01*
X126175054Y-94765372D01*
X126161268Y-94905355D01*
X126157659Y-94942000D01*
X126159580Y-94961505D01*
X126175054Y-95118627D01*
X126175055Y-95118636D01*
X126176976Y-95138132D01*
X126182663Y-95156882D01*
X126182665Y-95156888D01*
X126228494Y-95307966D01*
X126228497Y-95307973D01*
X126234186Y-95326727D01*
X126243423Y-95344009D01*
X126243426Y-95344015D01*
X126317848Y-95483249D01*
X126317852Y-95483255D01*
X126327090Y-95500538D01*
X126339525Y-95515690D01*
X126339527Y-95515693D01*
X126439677Y-95637725D01*
X126452117Y-95652883D01*
X126604462Y-95777910D01*
X126621752Y-95787151D01*
X126621754Y-95787153D01*
X126758253Y-95860114D01*
X126856230Y-95933850D01*
X126927189Y-96033856D01*
X126964426Y-96150688D01*
X126964426Y-96273312D01*
X126927189Y-96390144D01*
X126856230Y-96490150D01*
X126758253Y-96563886D01*
X126621754Y-96636846D01*
X126621744Y-96636852D01*
X126604462Y-96646090D01*
X126589314Y-96658521D01*
X126589306Y-96658527D01*
X126467274Y-96758677D01*
X126467268Y-96758682D01*
X126452117Y-96771117D01*
X126439682Y-96786268D01*
X126439677Y-96786274D01*
X126339527Y-96908306D01*
X126339521Y-96908314D01*
X126327090Y-96923462D01*
X126317854Y-96940739D01*
X126317848Y-96940750D01*
X126243426Y-97079984D01*
X126243421Y-97079993D01*
X126234186Y-97097273D01*
X126228498Y-97116022D01*
X126228494Y-97116033D01*
X126182665Y-97267111D01*
X126182663Y-97267119D01*
X126176976Y-97285868D01*
X126175056Y-97305361D01*
X126175054Y-97305372D01*
X126160570Y-97452444D01*
X126157659Y-97482000D01*
X126159580Y-97501505D01*
X126175054Y-97658627D01*
X126175055Y-97658636D01*
X126176976Y-97678132D01*
X126182663Y-97696882D01*
X126182665Y-97696888D01*
X126228494Y-97847966D01*
X126228497Y-97847973D01*
X126234186Y-97866727D01*
X126243423Y-97884009D01*
X126243426Y-97884015D01*
X126317848Y-98023249D01*
X126317852Y-98023255D01*
X126327090Y-98040538D01*
X126339525Y-98055690D01*
X126339527Y-98055693D01*
X126399637Y-98128936D01*
X126452117Y-98192883D01*
X126467274Y-98205322D01*
X126585538Y-98302380D01*
X126604462Y-98317910D01*
X126621752Y-98327151D01*
X126621754Y-98327153D01*
X126758253Y-98400114D01*
X126856230Y-98473850D01*
X126927189Y-98573856D01*
X126964426Y-98690688D01*
X126964426Y-98813312D01*
X126927189Y-98930144D01*
X126856230Y-99030150D01*
X126758253Y-99103886D01*
X126621754Y-99176846D01*
X126621744Y-99176852D01*
X126604462Y-99186090D01*
X126589314Y-99198521D01*
X126589306Y-99198527D01*
X126467274Y-99298677D01*
X126467268Y-99298682D01*
X126452117Y-99311117D01*
X126439682Y-99326268D01*
X126439677Y-99326274D01*
X126339527Y-99448306D01*
X126339521Y-99448314D01*
X126327090Y-99463462D01*
X126317854Y-99480739D01*
X126317848Y-99480750D01*
X126243426Y-99619984D01*
X126243421Y-99619993D01*
X126234186Y-99637273D01*
X126228498Y-99656022D01*
X126228494Y-99656033D01*
X126182665Y-99807111D01*
X126182663Y-99807119D01*
X126176976Y-99825868D01*
X126175056Y-99845361D01*
X126175054Y-99845372D01*
X126159714Y-100001136D01*
X126157659Y-100022000D01*
X126159580Y-100041505D01*
X126175054Y-100198627D01*
X126175055Y-100198636D01*
X126176976Y-100218132D01*
X126182663Y-100236882D01*
X126182665Y-100236888D01*
X126228494Y-100387966D01*
X126228497Y-100387973D01*
X126234186Y-100406727D01*
X126243423Y-100424009D01*
X126243426Y-100424015D01*
X126317848Y-100563249D01*
X126317852Y-100563255D01*
X126327090Y-100580538D01*
X126339525Y-100595690D01*
X126339527Y-100595693D01*
X126417505Y-100690708D01*
X126452117Y-100732883D01*
X126498988Y-100771349D01*
X126573235Y-100832283D01*
X126604462Y-100857910D01*
X126621747Y-100867149D01*
X126621750Y-100867151D01*
X126758434Y-100940210D01*
X126778273Y-100950814D01*
X126797031Y-100956504D01*
X126797033Y-100956505D01*
X126857538Y-100974859D01*
X126966868Y-101008024D01*
X126986371Y-101009944D01*
X126986372Y-101009945D01*
X127143495Y-101025420D01*
X127163000Y-101027341D01*
X127359132Y-101008024D01*
X127547727Y-100950814D01*
X127721538Y-100857910D01*
X127873883Y-100732883D01*
X127998910Y-100580538D01*
X128091814Y-100406727D01*
X128149024Y-100218132D01*
X128164732Y-100058643D01*
X128166420Y-100041505D01*
X128168341Y-100022000D01*
X128165874Y-99996956D01*
X128150945Y-99845372D01*
X128150944Y-99845371D01*
X128149024Y-99825868D01*
X128107509Y-99689012D01*
X128097505Y-99656033D01*
X128097504Y-99656031D01*
X128091814Y-99637273D01*
X128082573Y-99619984D01*
X128008151Y-99480750D01*
X128008149Y-99480747D01*
X127998910Y-99463462D01*
X127873883Y-99311117D01*
X127801168Y-99251441D01*
X127736693Y-99198527D01*
X127736690Y-99198525D01*
X127721538Y-99186090D01*
X127704255Y-99176852D01*
X127704249Y-99176848D01*
X127567747Y-99103887D01*
X127469769Y-99030151D01*
X127398811Y-98930144D01*
X127361573Y-98813312D01*
X127361573Y-98690688D01*
X127398811Y-98573856D01*
X127469769Y-98473849D01*
X127567747Y-98400113D01*
X127592025Y-98387136D01*
X127721538Y-98317910D01*
X127873883Y-98192883D01*
X127998910Y-98040538D01*
X128091814Y-97866727D01*
X128149024Y-97678132D01*
X128168341Y-97482000D01*
X128155113Y-97347693D01*
X128150945Y-97305372D01*
X128150944Y-97305371D01*
X128149024Y-97285868D01*
X128104765Y-97139966D01*
X128097505Y-97116033D01*
X128097504Y-97116031D01*
X128091814Y-97097273D01*
X128053035Y-97024723D01*
X128008151Y-96940750D01*
X128008149Y-96940747D01*
X127998910Y-96923462D01*
X127873883Y-96771117D01*
X127838226Y-96741854D01*
X127736693Y-96658527D01*
X127736690Y-96658525D01*
X127721538Y-96646090D01*
X127704255Y-96636852D01*
X127704249Y-96636848D01*
X127567747Y-96563887D01*
X127469769Y-96490151D01*
X127398811Y-96390144D01*
X127361573Y-96273312D01*
X127361573Y-96150688D01*
X127398811Y-96033856D01*
X127469769Y-95933849D01*
X127567747Y-95860113D01*
X127583234Y-95851835D01*
X127721538Y-95777910D01*
X127873883Y-95652883D01*
X127998910Y-95500538D01*
X128091814Y-95326727D01*
X128149024Y-95138132D01*
X128168341Y-94942000D01*
X128164162Y-94899573D01*
X128150945Y-94765372D01*
X128150944Y-94765371D01*
X128149024Y-94745868D01*
X128122323Y-94657846D01*
X128097505Y-94576033D01*
X128097504Y-94576031D01*
X128091814Y-94557273D01*
X128068001Y-94512722D01*
X128008151Y-94400750D01*
X128008149Y-94400747D01*
X127998910Y-94383462D01*
X127983534Y-94364727D01*
X127886322Y-94246274D01*
X127873883Y-94231117D01*
X127832860Y-94197450D01*
X127736693Y-94118527D01*
X127736690Y-94118525D01*
X127721538Y-94106090D01*
X127704255Y-94096852D01*
X127704249Y-94096848D01*
X127567747Y-94023887D01*
X127469769Y-93950151D01*
X127398811Y-93850144D01*
X127361573Y-93733312D01*
X127361573Y-93610688D01*
X127398811Y-93493856D01*
X127469769Y-93393849D01*
X127567747Y-93320113D01*
X127583234Y-93311835D01*
X127721538Y-93237910D01*
X127873883Y-93112883D01*
X127998910Y-92960538D01*
X128091814Y-92786727D01*
X128149024Y-92598132D01*
X128168341Y-92402000D01*
X128149024Y-92205868D01*
X128106038Y-92064162D01*
X128097505Y-92036033D01*
X128097504Y-92036031D01*
X128091814Y-92017273D01*
X128082573Y-91999984D01*
X128008151Y-91860750D01*
X128008149Y-91860747D01*
X127998910Y-91843462D01*
X127873883Y-91691117D01*
X127804598Y-91634256D01*
X127736693Y-91578527D01*
X127736690Y-91578525D01*
X127721538Y-91566090D01*
X127704255Y-91556852D01*
X127704249Y-91556848D01*
X127567747Y-91483887D01*
X127469769Y-91410151D01*
X127398811Y-91310144D01*
X127361573Y-91193312D01*
X127361573Y-91070688D01*
X127398811Y-90953856D01*
X127469769Y-90853849D01*
X127567747Y-90780113D01*
X127585434Y-90770659D01*
X127721538Y-90697910D01*
X127873883Y-90572883D01*
X127998910Y-90420538D01*
X128091814Y-90246727D01*
X128149024Y-90058132D01*
X128168341Y-89862000D01*
X128154700Y-89723500D01*
X128150945Y-89685372D01*
X128150944Y-89685371D01*
X128149024Y-89665868D01*
X128122234Y-89577553D01*
X128097505Y-89496033D01*
X128097504Y-89496031D01*
X128091814Y-89477273D01*
X128074563Y-89444999D01*
X128008151Y-89320750D01*
X128008149Y-89320747D01*
X127998910Y-89303462D01*
X127873883Y-89151117D01*
X127804598Y-89094256D01*
X127736693Y-89038527D01*
X127736690Y-89038525D01*
X127721538Y-89026090D01*
X127704255Y-89016852D01*
X127704249Y-89016848D01*
X127567747Y-88943887D01*
X127469769Y-88870151D01*
X127398811Y-88770144D01*
X127361573Y-88653312D01*
X127361573Y-88530688D01*
X127398811Y-88413856D01*
X127469769Y-88313849D01*
X127567747Y-88240113D01*
X127598192Y-88223840D01*
X127721538Y-88157910D01*
X127873883Y-88032883D01*
X127998910Y-87880538D01*
X128091814Y-87706727D01*
X128149024Y-87518132D01*
X128168341Y-87322000D01*
X128163221Y-87270015D01*
X128150945Y-87145372D01*
X128150944Y-87145371D01*
X128149024Y-87125868D01*
X128104765Y-86979966D01*
X128097505Y-86956033D01*
X128097504Y-86956031D01*
X128091814Y-86937273D01*
X128076240Y-86908136D01*
X128008151Y-86780750D01*
X128008149Y-86780747D01*
X127998910Y-86763462D01*
X127986089Y-86747840D01*
X127891176Y-86632189D01*
X127873883Y-86611117D01*
X127776719Y-86531376D01*
X127736693Y-86498527D01*
X127736690Y-86498525D01*
X127721538Y-86486090D01*
X127704255Y-86476852D01*
X127704249Y-86476848D01*
X127567747Y-86403887D01*
X127469769Y-86330151D01*
X127398811Y-86230144D01*
X127361573Y-86113312D01*
X127361573Y-85990688D01*
X127398811Y-85873856D01*
X127469769Y-85773849D01*
X127567747Y-85700113D01*
X127583318Y-85691790D01*
X127721538Y-85617910D01*
X127873883Y-85492883D01*
X127998910Y-85340538D01*
X128091814Y-85166727D01*
X128149024Y-84978132D01*
X128168341Y-84782000D01*
X128149024Y-84585868D01*
X128109385Y-84455196D01*
X128097505Y-84416033D01*
X128097504Y-84416031D01*
X128091814Y-84397273D01*
X128082573Y-84379984D01*
X128008151Y-84240750D01*
X128008149Y-84240747D01*
X127998910Y-84223462D01*
X127948719Y-84162305D01*
X127892622Y-84093951D01*
X127873883Y-84071117D01*
X127779055Y-83993293D01*
X127736693Y-83958527D01*
X127736690Y-83958525D01*
X127721538Y-83946090D01*
X127704255Y-83936852D01*
X127704249Y-83936848D01*
X127567747Y-83863887D01*
X127469769Y-83790151D01*
X127398811Y-83690144D01*
X127361573Y-83573312D01*
X127361573Y-83450688D01*
X127398811Y-83333856D01*
X127469769Y-83233849D01*
X127567747Y-83160113D01*
X127583234Y-83151835D01*
X127721538Y-83077910D01*
X127873883Y-82952883D01*
X127998910Y-82800538D01*
X128091814Y-82626727D01*
X128149024Y-82438132D01*
X128168341Y-82242000D01*
X128163221Y-82190015D01*
X128150945Y-82065372D01*
X128150944Y-82065371D01*
X128149024Y-82045868D01*
X128114044Y-81930556D01*
X128097505Y-81876033D01*
X128097504Y-81876031D01*
X128091814Y-81857273D01*
X128074408Y-81824708D01*
X128008151Y-81700750D01*
X128008149Y-81700747D01*
X127998910Y-81683462D01*
X127873883Y-81531117D01*
X127765905Y-81442501D01*
X127736693Y-81418527D01*
X127736690Y-81418525D01*
X127721538Y-81406090D01*
X127704255Y-81396852D01*
X127704249Y-81396848D01*
X127567747Y-81323887D01*
X127469769Y-81250151D01*
X127398811Y-81150144D01*
X127361573Y-81033312D01*
X127361573Y-80910688D01*
X127398811Y-80793856D01*
X127469769Y-80693849D01*
X127567747Y-80620113D01*
X127721538Y-80537910D01*
X127873883Y-80412883D01*
X127998910Y-80260538D01*
X128091814Y-80086727D01*
X128149024Y-79898132D01*
X128168341Y-79702000D01*
X128149024Y-79505868D01*
X128115302Y-79394703D01*
X128097505Y-79336033D01*
X128097504Y-79336031D01*
X128091814Y-79317273D01*
X128069562Y-79275642D01*
X128008151Y-79160750D01*
X128008149Y-79160747D01*
X127998910Y-79143462D01*
X127873883Y-78991117D01*
X127858725Y-78978677D01*
X127736693Y-78878527D01*
X127736690Y-78878525D01*
X127721538Y-78866090D01*
X127704255Y-78856852D01*
X127704249Y-78856848D01*
X127567747Y-78783887D01*
X127469769Y-78710151D01*
X127398811Y-78610144D01*
X127361573Y-78493312D01*
X127361573Y-78370688D01*
X127398811Y-78253856D01*
X127469769Y-78153849D01*
X127567747Y-78080113D01*
X127647775Y-78037337D01*
X127721538Y-77997910D01*
X127873883Y-77872883D01*
X127998910Y-77720538D01*
X128091814Y-77546727D01*
X128149024Y-77358132D01*
X128168341Y-77162000D01*
X128149024Y-76965868D01*
X128091814Y-76777273D01*
X128066102Y-76729169D01*
X128008151Y-76620750D01*
X128008149Y-76620747D01*
X127998910Y-76603462D01*
X127949328Y-76543047D01*
X127886322Y-76466274D01*
X127873883Y-76451117D01*
X127819025Y-76406096D01*
X127736693Y-76338527D01*
X127736690Y-76338525D01*
X127721538Y-76326090D01*
X127704255Y-76316852D01*
X127704249Y-76316848D01*
X127567747Y-76243887D01*
X127469769Y-76170151D01*
X127398811Y-76070144D01*
X127361573Y-75953312D01*
X127361573Y-75830688D01*
X127398811Y-75713856D01*
X127469769Y-75613849D01*
X127567747Y-75540113D01*
X127631729Y-75505914D01*
X127721538Y-75457910D01*
X127873883Y-75332883D01*
X127998910Y-75180538D01*
X128091814Y-75006727D01*
X128149024Y-74818132D01*
X128168341Y-74622000D01*
X128159923Y-74536529D01*
X128150945Y-74445372D01*
X128150944Y-74445371D01*
X128149024Y-74425868D01*
X128122020Y-74336849D01*
X128097505Y-74256033D01*
X128097504Y-74256031D01*
X128091814Y-74237273D01*
X128065575Y-74188183D01*
X128008151Y-74080750D01*
X128008149Y-74080747D01*
X127998910Y-74063462D01*
X127873883Y-73911117D01*
X127858725Y-73898677D01*
X127858723Y-73898675D01*
X127793931Y-73845501D01*
X127712504Y-73754503D01*
X127662412Y-73643139D01*
X127648347Y-73521840D01*
X127671626Y-73401968D01*
X127730068Y-73294751D01*
X127818200Y-73210229D01*
X127987548Y-73091650D01*
X128014136Y-73069341D01*
X128150341Y-72933136D01*
X128172659Y-72906538D01*
X128283138Y-72748757D01*
X128300496Y-72718693D01*
X128381907Y-72544106D01*
X128393774Y-72511504D01*
X128393779Y-72511482D01*
X128396580Y-72485913D01*
X128371156Y-72482000D01*
X125954844Y-72482000D01*
X125929419Y-72485913D01*
X115000500Y-72485913D01*
X115000500Y-71678086D01*
X125929419Y-71678086D01*
X125954844Y-71682000D01*
X128371156Y-71682000D01*
X128396580Y-71678086D01*
X128393779Y-71652517D01*
X128393774Y-71652495D01*
X128381907Y-71619893D01*
X128300496Y-71445306D01*
X128283138Y-71415242D01*
X128172659Y-71257461D01*
X128150341Y-71230863D01*
X128014136Y-71094658D01*
X127987545Y-71072346D01*
X127818199Y-70953769D01*
X127730067Y-70869247D01*
X127671625Y-70762029D01*
X127648347Y-70642157D01*
X127662413Y-70520858D01*
X127712506Y-70409494D01*
X127793930Y-70318498D01*
X127873883Y-70252883D01*
X127998910Y-70100538D01*
X128091814Y-69926727D01*
X128149024Y-69738132D01*
X128168341Y-69542000D01*
X128165993Y-69518156D01*
X128150945Y-69365372D01*
X128150944Y-69365371D01*
X128149024Y-69345868D01*
X128091814Y-69157273D01*
X128077560Y-69130606D01*
X128008151Y-69000750D01*
X128008149Y-69000747D01*
X127998910Y-68983462D01*
X127956806Y-68932159D01*
X127886322Y-68846274D01*
X127873883Y-68831117D01*
X127834010Y-68798394D01*
X127736693Y-68718527D01*
X127736690Y-68718525D01*
X127721538Y-68706090D01*
X127704255Y-68696852D01*
X127704249Y-68696848D01*
X127567747Y-68623887D01*
X127469769Y-68550151D01*
X127398811Y-68450144D01*
X127361573Y-68333312D01*
X127361573Y-68210688D01*
X127398811Y-68093856D01*
X127469769Y-67993849D01*
X127567747Y-67920113D01*
X127621847Y-67891196D01*
X127721538Y-67837910D01*
X127873883Y-67712883D01*
X127998910Y-67560538D01*
X128091814Y-67386727D01*
X128149024Y-67198132D01*
X128168341Y-67002000D01*
X128156213Y-66878860D01*
X128150945Y-66825372D01*
X128150944Y-66825371D01*
X128149024Y-66805868D01*
X128091814Y-66617273D01*
X128069562Y-66575642D01*
X128008151Y-66460750D01*
X128008149Y-66460747D01*
X127998910Y-66443462D01*
X127948719Y-66382305D01*
X127886322Y-66306274D01*
X127873883Y-66291117D01*
X127814801Y-66242629D01*
X127736693Y-66178527D01*
X127736690Y-66178525D01*
X127721538Y-66166090D01*
X127704255Y-66156852D01*
X127704249Y-66156848D01*
X127567747Y-66083887D01*
X127469769Y-66010151D01*
X127398811Y-65910144D01*
X127361573Y-65793312D01*
X127361573Y-65670688D01*
X127398811Y-65553856D01*
X127469769Y-65453849D01*
X127567747Y-65380113D01*
X127607795Y-65358707D01*
X127721538Y-65297910D01*
X127873883Y-65172883D01*
X127998910Y-65020538D01*
X128091814Y-64846727D01*
X128149024Y-64658132D01*
X128168341Y-64462000D01*
X128149024Y-64265868D01*
X128122020Y-64176849D01*
X128097505Y-64096033D01*
X128097504Y-64096031D01*
X128091814Y-64077273D01*
X128055919Y-64010118D01*
X128008151Y-63920750D01*
X128008149Y-63920747D01*
X127998910Y-63903462D01*
X127873883Y-63751117D01*
X127803249Y-63693149D01*
X127736693Y-63638527D01*
X127736690Y-63638525D01*
X127721538Y-63626090D01*
X127704255Y-63616852D01*
X127704249Y-63616848D01*
X127565015Y-63542426D01*
X127565009Y-63542423D01*
X127547727Y-63533186D01*
X127528973Y-63527497D01*
X127528966Y-63527494D01*
X127377888Y-63481665D01*
X127377882Y-63481663D01*
X127359132Y-63475976D01*
X127339636Y-63474055D01*
X127339627Y-63474054D01*
X127182505Y-63458580D01*
X127163000Y-63456659D01*
X127143495Y-63458580D01*
X126986372Y-63474054D01*
X126986361Y-63474056D01*
X126966868Y-63475976D01*
X126948119Y-63481663D01*
X126948111Y-63481665D01*
X126797033Y-63527494D01*
X126797022Y-63527498D01*
X126778273Y-63533186D01*
X126760993Y-63542421D01*
X126760984Y-63542426D01*
X126621750Y-63616848D01*
X126621739Y-63616854D01*
X126604462Y-63626090D01*
X126589314Y-63638521D01*
X126589306Y-63638527D01*
X126467274Y-63738677D01*
X126467268Y-63738682D01*
X126452117Y-63751117D01*
X126439682Y-63766268D01*
X126439677Y-63766274D01*
X126339527Y-63888306D01*
X126339521Y-63888314D01*
X126327090Y-63903462D01*
X126317854Y-63920739D01*
X126317848Y-63920750D01*
X126243426Y-64059984D01*
X126243421Y-64059993D01*
X126234186Y-64077273D01*
X126228498Y-64096022D01*
X126228494Y-64096033D01*
X126182665Y-64247111D01*
X126182663Y-64247119D01*
X126176976Y-64265868D01*
X126175056Y-64285361D01*
X126175054Y-64285372D01*
X126168289Y-64354067D01*
X126157659Y-64462000D01*
X126159580Y-64481505D01*
X126175054Y-64638627D01*
X126175055Y-64638636D01*
X126176976Y-64658132D01*
X126182663Y-64676882D01*
X126182665Y-64676888D01*
X126228494Y-64827966D01*
X126228497Y-64827973D01*
X126234186Y-64846727D01*
X126243423Y-64864009D01*
X126243426Y-64864015D01*
X126317848Y-65003249D01*
X126317852Y-65003255D01*
X126327090Y-65020538D01*
X126452117Y-65172883D01*
X126487980Y-65202315D01*
X126584768Y-65281748D01*
X126604462Y-65297910D01*
X126621752Y-65307151D01*
X126621754Y-65307153D01*
X126758253Y-65380114D01*
X126856230Y-65453850D01*
X126927189Y-65553856D01*
X126964426Y-65670688D01*
X126964426Y-65793312D01*
X126927189Y-65910144D01*
X126856230Y-66010150D01*
X126758253Y-66083886D01*
X126621754Y-66156846D01*
X126621744Y-66156852D01*
X126604462Y-66166090D01*
X126589314Y-66178521D01*
X126589306Y-66178527D01*
X126467274Y-66278677D01*
X126467268Y-66278682D01*
X126452117Y-66291117D01*
X126439682Y-66306268D01*
X126439677Y-66306274D01*
X126339527Y-66428306D01*
X126339521Y-66428314D01*
X126327090Y-66443462D01*
X126317854Y-66460739D01*
X126317848Y-66460750D01*
X126243426Y-66599984D01*
X126243421Y-66599993D01*
X126234186Y-66617273D01*
X126228498Y-66636022D01*
X126228494Y-66636033D01*
X126182665Y-66787111D01*
X126182663Y-66787119D01*
X126176976Y-66805868D01*
X126175056Y-66825361D01*
X126175054Y-66825372D01*
X126161730Y-66960667D01*
X126157659Y-67002000D01*
X126159580Y-67021505D01*
X126175054Y-67178627D01*
X126175055Y-67178636D01*
X126176976Y-67198132D01*
X126182663Y-67216882D01*
X126182665Y-67216888D01*
X126228494Y-67367966D01*
X126228497Y-67367973D01*
X126234186Y-67386727D01*
X126243423Y-67404009D01*
X126243426Y-67404015D01*
X126317848Y-67543249D01*
X126317852Y-67543255D01*
X126327090Y-67560538D01*
X126339525Y-67575690D01*
X126339527Y-67575693D01*
X126436118Y-67693388D01*
X126452117Y-67712883D01*
X126467274Y-67725322D01*
X126580692Y-67818403D01*
X126604462Y-67837910D01*
X126621752Y-67847151D01*
X126621754Y-67847153D01*
X126758253Y-67920114D01*
X126856230Y-67993850D01*
X126927189Y-68093856D01*
X126964426Y-68210688D01*
X126964426Y-68333312D01*
X126927189Y-68450144D01*
X126856230Y-68550150D01*
X126758253Y-68623886D01*
X126621754Y-68696846D01*
X126621744Y-68696852D01*
X126604462Y-68706090D01*
X126589314Y-68718521D01*
X126589306Y-68718527D01*
X126467274Y-68818677D01*
X126467268Y-68818682D01*
X126452117Y-68831117D01*
X126439682Y-68846268D01*
X126439677Y-68846274D01*
X126339527Y-68968306D01*
X126339521Y-68968314D01*
X126327090Y-68983462D01*
X126317854Y-69000739D01*
X126317848Y-69000750D01*
X126243426Y-69139984D01*
X126243421Y-69139993D01*
X126234186Y-69157273D01*
X126228498Y-69176022D01*
X126228494Y-69176033D01*
X126182665Y-69327111D01*
X126182663Y-69327119D01*
X126176976Y-69345868D01*
X126175056Y-69365361D01*
X126175054Y-69365372D01*
X126160007Y-69518156D01*
X126157659Y-69542000D01*
X126159580Y-69561505D01*
X126175054Y-69718627D01*
X126175055Y-69718636D01*
X126176976Y-69738132D01*
X126182663Y-69756882D01*
X126182665Y-69756888D01*
X126228494Y-69907966D01*
X126228497Y-69907973D01*
X126234186Y-69926727D01*
X126243423Y-69944009D01*
X126243426Y-69944015D01*
X126317848Y-70083249D01*
X126317852Y-70083255D01*
X126327090Y-70100538D01*
X126339525Y-70115690D01*
X126339527Y-70115693D01*
X126362416Y-70143583D01*
X126452117Y-70252883D01*
X126532069Y-70318498D01*
X126613494Y-70409496D01*
X126663587Y-70520859D01*
X126677652Y-70642157D01*
X126654374Y-70762029D01*
X126595932Y-70869247D01*
X126507801Y-70953768D01*
X126338456Y-71072344D01*
X126311863Y-71094658D01*
X126175658Y-71230863D01*
X126153340Y-71257461D01*
X126042861Y-71415242D01*
X126025503Y-71445306D01*
X125944092Y-71619893D01*
X125932225Y-71652495D01*
X125932220Y-71652517D01*
X125929419Y-71678086D01*
X115000500Y-71678086D01*
X115000500Y-62517215D01*
X115001228Y-62493125D01*
X115002900Y-62465485D01*
X115002899Y-62465483D01*
X115004357Y-62441394D01*
X114995011Y-62390397D01*
X114991388Y-62366586D01*
X114988049Y-62339087D01*
X114985140Y-62315128D01*
X114977682Y-62295463D01*
X114977484Y-62294755D01*
X114973694Y-62274068D01*
X114963786Y-62252055D01*
X114963785Y-62252050D01*
X114952424Y-62226807D01*
X114943197Y-62204532D01*
X114933376Y-62178635D01*
X114933374Y-62178632D01*
X114924818Y-62156070D01*
X114912862Y-62138750D01*
X114912508Y-62138122D01*
X114903877Y-62118943D01*
X114871914Y-62078145D01*
X114857633Y-62058737D01*
X114828183Y-62016071D01*
X114789393Y-61981706D01*
X114771843Y-61965186D01*
X109230804Y-56424147D01*
X109214301Y-56406615D01*
X109179929Y-56367817D01*
X109160069Y-56354108D01*
X109160063Y-56354103D01*
X109137262Y-56338365D01*
X109117855Y-56324085D01*
X109096058Y-56307008D01*
X109096056Y-56307007D01*
X109077057Y-56292122D01*
X109057889Y-56283495D01*
X109057228Y-56283122D01*
X109039930Y-56271182D01*
X109017372Y-56262626D01*
X109017367Y-56262624D01*
X108991463Y-56252800D01*
X108969203Y-56243579D01*
X108943938Y-56232208D01*
X108943930Y-56232205D01*
X108921932Y-56222305D01*
X108901259Y-56218516D01*
X108900511Y-56218307D01*
X108880872Y-56210860D01*
X108829429Y-56204613D01*
X108805609Y-56200988D01*
X108804545Y-56200793D01*
X108754606Y-56191642D01*
X108730518Y-56193099D01*
X108702865Y-56194772D01*
X108678772Y-56195500D01*
X87917214Y-56195500D01*
X87893123Y-56194772D01*
X87865482Y-56193100D01*
X87841394Y-56191643D01*
X87817660Y-56195991D01*
X87817659Y-56195992D01*
X87811293Y-56197158D01*
X87790388Y-56200989D01*
X87766596Y-56204610D01*
X87739076Y-56207951D01*
X87739068Y-56207952D01*
X87715128Y-56210860D01*
X87695482Y-56218309D01*
X87694732Y-56218518D01*
X87674068Y-56222306D01*
X87652068Y-56232206D01*
X87652062Y-56232209D01*
X87626812Y-56243573D01*
X87604556Y-56252792D01*
X87578639Y-56262621D01*
X87578628Y-56262626D01*
X87556070Y-56271182D01*
X87538769Y-56283123D01*
X87538102Y-56283499D01*
X87518943Y-56292123D01*
X87499950Y-56307002D01*
X87499941Y-56307008D01*
X87478139Y-56324089D01*
X87458745Y-56338359D01*
X87435936Y-56354103D01*
X87435926Y-56354111D01*
X87416071Y-56367817D01*
X87400072Y-56385874D01*
X87400067Y-56385880D01*
X87381705Y-56406607D01*
X87365191Y-56424150D01*
X84872150Y-58917191D01*
X84854607Y-58933705D01*
X84833880Y-58952067D01*
X84833874Y-58952072D01*
X84815817Y-58968071D01*
X84802112Y-58987925D01*
X84802107Y-58987931D01*
X84786364Y-59010739D01*
X84772092Y-59030134D01*
X84755001Y-59051949D01*
X84754996Y-59051957D01*
X84740122Y-59070943D01*
X84731502Y-59090093D01*
X84731112Y-59090784D01*
X84719182Y-59108070D01*
X84710629Y-59130620D01*
X84710625Y-59130629D01*
X84700800Y-59156536D01*
X84691585Y-59178783D01*
X84680207Y-59204064D01*
X84680204Y-59204070D01*
X84670305Y-59226068D01*
X84666517Y-59246730D01*
X84666304Y-59247496D01*
X84658860Y-59267128D01*
X84655951Y-59291076D01*
X84655951Y-59291080D01*
X84652612Y-59318579D01*
X84648988Y-59342389D01*
X84639642Y-59393394D01*
X84641099Y-59417481D01*
X84641099Y-59417483D01*
X84642772Y-59445135D01*
X84643500Y-59469228D01*
X84643500Y-69648571D01*
X84629904Y-69751840D01*
X84590044Y-69848071D01*
X84526636Y-69930707D01*
X81614707Y-72842636D01*
X81532071Y-72906044D01*
X81435840Y-72945904D01*
X81332571Y-72959500D01*
X77757228Y-72959500D01*
X77733135Y-72958772D01*
X77705482Y-72957099D01*
X77705480Y-72957099D01*
X77681394Y-72955642D01*
X77657656Y-72959991D01*
X77657652Y-72959992D01*
X77630389Y-72964988D01*
X77606572Y-72968613D01*
X77579083Y-72971951D01*
X77579082Y-72971951D01*
X77555128Y-72974860D01*
X77535489Y-72982307D01*
X77534737Y-72982516D01*
X77514069Y-72986305D01*
X77492074Y-72996203D01*
X77492064Y-72996207D01*
X77466788Y-73007583D01*
X77444537Y-73016800D01*
X77418635Y-73026623D01*
X77418627Y-73026627D01*
X77396070Y-73035182D01*
X77378782Y-73047114D01*
X77378096Y-73047501D01*
X77358943Y-73056122D01*
X77339957Y-73070996D01*
X77339949Y-73071001D01*
X77318134Y-73088092D01*
X77298739Y-73102364D01*
X77275931Y-73118107D01*
X77275925Y-73118112D01*
X77256071Y-73131817D01*
X77240072Y-73149874D01*
X77240067Y-73149880D01*
X77221705Y-73170607D01*
X77205191Y-73188150D01*
X74159228Y-76234114D01*
X74159220Y-76234122D01*
X74150710Y-76242633D01*
X74143287Y-76252107D01*
X74143277Y-76252119D01*
X74087006Y-76323944D01*
X74087003Y-76323948D01*
X74072122Y-76342943D01*
X74062217Y-76364949D01*
X74062216Y-76364952D01*
X74012212Y-76476054D01*
X74012210Y-76476059D01*
X74002305Y-76498068D01*
X73997954Y-76521808D01*
X73997954Y-76521810D01*
X73975991Y-76641658D01*
X73975990Y-76641663D01*
X73971642Y-76665394D01*
X73973099Y-76689480D01*
X73973099Y-76689481D01*
X73980456Y-76811106D01*
X73980457Y-76811111D01*
X73981914Y-76835196D01*
X73989091Y-76858231D01*
X73989093Y-76858237D01*
X74032522Y-76997606D01*
X74031160Y-76998030D01*
X74054078Y-77077584D01*
X74053587Y-77190839D01*
X74021294Y-77299393D01*
X73959801Y-77394501D01*
X73874062Y-77468500D01*
X73770985Y-77515426D01*
X73658875Y-77531500D01*
X72221056Y-77531500D01*
X72050944Y-77531500D01*
X72027512Y-77537274D01*
X72021986Y-77537946D01*
X71996506Y-77542615D01*
X71991086Y-77543950D01*
X71967128Y-77546860D01*
X71944566Y-77555415D01*
X71939161Y-77556748D01*
X71914406Y-77564462D01*
X71909203Y-77566434D01*
X71885775Y-77572210D01*
X71864408Y-77583423D01*
X71859197Y-77585400D01*
X71835568Y-77596034D01*
X71830629Y-77598625D01*
X71808070Y-77607182D01*
X71788213Y-77620887D01*
X71783280Y-77623477D01*
X71761098Y-77636886D01*
X71756503Y-77640057D01*
X71735148Y-77651266D01*
X71717092Y-77667260D01*
X71712507Y-77670426D01*
X71692099Y-77686414D01*
X71687925Y-77690111D01*
X71668071Y-77703817D01*
X71652071Y-77721875D01*
X71647901Y-77725571D01*
X71629571Y-77743901D01*
X71625875Y-77748071D01*
X71607817Y-77764071D01*
X71594111Y-77783925D01*
X71590414Y-77788099D01*
X71574431Y-77808500D01*
X71571262Y-77813091D01*
X71555266Y-77831148D01*
X71544052Y-77852512D01*
X71531872Y-77870160D01*
X71455847Y-77952570D01*
X71359896Y-78010575D01*
X71251596Y-78039595D01*
X71139497Y-78037337D01*
X71032453Y-78003981D01*
X70938915Y-77942160D01*
X70866269Y-77856756D01*
X70820253Y-77754513D01*
X70804500Y-77643504D01*
X70804500Y-76655429D01*
X70818096Y-76552160D01*
X70857956Y-76455929D01*
X70921364Y-76373293D01*
X72098964Y-75195693D01*
X75655864Y-71638791D01*
X75673378Y-71622305D01*
X75712183Y-71587929D01*
X75741631Y-71545265D01*
X75755898Y-71525874D01*
X75787878Y-71485057D01*
X75796512Y-71465869D01*
X75796864Y-71465245D01*
X75808818Y-71447930D01*
X75827195Y-71399470D01*
X75836422Y-71377195D01*
X75857695Y-71329931D01*
X75861487Y-71309232D01*
X75861681Y-71308536D01*
X75869140Y-71288872D01*
X75875388Y-71237408D01*
X75879005Y-71213636D01*
X75888358Y-71162606D01*
X75885652Y-71117882D01*
X75885228Y-71110865D01*
X75884500Y-71086772D01*
X75884500Y-70033116D01*
X75894923Y-69942513D01*
X75925647Y-69856644D01*
X75975068Y-69779994D01*
X75998173Y-69751840D01*
X76061685Y-69674450D01*
X76093192Y-69615505D01*
X76102114Y-69598814D01*
X76175849Y-69500837D01*
X76275856Y-69429879D01*
X76392688Y-69392641D01*
X76515312Y-69392641D01*
X76632144Y-69429879D01*
X76732151Y-69500837D01*
X76805886Y-69598814D01*
X76837071Y-69657157D01*
X76837074Y-69657161D01*
X76846315Y-69674450D01*
X76977590Y-69834410D01*
X77137550Y-69965685D01*
X77154835Y-69974924D01*
X77154838Y-69974926D01*
X77158681Y-69976980D01*
X77320046Y-70063232D01*
X77518066Y-70123300D01*
X77724000Y-70143583D01*
X77929934Y-70123300D01*
X78127954Y-70063232D01*
X78310450Y-69965685D01*
X78470410Y-69834410D01*
X78513660Y-69781708D01*
X78600402Y-69703086D01*
X78706233Y-69653021D01*
X78822040Y-69635830D01*
X78937851Y-69652991D01*
X79043696Y-69703028D01*
X79130461Y-69781632D01*
X79190677Y-69882035D01*
X79209848Y-69958474D01*
X79213500Y-69957748D01*
X79221307Y-69997000D01*
X79221309Y-69997006D01*
X79225133Y-70016231D01*
X79269448Y-70082552D01*
X79335769Y-70126867D01*
X79394252Y-70138500D01*
X81114140Y-70138500D01*
X81133748Y-70138500D01*
X81192231Y-70126867D01*
X81258552Y-70082552D01*
X81302867Y-70016231D01*
X81314500Y-69957748D01*
X81314500Y-68218252D01*
X81302867Y-68159769D01*
X81258552Y-68093448D01*
X81192231Y-68049133D01*
X81173001Y-68045307D01*
X81169576Y-68044269D01*
X81067080Y-67996421D01*
X80982130Y-67921733D01*
X80921557Y-67826211D01*
X80916406Y-67814766D01*
X80907207Y-67792559D01*
X80888818Y-67744070D01*
X80876872Y-67726764D01*
X80876506Y-67726116D01*
X80867878Y-67706943D01*
X80852363Y-67687140D01*
X80835914Y-67666144D01*
X80821628Y-67646729D01*
X80805890Y-67623929D01*
X80792183Y-67604071D01*
X80753393Y-67569706D01*
X80735843Y-67553186D01*
X79766804Y-66584147D01*
X79750300Y-66566614D01*
X79715929Y-66527817D01*
X79696069Y-66514108D01*
X79696063Y-66514103D01*
X79673262Y-66498365D01*
X79653855Y-66484085D01*
X79632058Y-66467008D01*
X79632055Y-66467006D01*
X79613057Y-66452122D01*
X79593889Y-66443495D01*
X79593228Y-66443122D01*
X79575930Y-66431182D01*
X79553372Y-66422626D01*
X79553367Y-66422624D01*
X79527463Y-66412800D01*
X79505203Y-66403579D01*
X79479938Y-66392208D01*
X79479930Y-66392205D01*
X79457932Y-66382305D01*
X79437259Y-66378516D01*
X79436511Y-66378307D01*
X79416872Y-66370860D01*
X79365429Y-66364613D01*
X79341609Y-66360988D01*
X79331431Y-66359123D01*
X79290606Y-66351642D01*
X79266518Y-66353099D01*
X79238865Y-66354772D01*
X79214772Y-66355500D01*
X74755081Y-66355500D01*
X74641501Y-66338993D01*
X74537319Y-66290836D01*
X74451156Y-66215016D01*
X74390140Y-66117805D01*
X74359321Y-66007247D01*
X74361249Y-65892490D01*
X74395764Y-65783030D01*
X74460010Y-65687923D01*
X74533047Y-65627882D01*
X74533057Y-65627878D01*
X74573874Y-65595898D01*
X74593265Y-65581631D01*
X74635929Y-65552183D01*
X74670305Y-65513378D01*
X74686791Y-65495864D01*
X80087292Y-60095364D01*
X80169929Y-60031956D01*
X80266160Y-59992096D01*
X80369429Y-59978500D01*
X81114140Y-59978500D01*
X81133748Y-59978500D01*
X81192231Y-59966867D01*
X81258552Y-59922552D01*
X81302867Y-59856231D01*
X81314500Y-59797748D01*
X81314500Y-58058252D01*
X81302867Y-57999769D01*
X81258552Y-57933448D01*
X81192231Y-57889133D01*
X81173006Y-57885309D01*
X81173000Y-57885307D01*
X81152980Y-57881325D01*
X81152975Y-57881324D01*
X81133748Y-57877500D01*
X79394252Y-57877500D01*
X79375025Y-57881324D01*
X79375019Y-57881325D01*
X79354999Y-57885307D01*
X79354990Y-57885309D01*
X79335769Y-57889133D01*
X79319472Y-57900022D01*
X79319469Y-57900024D01*
X79285742Y-57922560D01*
X79285738Y-57922562D01*
X79269448Y-57933448D01*
X79258562Y-57949738D01*
X79258560Y-57949742D01*
X79236024Y-57983469D01*
X79225133Y-57999769D01*
X79221309Y-58018990D01*
X79221307Y-58018999D01*
X79213500Y-58058252D01*
X79209850Y-58057526D01*
X79190660Y-58134005D01*
X79130438Y-58234396D01*
X79043671Y-58312988D01*
X78937829Y-58363015D01*
X78822023Y-58380169D01*
X78706224Y-58362975D01*
X78600399Y-58312912D01*
X78513661Y-58234291D01*
X78470410Y-58181590D01*
X78310450Y-58050315D01*
X78293166Y-58041076D01*
X78293161Y-58041073D01*
X78185391Y-57983469D01*
X78127954Y-57952768D01*
X78014528Y-57918361D01*
X77948682Y-57898387D01*
X77948681Y-57898386D01*
X77929934Y-57892700D01*
X77910439Y-57890779D01*
X77910435Y-57890779D01*
X77743504Y-57874338D01*
X77724000Y-57872417D01*
X77704496Y-57874338D01*
X77537564Y-57890779D01*
X77537558Y-57890780D01*
X77518066Y-57892700D01*
X77499320Y-57898386D01*
X77499317Y-57898387D01*
X77338803Y-57947078D01*
X77338801Y-57947078D01*
X77320046Y-57952768D01*
X77302760Y-57962007D01*
X77302759Y-57962008D01*
X77154838Y-58041073D01*
X77154828Y-58041079D01*
X77137550Y-58050315D01*
X77122397Y-58062750D01*
X77122395Y-58062752D01*
X76992746Y-58169151D01*
X76992741Y-58169155D01*
X76977590Y-58181590D01*
X76965155Y-58196741D01*
X76965151Y-58196746D01*
X76869817Y-58312912D01*
X76846315Y-58341550D01*
X76837076Y-58358833D01*
X76837071Y-58358842D01*
X76805885Y-58417187D01*
X76732150Y-58515163D01*
X76632143Y-58586121D01*
X76515311Y-58623358D01*
X76392689Y-58623358D01*
X76275857Y-58586121D01*
X76175850Y-58515163D01*
X76102115Y-58417187D01*
X76070928Y-58358842D01*
X76070927Y-58358840D01*
X76061685Y-58341550D01*
X75930410Y-58181590D01*
X75770450Y-58050315D01*
X75753166Y-58041076D01*
X75753161Y-58041073D01*
X75645391Y-57983469D01*
X75587954Y-57952768D01*
X75474528Y-57918361D01*
X75408682Y-57898387D01*
X75408681Y-57898386D01*
X75389934Y-57892700D01*
X75370439Y-57890779D01*
X75370435Y-57890779D01*
X75203504Y-57874338D01*
X75184000Y-57872417D01*
X75164496Y-57874338D01*
X74997564Y-57890779D01*
X74997558Y-57890780D01*
X74978066Y-57892700D01*
X74959320Y-57898386D01*
X74959317Y-57898387D01*
X74798803Y-57947078D01*
X74798801Y-57947078D01*
X74780046Y-57952768D01*
X74762760Y-57962007D01*
X74762759Y-57962008D01*
X74614838Y-58041073D01*
X74614828Y-58041079D01*
X74597550Y-58050315D01*
X74582397Y-58062750D01*
X74582395Y-58062752D01*
X74452746Y-58169151D01*
X74452741Y-58169155D01*
X74437590Y-58181590D01*
X74425155Y-58196741D01*
X74425151Y-58196746D01*
X74329817Y-58312912D01*
X74306315Y-58341550D01*
X74297076Y-58358833D01*
X74297071Y-58358842D01*
X74265885Y-58417187D01*
X74192150Y-58515163D01*
X74092143Y-58586121D01*
X73975311Y-58623358D01*
X73852689Y-58623358D01*
X73735857Y-58586121D01*
X73635850Y-58515163D01*
X73562115Y-58417187D01*
X73530928Y-58358842D01*
X73530927Y-58358840D01*
X73521685Y-58341550D01*
X73390410Y-58181590D01*
X73230450Y-58050315D01*
X73213166Y-58041076D01*
X73213161Y-58041073D01*
X73105391Y-57983469D01*
X73047954Y-57952768D01*
X72934528Y-57918361D01*
X72868682Y-57898387D01*
X72868681Y-57898386D01*
X72849934Y-57892700D01*
X72830439Y-57890779D01*
X72830435Y-57890779D01*
X72663504Y-57874338D01*
X72644000Y-57872417D01*
X72624496Y-57874338D01*
X72457564Y-57890779D01*
X72457558Y-57890780D01*
X72438066Y-57892700D01*
X72419320Y-57898386D01*
X72419317Y-57898387D01*
X72258803Y-57947078D01*
X72258801Y-57947078D01*
X72240046Y-57952768D01*
X72222760Y-57962007D01*
X72222759Y-57962008D01*
X72074838Y-58041073D01*
X72074828Y-58041079D01*
X72057550Y-58050315D01*
X72042397Y-58062750D01*
X72042395Y-58062752D01*
X71912746Y-58169151D01*
X71912741Y-58169155D01*
X71897590Y-58181590D01*
X71885155Y-58196741D01*
X71885151Y-58196746D01*
X71789817Y-58312912D01*
X71766315Y-58341550D01*
X71757076Y-58358833D01*
X71757071Y-58358842D01*
X71725885Y-58417187D01*
X71652150Y-58515163D01*
X71552143Y-58586121D01*
X71435311Y-58623358D01*
X71312689Y-58623358D01*
X71195857Y-58586121D01*
X71095850Y-58515163D01*
X71022115Y-58417187D01*
X70990928Y-58358842D01*
X70990927Y-58358840D01*
X70981685Y-58341550D01*
X70850410Y-58181590D01*
X70690450Y-58050315D01*
X70673166Y-58041076D01*
X70673161Y-58041073D01*
X70565391Y-57983469D01*
X70507954Y-57952768D01*
X70394528Y-57918361D01*
X70328682Y-57898387D01*
X70328681Y-57898386D01*
X70309934Y-57892700D01*
X70290439Y-57890779D01*
X70290435Y-57890779D01*
X70123504Y-57874338D01*
X70104000Y-57872417D01*
X70084496Y-57874338D01*
X69917564Y-57890779D01*
X69917558Y-57890780D01*
X69898066Y-57892700D01*
X69879320Y-57898386D01*
X69879317Y-57898387D01*
X69718803Y-57947078D01*
X69718801Y-57947078D01*
X69700046Y-57952768D01*
X69682760Y-57962007D01*
X69682759Y-57962008D01*
X69534838Y-58041073D01*
X69534828Y-58041079D01*
X69517550Y-58050315D01*
X69502397Y-58062750D01*
X69502395Y-58062752D01*
X69372746Y-58169151D01*
X69372741Y-58169155D01*
X69357590Y-58181590D01*
X69345155Y-58196741D01*
X69345151Y-58196746D01*
X69249817Y-58312912D01*
X69226315Y-58341550D01*
X69217076Y-58358833D01*
X69217071Y-58358842D01*
X69185885Y-58417187D01*
X69112150Y-58515163D01*
X69012143Y-58586121D01*
X68895311Y-58623358D01*
X68772689Y-58623358D01*
X68655857Y-58586121D01*
X68555850Y-58515163D01*
X68482115Y-58417187D01*
X68450928Y-58358842D01*
X68450927Y-58358840D01*
X68441685Y-58341550D01*
X68310410Y-58181590D01*
X68150450Y-58050315D01*
X68133166Y-58041076D01*
X68133161Y-58041073D01*
X68025391Y-57983469D01*
X67967954Y-57952768D01*
X67854528Y-57918361D01*
X67788682Y-57898387D01*
X67788681Y-57898386D01*
X67769934Y-57892700D01*
X67750439Y-57890779D01*
X67750435Y-57890779D01*
X67583504Y-57874338D01*
X67564000Y-57872417D01*
X67544496Y-57874338D01*
X67377564Y-57890779D01*
X67377558Y-57890780D01*
X67358066Y-57892700D01*
X67339320Y-57898386D01*
X67339317Y-57898387D01*
X67178803Y-57947078D01*
X67178801Y-57947078D01*
X67160046Y-57952768D01*
X67142760Y-57962007D01*
X67142759Y-57962008D01*
X66994838Y-58041073D01*
X66994828Y-58041079D01*
X66977550Y-58050315D01*
X66962397Y-58062750D01*
X66962395Y-58062752D01*
X66832746Y-58169151D01*
X66832741Y-58169155D01*
X66817590Y-58181590D01*
X66805155Y-58196741D01*
X66805151Y-58196746D01*
X66709817Y-58312912D01*
X66686315Y-58341550D01*
X66677079Y-58358828D01*
X66677073Y-58358838D01*
X66598008Y-58506759D01*
X66588768Y-58524046D01*
X66528700Y-58722066D01*
X66526780Y-58741558D01*
X66526779Y-58741564D01*
X66521468Y-58795489D01*
X66508417Y-58928000D01*
X66510338Y-58947504D01*
X66526152Y-59108070D01*
X66528700Y-59133934D01*
X66588768Y-59331954D01*
X66621609Y-59393394D01*
X66677073Y-59497161D01*
X66677076Y-59497166D01*
X66686315Y-59514450D01*
X66817590Y-59674410D01*
X66832746Y-59686848D01*
X66844262Y-59698364D01*
X66914013Y-59792413D01*
X66953459Y-59902659D01*
X66959205Y-60019609D01*
X66930754Y-60133191D01*
X66870557Y-60233623D01*
X66783799Y-60312256D01*
X66677950Y-60362319D01*
X66562126Y-60379500D01*
X62030116Y-60379500D01*
X61939513Y-60369077D01*
X61853644Y-60338353D01*
X61776994Y-60288932D01*
X61693077Y-60220064D01*
X61671450Y-60202315D01*
X61654166Y-60193076D01*
X61654161Y-60193073D01*
X61521370Y-60122095D01*
X61488954Y-60104768D01*
X61290934Y-60044700D01*
X61271439Y-60042779D01*
X61271435Y-60042779D01*
X61146360Y-60030460D01*
X61146349Y-60030459D01*
X61136608Y-60029500D01*
X60783392Y-60029500D01*
X60773651Y-60030459D01*
X60773639Y-60030460D01*
X60648564Y-60042779D01*
X60648558Y-60042780D01*
X60629066Y-60044700D01*
X60610320Y-60050386D01*
X60610317Y-60050387D01*
X60449803Y-60099078D01*
X60449801Y-60099078D01*
X60431046Y-60104768D01*
X60413760Y-60114007D01*
X60413759Y-60114008D01*
X60265838Y-60193073D01*
X60265828Y-60193079D01*
X60248550Y-60202315D01*
X60233397Y-60214750D01*
X60233395Y-60214752D01*
X60103746Y-60321151D01*
X60103741Y-60321155D01*
X60088590Y-60333590D01*
X60076155Y-60348741D01*
X60076151Y-60348746D01*
X60006610Y-60433483D01*
X59957315Y-60493550D01*
X59948079Y-60510828D01*
X59948073Y-60510838D01*
X59869008Y-60658759D01*
X59859768Y-60676046D01*
X59854078Y-60694801D01*
X59854078Y-60694803D01*
X59810488Y-60838503D01*
X59799700Y-60874066D01*
X59797780Y-60893558D01*
X59797779Y-60893564D01*
X59782649Y-61047186D01*
X59779417Y-61080000D01*
X59781338Y-61099504D01*
X59797649Y-61265117D01*
X59799700Y-61285934D01*
X59859768Y-61483954D01*
X59893197Y-61546495D01*
X59948073Y-61649161D01*
X59948076Y-61649166D01*
X59957315Y-61666450D01*
X60088590Y-61826410D01*
X60248550Y-61957685D01*
X60265839Y-61966926D01*
X60286771Y-61978115D01*
X60384747Y-62051851D01*
X60455704Y-62151857D01*
X60492941Y-62268689D01*
X60492941Y-62391311D01*
X60455704Y-62508143D01*
X60384747Y-62608149D01*
X60286771Y-62681885D01*
X60265839Y-62693073D01*
X60265833Y-62693076D01*
X60248550Y-62702315D01*
X60233397Y-62714750D01*
X60233395Y-62714752D01*
X60103746Y-62821151D01*
X60103741Y-62821155D01*
X60088590Y-62833590D01*
X60076155Y-62848741D01*
X60076151Y-62848746D01*
X59981611Y-62963945D01*
X59957315Y-62993550D01*
X59948079Y-63010828D01*
X59948073Y-63010838D01*
X59869008Y-63158759D01*
X59859768Y-63176046D01*
X59854078Y-63194801D01*
X59854078Y-63194803D01*
X59839975Y-63241297D01*
X59799700Y-63374066D01*
X59797780Y-63393558D01*
X59797779Y-63393564D01*
X59781338Y-63560496D01*
X59779417Y-63580000D01*
X59781338Y-63599504D01*
X59797763Y-63766274D01*
X59799700Y-63785934D01*
X59859768Y-63983954D01*
X59869008Y-64001240D01*
X59948073Y-64149161D01*
X59948076Y-64149166D01*
X59957315Y-64166450D01*
X60088590Y-64326410D01*
X60248550Y-64457685D01*
X60265839Y-64466926D01*
X60286771Y-64478115D01*
X60384747Y-64551851D01*
X60455704Y-64651857D01*
X60492941Y-64768689D01*
X60492941Y-64891311D01*
X60455704Y-65008143D01*
X60384747Y-65108149D01*
X60286771Y-65181885D01*
X60265839Y-65193073D01*
X60265833Y-65193076D01*
X60248550Y-65202315D01*
X60233397Y-65214750D01*
X60233395Y-65214752D01*
X60103746Y-65321151D01*
X60103741Y-65321155D01*
X60088590Y-65333590D01*
X60076155Y-65348741D01*
X60076151Y-65348746D01*
X59969752Y-65478395D01*
X59957315Y-65493550D01*
X59948079Y-65510828D01*
X59948073Y-65510838D01*
X59874322Y-65648818D01*
X59859768Y-65676046D01*
X59854078Y-65694801D01*
X59854078Y-65694803D01*
X59808299Y-65845719D01*
X59799700Y-65874066D01*
X59797780Y-65893558D01*
X59797779Y-65893564D01*
X59785727Y-66015935D01*
X59779417Y-66080000D01*
X57912500Y-66080000D01*
X57912500Y-60460283D01*
X57912844Y-60443721D01*
X57914270Y-60409394D01*
X57921511Y-60235131D01*
X57930030Y-60040898D01*
X57932732Y-60008883D01*
X57958291Y-59804773D01*
X57958562Y-59802668D01*
X57984039Y-59610030D01*
X57989150Y-59580175D01*
X58031529Y-59378996D01*
X58032396Y-59374995D01*
X58074630Y-59185374D01*
X58081809Y-59157825D01*
X58140663Y-58961077D01*
X58142508Y-58955086D01*
X58201134Y-58770040D01*
X58210031Y-58744910D01*
X58268568Y-58595632D01*
X58284984Y-58553768D01*
X58288015Y-58546269D01*
X58362642Y-58367001D01*
X58372860Y-58344461D01*
X58463427Y-58160163D01*
X58467898Y-58151350D01*
X58557936Y-57979299D01*
X58569151Y-57959292D01*
X58674657Y-57783203D01*
X58680910Y-57773116D01*
X58685130Y-57766530D01*
X58785618Y-57609681D01*
X58797480Y-57592205D01*
X58917163Y-57425564D01*
X58925329Y-57414599D01*
X59044075Y-57260788D01*
X59056142Y-57245917D01*
X59189255Y-57089757D01*
X59199526Y-57078177D01*
X59331290Y-56935344D01*
X59343348Y-56922835D01*
X59488877Y-56778333D01*
X59501454Y-56766380D01*
X59645297Y-56635559D01*
X59656961Y-56625362D01*
X59813890Y-56493501D01*
X59828927Y-56481475D01*
X59983764Y-56363678D01*
X59994699Y-56355653D01*
X60162012Y-56237273D01*
X60179500Y-56225583D01*
X60344201Y-56121703D01*
X60354222Y-56115590D01*
X60530627Y-56011586D01*
X60550712Y-56000513D01*
X60723977Y-55911398D01*
X60732908Y-55906946D01*
X60917137Y-55818027D01*
X60939753Y-55807967D01*
X61120433Y-55734250D01*
X61128003Y-55731252D01*
X61318698Y-55658027D01*
X61343866Y-55649317D01*
X61530881Y-55591523D01*
X61536723Y-55589770D01*
X61732449Y-55532728D01*
X61760070Y-55525738D01*
X61952203Y-55484372D01*
X61956300Y-55483515D01*
X62155433Y-55443037D01*
X62185332Y-55438136D01*
X62382132Y-55413527D01*
X62384451Y-55413245D01*
X62584512Y-55389631D01*
X62616556Y-55387153D01*
X62817594Y-55379750D01*
X63015807Y-55372920D01*
X63021135Y-55372737D01*
X63034873Y-55372500D01*
X126999383Y-55372500D01*
X126999521Y-55372500D01*
X126999522Y-55372521D01*
G37*
%TD.AperFunction*%
%TD*%
M02*
