M48
; DRILL file {KiCad (7.0.0)} date Fri Jul  7 21:44:20 2023
; FORMAT={-:-/ absolute / metric / decimal}
; #@! TF.CreationDate,2023-07-07T21:44:20+02:00
; #@! TF.GenerationSoftware,Kicad,Pcbnew,(7.0.0)
; #@! TF.FileFunction,Plated,1,2,PTH
FMAT,2
METRIC
; #@! TA.AperFunction,Plated,PTH,ViaDrill
T1C0.400
; #@! TA.AperFunction,Plated,PTH,ComponentDrill
T2C0.800
; #@! TA.AperFunction,Plated,PTH,ComponentDrill
T3C0.950
; #@! TA.AperFunction,Plated,PTH,ComponentDrill
T4C1.000
%
G90
G05
T1
X63.5Y-99.06
X65.024Y-106.172
X66.04Y-76.2
X67.564Y-103.632
X68.58Y-78.74
X70.104Y-101.092
X74.676Y-76.708
X77.216Y-79.756
X80.264Y-75.184
X81.28Y-106.426
X81.28Y-107.696
X81.788Y-88.9
X84.328Y-80.264
X84.328Y-85.344
X84.328Y-103.124
X87.376Y-84.328
X90.424Y-94.488
X93.472Y-81.788
X105.664Y-101.6
X105.664Y-104.648
X106.68Y-62.484
X106.68Y-66.548
T2
X59.69Y-81.788
X59.69Y-85.852
X59.69Y-89.916
X59.69Y-93.98
X59.69Y-98.044
X67.31Y-81.788
X67.31Y-85.852
X67.31Y-89.916
X67.31Y-93.98
X67.31Y-98.044
X70.104Y-89.154
X70.104Y-96.774
X73.66Y-80.264
X73.66Y-82.804
X73.66Y-85.344
X73.66Y-87.884
X73.66Y-90.424
X73.66Y-92.964
X73.66Y-95.504
X73.66Y-98.044
X73.66Y-100.584
X73.66Y-103.124
X76.2Y-81.534
X76.2Y-84.074
X76.2Y-86.614
X76.2Y-89.154
X76.2Y-91.694
X76.2Y-94.234
X76.2Y-96.774
X76.2Y-99.314
X76.2Y-101.854
X76.2Y-104.394
X79.756Y-86.614
X79.756Y-94.234
X82.804Y-92.71
X82.804Y-100.33
X88.392Y-61.976
X88.392Y-69.596
X88.392Y-79.248
X88.392Y-86.868
X88.392Y-97.536
X88.392Y-105.156
X90.932Y-61.976
X90.932Y-69.596
X90.932Y-79.248
X90.932Y-86.868
X90.932Y-97.536
X90.932Y-105.156
X93.472Y-61.976
X93.472Y-69.596
X93.472Y-79.248
X93.472Y-86.868
X93.472Y-97.536
X93.472Y-105.156
X96.012Y-61.976
X96.012Y-69.596
X96.012Y-79.248
X96.012Y-86.868
X96.012Y-97.536
X96.012Y-105.156
X98.552Y-61.976
X98.552Y-69.596
X98.552Y-79.248
X98.552Y-86.868
X98.552Y-97.536
X98.552Y-105.156
X101.092Y-61.976
X101.092Y-69.596
X101.092Y-79.248
X101.092Y-86.868
X101.092Y-97.536
X101.092Y-105.156
X103.632Y-61.976
X103.632Y-69.596
X103.632Y-79.248
X103.632Y-86.868
X103.632Y-97.536
X103.632Y-105.156
T3
X60.96Y-61.08
X60.96Y-63.58
X60.96Y-66.08
X60.96Y-68.58
T4
X67.564Y-58.928
X67.564Y-69.088
X70.104Y-58.928
X70.104Y-69.088
X72.644Y-58.928
X72.644Y-69.088
X75.184Y-58.928
X75.184Y-69.088
X77.724Y-58.928
X77.724Y-69.088
X80.264Y-58.928
X80.264Y-69.088
X111.923Y-64.462
X111.923Y-67.002
X111.923Y-69.542
X111.923Y-72.082
X111.923Y-74.622
X111.923Y-77.162
X111.923Y-79.702
X111.923Y-82.242
X111.923Y-84.782
X111.923Y-87.322
X111.923Y-89.862
X111.923Y-92.402
X111.923Y-94.942
X111.923Y-97.482
X111.923Y-100.022
X127.163Y-64.462
X127.163Y-67.002
X127.163Y-69.542
X127.163Y-72.082
X127.163Y-74.622
X127.163Y-77.162
X127.163Y-79.702
X127.163Y-82.242
X127.163Y-84.782
X127.163Y-87.322
X127.163Y-89.862
X127.163Y-92.402
X127.163Y-94.942
X127.163Y-97.482
X127.163Y-100.022
T0
M30
